<?xml version="1.0" encoding="utf-8"?>
<!-- Generator: Adobe Illustrator 22.0.1, SVG Export Plug-In . SVG Version: 6.00 Build 0)  -->
<svg version="1.1" id="Warstwa_1" xmlns="http://www.w3.org/2000/svg" xmlns:xlink="http://www.w3.org/1999/xlink" x="0px" y="0px"
	 viewBox="0 0 150 100" style="enable-background:new 0 0 150 100;" xml:space="preserve">
<g>
	<g>
		<path d="M18.2,68.4V55.7c0-0.4,0.1-0.8,0.4-1.1c0.3-0.3,0.6-0.4,1.1-0.5h2.8L25.3,65l2.8-10.8h4.3v14.2h-2.7V57l-2.9,11.4h-3.1
			L20.9,57v11.4H18.2z"/>
		<path d="M40.1,67.9c-0.6,0.3-1.2,0.5-1.8,0.6c-0.6,0.1-1.2,0.1-1.7,0.1c-1,0-1.8-0.3-2.6-0.8c-0.7-0.5-1.1-1.4-1.1-2.7
			c0-1.1,0.3-2,1-2.5c0.7-0.5,1.5-0.8,2.6-1c0.1,0,0.3,0,0.5-0.1s0.4-0.1,0.7-0.1c1.2-0.2,1.8-0.5,1.8-1.1c0-0.4-0.2-0.7-0.6-0.8
			c-0.4-0.1-0.8-0.2-1.2-0.2c-0.4,0-0.7,0.1-1,0.2c-0.3,0.1-0.5,0.3-0.7,0.6h-2.7c0.1-0.8,0.5-1.5,1.1-2.1c0.7-0.6,1.8-0.9,3.2-0.9
			c1.5,0,2.7,0.3,3.4,0.8c0.8,0.6,1.2,1.3,1.2,2.3v3.7c0,1.1-0.2,2-0.6,2.6C41.1,67.2,40.6,67.7,40.1,67.9z M39.4,62.9
			c-0.4,0.2-0.9,0.4-1.6,0.5l-0.9,0.2c-0.5,0.1-0.8,0.3-1.1,0.5c-0.2,0.3-0.3,0.6-0.3,0.9c0,0.4,0.1,0.7,0.4,1
			c0.2,0.2,0.6,0.3,1.1,0.3c0.8,0,1.4-0.2,1.8-0.7c0.4-0.4,0.7-1.1,0.7-1.8L39.4,62.9L39.4,62.9z"/>
		<path d="M42.3,64.8h2.8c0,0.6,0.2,1,0.6,1.2c0.4,0.3,1,0.4,1.6,0.4c0.5,0,0.9-0.1,1.3-0.3c0.3-0.2,0.5-0.4,0.5-0.8
			c0-0.5-0.6-0.9-1.7-1.1c-0.5-0.1-0.9-0.2-1.1-0.2c-1.5-0.4-2.4-0.8-2.9-1.3c-0.6-0.5-0.8-1.1-0.8-2c0-1.1,0.4-1.9,1.2-2.6
			c0.8-0.6,1.9-0.9,3.2-0.9c1.4,0,2.6,0.3,3.4,0.9c0.8,0.7,1.2,1.6,1.3,2.7h-1.8c-0.5,0-0.9-0.2-1.2-0.7c-0.1-0.1-0.2-0.2-0.3-0.3
			c-0.3-0.2-0.8-0.4-1.3-0.4c-0.6,0-1,0.1-1.2,0.2c-0.2,0.2-0.4,0.4-0.4,0.7c0,0.4,0.7,0.8,2.1,1.1c0.2,0.1,0.3,0.1,0.4,0.1
			s0.2,0,0.4,0c1.4,0.4,2.4,0.8,2.9,1.2c0.5,0.5,0.8,1.1,0.8,2c0,1.2-0.4,2.1-1.3,2.8c-0.8,0.6-2,0.9-3.7,0.9
			c-1.5,0-2.7-0.3-3.5-0.9C42.7,66.9,42.3,66,42.3,64.8L42.3,64.8L42.3,64.8z"/>
		<path d="M57.2,68.4c-0.9,0.1-1.9,0-2.9,0c-1.1-0.1-1.6-0.8-1.6-2V54.3h1.5c0.4,0,0.7,0.1,0.9,0.4c0.3,0.3,0.4,0.6,0.4,1v1.8h1.7
			v0.6c0,0.4-0.1,0.8-0.4,1c-0.3,0.3-0.6,0.4-1,0.4h-0.3v6.1c0,0.5,0.3,0.7,0.8,0.7h0.9V68.4z"/>
		<path d="M65.1,65h2c-0.3,1.1-0.9,2-1.7,2.6c-0.8,0.6-1.9,0.9-3.2,0.9c-1.5,0-2.8-0.5-3.7-1.5c-0.9-1-1.3-2.4-1.3-4.2
			c0-1.8,0.4-3.1,1.3-4.1c0.9-1,2.1-1.5,3.7-1.5c1.6,0,2.9,0.5,3.8,1.5c0.9,1,1.3,2.4,1.3,4.2c0,0.1,0,0.2,0,0.3s0,0.1,0,0.2
			c0,0.1,0,0.2,0,0.3h-7.1c0,0.8,0.2,1.5,0.6,1.9c0.4,0.4,0.9,0.7,1.6,0.7c0.5,0,0.9-0.1,1.2-0.3c0.1,0,0.1-0.1,0.2-0.1
			c0.1-0.1,0.1-0.1,0.2-0.2c0-0.1,0.1-0.2,0.3-0.3C64.5,65.1,64.7,65,65.1,65z M60.2,61.8h4.2c-0.1-0.7-0.2-1.3-0.6-1.6
			c-0.4-0.4-0.9-0.6-1.5-0.6c-0.6,0-1.1,0.2-1.5,0.6C60.4,60.6,60.2,61.1,60.2,61.8z"/>
		<path d="M67.8,68.4v-5.3c0-1.1,0.1-2,0.5-2.7s0.8-1.3,1.3-1.8c0.5-0.4,1.1-0.7,1.8-0.9s1.4-0.3,2.2-0.3c0.1,0,0.1,0,0.2,0
			c0.1,0,0.1,0,0.2,0v2.9H73c-0.8,0-1.4,0.2-1.8,0.6c-0.4,0.4-0.6,1-0.6,1.8v5.6L67.8,68.4L67.8,68.4z"/>
		<path d="M77,71c0,0.4-0.1,0.7-0.4,1c-0.3,0.3-0.6,0.4-1,0.4h-1.4V62.2c0-1.9,0.6-3.2,1.7-3.9c1.1-0.7,2.3-1.1,3.7-1.1
			c0.7,0,1.4,0.1,2.1,0.4c0.7,0.3,1.3,0.6,1.7,1.1c0.8,1.1,1.2,2.4,1.2,4.1c0,1.7-0.4,3.1-1.2,4.2s-1.9,1.5-3.2,1.5
			c-0.7,0-1.3-0.1-1.8-0.4c-0.6-0.3-1-0.7-1.3-1.3L77,71L77,71z M81.7,63c0-1.1-0.2-1.9-0.6-2.5c-0.4-0.6-1-0.9-1.8-0.9
			c-0.7,0-1.3,0.3-1.7,0.9C77.2,61.1,77,61.9,77,63c0,1.1,0.2,1.8,0.6,2.3c0.4,0.6,1,0.9,1.8,0.9c0.7,0,1.3-0.3,1.7-0.9
			C81.5,64.7,81.7,63.9,81.7,63z"/>
		<path d="M85,68.4v-5.3c0-1.1,0.1-2,0.5-2.7c0.3-0.7,0.8-1.3,1.3-1.8c0.5-0.4,1.1-0.7,1.8-0.9c0.7-0.2,1.4-0.3,2.2-0.3
			c0.1,0,0.1,0,0.2,0s0.1,0,0.2,0v2.9h-0.9c-0.8,0-1.4,0.2-1.8,0.6c-0.4,0.4-0.6,1-0.6,1.8v5.6L85,68.4L85,68.4z"/>
		<path d="M92.8,67.4c-0.6-0.5-1-1.2-1.2-2c-0.2-0.8-0.4-1.7-0.4-2.6c0-0.7,0.1-1.5,0.3-2.2c0.2-0.7,0.5-1.3,1-1.8
			c0.7-0.8,1.6-1.3,2.7-1.5c1.1-0.1,2.1-0.1,3,0.3c1.1,0.4,1.8,1.1,2.3,2.1c0.5,0.9,0.7,2,0.7,3.2c0,0.9-0.1,1.6-0.3,2.2
			c-0.2,0.6-0.4,1.2-0.7,1.6c-0.7,0.9-1.5,1.5-2.5,1.7c-0.9,0.2-1.8,0.3-2.7,0.1C94.1,68.2,93.4,67.9,92.8,67.4z M94.8,60.2
			c-0.6,0.6-0.8,1.6-0.8,2.8c0.1,1.3,0.3,2.1,0.7,2.6c0.2,0.2,0.4,0.4,0.9,0.6c0.4,0.1,0.8,0.2,1.3,0c0.4-0.1,0.8-0.4,1.1-0.9
			s0.5-1.3,0.5-2.4c0-1-0.1-1.7-0.5-2.2c-0.3-0.5-0.7-0.8-1.1-0.9c-0.4-0.1-0.8-0.1-1.2,0C95.3,59.8,95,60,94.8,60.2z"/>
		<path d="M100.8,72.9v-2.4h0.5c0.2,0,0.4-0.1,0.5-0.2c0.1-0.1,0.2-0.3,0.2-0.5v-1.4v-8.3v-2.7h1.5c0.4,0,0.7,0.1,1,0.4
			c0.3,0.3,0.4,0.6,0.4,1v9.5v1.9c0,0.9-0.3,1.6-0.8,2c-0.6,0.4-1.5,0.6-2.7,0.6H100.8z M101.9,54.3h1.5c0.4,0,0.7,0.1,1,0.4
			c0.3,0.3,0.4,0.6,0.4,1v0.9H102L101.9,54.3L101.9,54.3z"/>
		<path d="M113,65h2c-0.3,1.1-0.9,2-1.7,2.6c-0.8,0.6-1.9,0.9-3.2,0.9c-1.5,0-2.8-0.5-3.7-1.5c-0.9-1-1.3-2.4-1.3-4.2
			c0-1.8,0.4-3.1,1.3-4.1c0.9-1,2.1-1.5,3.7-1.5c1.6,0,2.9,0.5,3.8,1.5c0.9,1,1.3,2.4,1.3,4.2c0,0.1,0,0.2,0,0.3s0,0.1,0,0.2
			c0,0.1,0,0.2,0,0.3h-7.1c0,0.8,0.2,1.5,0.6,1.9c0.4,0.4,0.9,0.7,1.6,0.7c0.5,0,0.9-0.1,1.2-0.3c0.1,0,0.1-0.1,0.2-0.1
			c0.1-0.1,0.1-0.1,0.2-0.2c0-0.1,0.1-0.2,0.3-0.3C112.5,65.1,112.7,65,113,65z M108.1,61.8h4.2c-0.1-0.7-0.2-1.3-0.6-1.6
			c-0.4-0.4-0.9-0.6-1.5-0.6c-0.6,0-1.1,0.2-1.5,0.6C108.3,60.6,108.1,61.1,108.1,61.8z"/>
		<path d="M118.6,57.5v4l3.5-4h3.4l-3.9,4.2l3.9,6.7h-3.4l-2-3.7c-0.4-0.7-0.8-1.1-1.1-0.9c-0.3,0.1-0.4,0.3-0.4,0.5v1.5v2.6h-2.9
			V54.3h1.5c0.4,0,0.7,0.1,1,0.4c0.3,0.3,0.4,0.6,0.4,0.9L118.6,57.5L118.6,57.5z"/>
		<path d="M130.9,68.4c-0.9,0.1-1.9,0-2.9,0c-1.1-0.1-1.6-0.8-1.6-2V54.3h1.5c0.4,0,0.7,0.1,0.9,0.4c0.3,0.3,0.4,0.6,0.4,1v1.8h1.7
			v0.6c0,0.4-0.1,0.8-0.4,1c-0.3,0.3-0.6,0.4-1,0.4h-0.3v6.1c0,0.5,0.3,0.7,0.8,0.7h0.9L130.9,68.4L130.9,68.4z"/>
	</g>
	<path d="M120.8,27.9c-2.9,0-5.4,1.2-7.3,3.1c-1.8-1.9-4.4-3.1-7.3-3.1c-2.9,0-5.4,1.2-7.3,3.1c-1.8-1.9-4.4-3.1-7.3-3.1
		c-2.9,0-5.4,1.2-7.3,3.1c-1.8-1.9-4.4-3.1-7.3-3.1c-5.6,0-10.1,4.6-10.2,10.2v5.4c0,1.6,1.3,2.9,2.9,2.9c1.6,0,2.9-1.3,2.9-2.9
		v-5.3c0-1.2,0.5-2.3,1.3-3.1c0.8-0.8,1.9-1.3,3.1-1.3s2.3,0.5,3.1,1.3c0.8,0.8,1.3,1.9,1.3,3.1v5.4c0,1.6,1.3,2.9,2.9,2.9
		c0,0,0,0,0,0h0c1.6,0,2.9-1.3,2.9-2.9v-5.3c0-1.2,0.5-2.3,1.3-3.1c0.8-0.8,1.9-1.3,3.1-1.3c1.2,0,2.3,0.5,3.1,1.3
		c0.8,0.8,1.3,1.9,1.3,3.1v5.4c0,1.6,1.3,2.9,2.9,2.9h0h0c1.6,0,2.9-1.3,2.9-2.9v-5.3c0-1.2,0.5-2.3,1.3-3.1s1.9-1.3,3.1-1.3
		c1.2,0,2.3,0.5,3.1,1.3c0.8,0.8,1.3,1.9,1.3,3.1v5.4c0,1.6,1.3,2.9,2.9,2.9c0,0,0,0,0,0h0c1.6,0,2.9-1.3,2.9-2.9v-5.3
		c0-1.2,0.5-2.3,1.3-3.1c0.8-0.8,1.9-1.3,3.1-1.3c1.2,0,2.3,0.5,3.1,1.3c0.8,0.8,1.3,1.9,1.3,3.1v5.4c0,1.6,1.3,2.9,2.9,2.9
		c1.6,0,2.9-1.3,2.9-2.9v-5.3C130.9,32.5,126.4,27.9,120.8,27.9z"/>
</g>
</svg>
