<svg viewBox="0 0 264 54" xmlns="http://www.w3.org/2000/svg" fill-rule="evenodd" clip-rule="evenodd"><path d="M2.836 24.255a1.09 1.09 0 00.037-.15l.093-.407a3.54 3.54 0 01.186-.576c.074-.174.167-.378.279-.614.11-.235.235-.421.37-.557a4.41 4.41 0 01.484-.41.849.849 0 01.614-.166c.359 0 .675.074.947.223.273.149.465.285.576.409.112.124.18.248.205.37.024.076.043.113.055.113.013 0 .062-.043.149-.13.595-.644 1.282-.966 2.062-.966h.056c.595 0 1.04.254 1.338.76.099.237.149.466.149.689 0 .372-.081.669-.242.892-.161.223-.322.365-.483.427a1.034 1.034 0 01-.464.074c-.248 0-.446-.068-.595-.204a.695.695 0 01-.223-.54c0-.593.347-.99 1.04-1.188-.272-.161-.495-.241-.668-.241-.694 0-1.332.458-1.914 1.375a2.457 2.457 0 00-.28.613c-.061.21-.271 1.034-.631 2.47-.421 1.735-.662 2.658-.724 2.769-.161.335-.428.502-.8.502a.635.635 0 01-.39-.111.67.67 0 01-.204-.223c-.037-.075-.05-.137-.037-.186 0-.161.248-1.226.743-3.196.496-1.97.743-3.066.743-3.29 0-.482-.161-.723-.483-.723-.26 0-.483.173-.67.52a5.468 5.468 0 00-.445 1.133c-.111.409-.18.632-.204.669-.025.025-.124.037-.297.037h-.26c-.075-.074-.112-.13-.112-.167zm1.468-4.924h6.708v-.855H4.304zm14.215 3.809c0-.161.086-.285.26-.371h11.836c.185.099.278.223.278.37 0 .137-.086.255-.26.354l-5.91.019h-5.907c-.198-.062-.297-.186-.297-.372zm0 3.605c0-.186.099-.31.297-.372h11.817c.174.124.26.248.26.372 0 .16-.093.285-.278.37H18.779c-.174-.085-.26-.21-.26-.37z" fill="#fff" fill-rule="nonzero" stroke="#000" stroke-width=".02"/><path fill="#fff" d="M39.347 25.206h13.378v-1.115H39.347z"/><path d="M45.349 6.287l-.242.093a5.303 5.303 0 01-.743.186 8.585 8.585 0 01-1.078.13h-.353v-.855h.353a6.061 6.061 0 001.617-.279c.495-.16.842-.309 1.04-.445.198-.137.372-.273.52-.409.025-.037.1-.056.223-.056.112 0 .217.037.316.111v5.556l.019 5.574a.743.743 0 00.223.168c.062.024.21.05.446.074.235.025.619.037 1.152.037h.483v.855h-.204c-.261-.037-1.245-.056-2.955-.056-1.684 0-2.657.02-2.917.056h-.223v-.855h1.189c.198 0 .353-.006.465-.019.11-.012.21-.03.297-.055s.136-.037.149-.037c.012 0 .049-.03.11-.093.063-.062.1-.087.113-.075V6.287zm-4.497 30.714c.013-.074.03-.173.056-.297a6.31 6.31 0 01.223-.706c.124-.347.248-.638.372-.874.123-.235.328-.464.613-.687.285-.223.569-.328.854-.316.446 0 .818.112 1.115.335.298.222.483.433.558.631.074.198.11.329.11.39 0 .025.007.038.02.038l.204-.205c.756-.793 1.617-1.189 2.583-1.189.669 0 1.208.167 1.616.502.409.334.62.823.632 1.468.012.644-.223 1.616-.706 2.917-.483 1.3-.718 2.087-.706 2.36 0 .322.105.483.316.483.074 0 .13-.007.167-.019.359-.062.68-.297.966-.706.285-.409.502-.904.65-1.486.025-.1.149-.149.372-.149.248 0 .372.049.372.149 0 .012-.025.105-.075.278a5.865 5.865 0 01-.408 1.059c-.174.347-.46.694-.855 1.041-.396.347-.824.514-1.282.502-.582 0-1.003-.168-1.264-.502-.26-.335-.39-.681-.39-1.041 0-.235.223-.978.669-2.229.446-1.251.675-2.193.688-2.825 0-.73-.273-1.096-.818-1.096h-.093c-1.065 0-1.963.626-2.694 1.877l-.13.223-.613 2.49c-.41 1.622-.644 2.496-.706 2.619-.161.335-.428.502-.8.502a.635.635 0 01-.39-.111.67.67 0 01-.204-.223c-.037-.075-.05-.137-.037-.186 0-.161.235-1.171.706-3.029.47-1.858.718-2.867.743-3.028.013-.062.019-.205.019-.428 0-.483-.15-.724-.446-.724-.471 0-.861.619-1.171 1.858a6.117 6.117 0 00-.111.39c-.025.074-.143.111-.353.111h-.26c-.075-.074-.112-.13-.112-.167zm18.321-25.028c.037-.025 3.784-.037 11.24-.037H81.6l1.077 2.508c.73 1.71 1.12 2.614 1.17 2.713h-.742l-.13-.26a6.252 6.252 0 00-1.041-1.45 7.787 7.787 0 00-2.062-1.43c-.756-.36-1.63-.625-2.62-.8a21.656 21.656 0 00-2.806-.315c-.88-.037-2.013-.062-3.4-.074h-8.324l.148.204c5.736 7.84 8.616 11.799 8.64 11.873.013.025.013.062 0 .112-.037.037-1.672 1.907-4.905 5.61L61.7 36.203c0 .013 1.307.019 3.92.019h2.62c1.103 0 1.895.006 2.379.019 1.684 0 3.047-.031 4.087-.093a23.73 23.73 0 003.103-.391c1.028-.198 1.902-.501 2.62-.91a6.987 6.987 0 001.914-1.616c.26-.323.514-.768.762-1.338h.743c0 .012-.043.142-.13.39-.087.248-.242.65-.465 1.208a28.295 28.295 0 00-.576 1.56L81.6 37.93l-11.167.019c-7.457 0-11.204-.012-11.242-.037-.074-.025-.111-.081-.111-.167 0-.025.012-.062.037-.112l9.904-11.334c0-.012-.205-.291-.614-.836a198.313 198.313 0 01-1.951-2.676 261.62 261.62 0 00-2.415-3.307l-4.942-6.782-.02-.28c0-.26.032-.408.094-.445z" fill="#fff" fill-rule="nonzero" stroke="#000" stroke-width=".02"/><path d="M66.206 43.952c0-.21.084-.394.25-.551a.866.866 0 01.578-.25c.157 0 .289.052.394.158a.583.583 0 01.17.393c0 .202-.087.386-.262.553a.878.878 0 01-.578.262.59.59 0 01-.368-.132c-.114-.087-.175-.231-.184-.433zm-2.141 4.112c0-.07.04-.206.118-.407.08-.202.184-.425.315-.67a2.18 2.18 0 01.579-.67c.253-.202.516-.298.788-.29.341 0 .626.102.853.303.229.201.347.473.355.814 0 .15-.061.395-.184.736-.122.342-.297.801-.525 1.38a34.82 34.82 0 00-.552 1.484 2.127 2.127 0 00-.065.42c0 .22.074.329.222.329.08 0 .163-.014.25-.04a.899.899 0 00.303-.184c.113-.096.232-.25.354-.46.123-.21.232-.468.329-.775a.538.538 0 01.065-.183c.018-.018.092-.027.224-.027.174 0 .262.044.262.132 0 .07-.039.206-.118.407a5.138 5.138 0 01-.328.67 2.19 2.19 0 01-.592.656 1.32 1.32 0 01-.814.29c-.28 0-.538-.092-.775-.276-.236-.184-.36-.465-.368-.84 0-.15.022-.29.066-.421.044-.132.232-.631.565-1.498.333-.884.525-1.415.577-1.59.054-.175.084-.346.092-.512 0-.21-.074-.315-.222-.315h-.027c-.262 0-.504.145-.723.433-.218.29-.385.657-.499 1.104a.166.166 0 00-.039.08c0 .008-.009.016-.026.025a.106.106 0 01-.04.013h-.341c-.053-.052-.08-.092-.08-.118zm4.992-.788c0-.114.061-.202.184-.263h8.368c.13.07.197.158.197.263 0 .096-.061.18-.184.25l-4.178.013h-4.177c-.14-.044-.21-.132-.21-.263zm0 2.548c0-.131.07-.219.21-.263h8.355c.123.088.184.176.184.263 0 .114-.066.202-.197.263h-8.368c-.123-.061-.184-.149-.184-.263zm12.296-5.583l-.171.066a3.75 3.75 0 01-.525.131 6.07 6.07 0 01-.763.092h-.25v-.604h.25a4.285 4.285 0 001.144-.197c.35-.114.595-.219.735-.315.14-.097.263-.193.368-.29.017-.025.07-.039.157-.039.08 0 .154.026.224.079v3.928l.013 3.94a.525.525 0 00.158.12c.044.016.148.034.315.052.166.017.438.026.814.026h.342v.604h-.144c-.185-.026-.88-.04-2.09-.04-1.19 0-1.878.014-2.062.04h-.157v-.604h.84c.14 0 .25-.004.329-.014.078-.008.148-.021.21-.038a.74.74 0 01.105-.027c.009 0 .035-.022.079-.065.044-.044.07-.062.079-.053V44.24zM68.805 4.438c.01-.052.022-.122.04-.21.017-.088.07-.254.157-.5.088-.244.176-.45.263-.617a1.56 1.56 0 01.434-.486c.201-.157.402-.232.603-.223.316 0 .579.08.789.237.21.157.341.306.394.446.052.14.079.232.079.276 0 .017.004.026.013.026l.144-.145c.535-.56 1.144-.84 1.826-.84.473 0 .855.118 1.143.355.29.236.438.582.447 1.038.008.455-.158 1.142-.5 2.062-.34.92-.507 1.475-.498 1.668 0 .228.074.342.223.342a.405.405 0 00.118-.013c.254-.044.481-.21.683-.5.201-.289.355-.639.46-1.05.017-.07.105-.106.263-.106.175 0 .263.035.263.106 0 .008-.018.074-.053.196-.07.254-.167.504-.289.75-.123.244-.324.49-.604.735-.28.245-.583.363-.907.355-.411 0-.709-.119-.893-.355-.184-.237-.276-.481-.276-.736 0-.166.157-.691.473-1.576.315-.884.477-1.55.486-1.997 0-.516-.193-.775-.578-.775h-.066c-.753 0-1.388.443-1.905 1.327l-.091.158-.434 1.76c-.289 1.147-.455 1.765-.499 1.852a.583.583 0 01-.565.355.45.45 0 01-.276-.079.474.474 0 01-.145-.157c-.026-.053-.034-.097-.026-.132 0-.114.166-.828.5-2.141.332-1.314.507-2.027.525-2.141.009-.044.013-.145.013-.303 0-.341-.105-.512-.315-.512-.333 0-.609.438-.828 1.314a4.325 4.325 0 00-.078.276c-.018.052-.102.078-.25.078h-.184c-.053-.052-.08-.092-.08-.118z" fill="#fff" fill-rule="nonzero" stroke="#000" stroke-width=".014"/><path d="M89.381 23.255a1.09 1.09 0 00.037-.15l.093-.407a3.54 3.54 0 01.186-.576c.074-.174.167-.378.28-.614.11-.235.234-.421.37-.557a4.41 4.41 0 01.483-.41.849.849 0 01.614-.166c.36 0 .675.074.947.223.273.149.465.285.576.409.112.124.18.248.205.37.024.076.043.113.055.113.013 0 .062-.043.15-.13.594-.644 1.281-.966 2.061-.966h.056c.595 0 1.041.254 1.338.76.1.237.15.466.15.689 0 .372-.082.669-.243.892-.16.223-.322.365-.483.427a1.034 1.034 0 01-.464.074c-.248 0-.446-.068-.595-.204a.695.695 0 01-.223-.54c0-.593.347-.99 1.04-1.188-.272-.161-.495-.241-.668-.241-.694 0-1.332.458-1.914 1.375a2.457 2.457 0 00-.279.613c-.062.21-.272 1.034-.632 2.47-.42 1.735-.662 2.658-.724 2.769-.16.335-.428.502-.799.502a.635.635 0 01-.39-.111.67.67 0 01-.205-.223c-.037-.075-.049-.137-.037-.186 0-.161.248-1.226.743-3.196.496-1.97.743-3.066.743-3.29 0-.482-.16-.723-.483-.723-.26 0-.483.173-.669.52a5.468 5.468 0 00-.446 1.133c-.11.409-.179.632-.204.669-.025.025-.124.037-.297.037h-.26c-.075-.074-.112-.13-.112-.167z" fill="#fff" fill-rule="nonzero" stroke="#000" stroke-width=".02"/><path d="M98.79 27.497c0-.21.083-.394.25-.551a.866.866 0 01.577-.25c.157 0 .289.053.394.158a.583.583 0 01.17.394c0 .201-.086.385-.262.552a.878.878 0 01-.578.262.59.59 0 01-.368-.131c-.113-.087-.175-.232-.183-.434zm-2.142 4.112c0-.07.04-.206.118-.407.08-.202.185-.425.315-.67a2.18 2.18 0 01.579-.67c.254-.201.517-.298.788-.289.342 0 .626.101.853.302.229.201.347.473.355.814 0 .15-.061.395-.184.736-.122.342-.297.801-.525 1.38a34.82 34.82 0 00-.552 1.484 2.127 2.127 0 00-.065.42c0 .22.074.33.223.33a.884.884 0 00.25-.04.899.899 0 00.302-.184 1.78 1.78 0 00.354-.46c.123-.21.233-.469.329-.775a.538.538 0 01.066-.184c.017-.018.091-.026.223-.026.175 0 .262.043.262.131 0 .07-.039.206-.118.407a5.138 5.138 0 01-.328.67 2.19 2.19 0 01-.592.657 1.32 1.32 0 01-.814.289c-.28 0-.538-.092-.775-.276-.236-.184-.36-.464-.368-.84 0-.15.022-.29.066-.421.044-.132.232-.63.565-1.498.333-.884.525-1.414.578-1.589.053-.175.083-.346.092-.513 0-.21-.075-.315-.223-.315h-.027c-.262 0-.503.145-.723.434-.218.289-.385.656-.499 1.103a.166.166 0 00-.039.08c0 .008-.009.016-.026.025a.106.106 0 01-.04.013h-.34c-.054-.052-.08-.092-.08-.118z" fill="#fff" fill-rule="nonzero" stroke="#000" stroke-width=".014"/><path d="M108.988 23.14c0-.161.086-.285.26-.371h11.836c.185.099.278.223.278.37 0 .137-.086.255-.26.354l-5.909.019h-5.908c-.198-.062-.297-.186-.297-.372zm0 3.605c0-.186.099-.31.297-.372h11.817c.174.124.26.248.26.372 0 .16-.093.285-.278.37h-11.836c-.174-.085-.26-.21-.26-.37z" fill="#fff" fill-rule="nonzero" stroke="#000" stroke-width=".02"/><path fill="#fff" d="M129.798 25.206h13.378v-1.115h-13.378z"/><path d="M135.799 6.287l-.242.093a5.303 5.303 0 01-.743.186 8.585 8.585 0 01-1.078.13h-.353v-.855h.353a6.061 6.061 0 001.617-.279c.495-.16.842-.309 1.04-.445.198-.137.372-.273.521-.409.024-.037.099-.056.222-.056.112 0 .217.037.316.111v5.556l.019 5.574a.743.743 0 00.223.168c.062.024.21.05.446.074.235.025.619.037 1.152.037h.483v.855h-.204c-.261-.037-1.245-.056-2.955-.056-1.684 0-2.657.02-2.917.056h-.223v-.855h1.189c.198 0 .353-.006.465-.019.111-.012.21-.03.297-.055s.136-.037.149-.037c.012 0 .049-.03.111-.093.062-.062.099-.087.112-.075V6.287zm-4.497 30.714c.013-.074.031-.173.056-.297a6.31 6.31 0 01.223-.706c.124-.347.248-.638.372-.874.123-.235.328-.464.613-.687.285-.223.569-.328.854-.316.446 0 .818.112 1.115.335.298.222.483.433.558.631.074.198.111.329.111.39 0 .025.006.038.019.038l.204-.205c.756-.793 1.617-1.189 2.583-1.189.669 0 1.208.167 1.616.502.409.334.62.823.632 1.468.012.644-.223 1.616-.706 2.917-.483 1.3-.718 2.087-.706 2.36 0 .322.105.483.316.483.074 0 .13-.007.167-.019.359-.062.681-.297.966-.706.285-.409.502-.904.651-1.486.024-.1.148-.149.371-.149.248 0 .372.049.372.149 0 .012-.025.105-.075.278a5.865 5.865 0 01-.408 1.059c-.174.347-.459.694-.855 1.041-.396.347-.824.514-1.282.502-.582 0-1.003-.168-1.264-.502-.26-.335-.39-.681-.39-1.041 0-.235.223-.978.669-2.229.446-1.251.675-2.193.688-2.825 0-.73-.273-1.096-.818-1.096h-.093c-1.065 0-1.963.626-2.694 1.877l-.13.223-.613 2.49c-.409 1.622-.644 2.496-.706 2.619-.161.335-.428.502-.799.502a.635.635 0 01-.39-.111.67.67 0 01-.205-.223c-.037-.075-.049-.137-.037-.186 0-.161.235-1.171.706-3.029.471-1.858.718-2.867.743-3.028.013-.062.019-.205.019-.428 0-.483-.149-.724-.446-.724-.471 0-.861.619-1.171 1.858a6.117 6.117 0 00-.111.39c-.025.074-.143.111-.353.111h-.26c-.075-.074-.112-.13-.112-.167zm15.85-12.058c0-.855.062-1.667.185-2.435.124-.768.267-1.43.428-1.988.161-.557.39-1.102.687-1.635.298-.532.533-.947.706-1.245.174-.297.434-.62.781-.966.347-.347.551-.557.613-.632.062-.074.217-.204.464-.39h.316c.174 0 .26.056.26.167 0 .038-.105.168-.316.39-.21.224-.464.552-.761.985-.298.434-.601.967-.911 1.598-.309.632-.57 1.487-.78 2.564-.211 1.078-.316 2.274-.316 3.587 0 1.313.105 2.502.316 3.567.21 1.065.464 1.926.762 2.583.297.656.6 1.189.91 1.598.31.408.57.737.78.984.211.248.316.378.316.39 0 .112-.093.168-.278.168h-.298l-.52-.446c-1.164-1.053-2.013-2.366-2.545-3.94a15.18 15.18 0 01-.799-4.904zm5.89-.688a1.09 1.09 0 00.037-.15l.093-.407a3.54 3.54 0 01.186-.576c.074-.174.167-.378.279-.614.111-.235.235-.421.371-.557a4.41 4.41 0 01.483-.41.849.849 0 01.614-.166c.359 0 .675.074.947.223.273.149.465.285.576.409.112.124.18.248.205.37.024.076.043.113.055.113.013 0 .062-.043.149-.13.595-.644 1.282-.966 2.062-.966h.056c.595 0 1.041.254 1.338.76.099.237.149.466.149.689 0 .372-.081.669-.242.892-.161.223-.322.365-.483.427a1.034 1.034 0 01-.464.074c-.248 0-.446-.068-.595-.204a.695.695 0 01-.223-.54c0-.593.347-.99 1.04-1.188-.272-.161-.495-.241-.668-.241-.694 0-1.332.458-1.914 1.375a2.457 2.457 0 00-.279.613c-.062.21-.272 1.034-.632 2.47-.421 1.735-.662 2.658-.724 2.769-.161.335-.428.502-.799.502a.635.635 0 01-.39-.111.67.67 0 01-.205-.223c-.037-.075-.049-.137-.037-.186 0-.161.248-1.226.743-3.196.496-1.97.743-3.066.743-3.29 0-.482-.161-.723-.483-.723-.26 0-.483.173-.669.52a5.468 5.468 0 00-.446 1.133c-.111.409-.179.632-.204.669-.025.025-.124.037-.297.037h-.26c-.075-.074-.112-.13-.112-.167z" fill="#fff" fill-rule="nonzero" stroke="#000" stroke-width=".02"/><path d="M161.831 27.786l-.17.066a3.75 3.75 0 01-.526.132 6.07 6.07 0 01-.762.092h-.25v-.605h.25a4.285 4.285 0 001.143-.197c.35-.114.595-.219.735-.315.14-.097.263-.193.369-.289.017-.026.07-.04.157-.04.079 0 .153.027.223.079v3.928l.013 3.94a.525.525 0 00.158.12c.044.017.149.034.315.052.167.018.438.026.815.026h.341v.605h-.144c-.184-.027-.88-.04-2.09-.04-1.19 0-1.878.013-2.061.04h-.158v-.605h.84c.14 0 .25-.004.33-.013.078-.009.148-.022.21-.04a.74.74 0 01.105-.025c.008 0 .034-.022.078-.066.044-.044.07-.062.08-.053v-6.792z" fill="#fff" fill-rule="nonzero" stroke="#000" stroke-width=".014"/><path d="M174.633 25.184c.693-2.936.693-3.016 0-.241-.694 2.774-.607 2.65.26-.372h5.555v-2.787l.019-2.787c.124-.161.241-.242.353-.242.161 0 .285.093.371.279v5.537h5.538c.185.099.278.223.278.372 0 .148-.093.272-.278.37h-5.538v5.538c-.099.174-.21.26-.334.26h-.074c-.149 0-.26-.086-.335-.26v-5.537h-5.555c-.174-.087-.26-.21-.26-.371v.24zm19.007-.241c0-.298.106-.558.316-.781.211-.223.477-.334.799-.334.297 0 .558.099.781.297.222.198.34.465.353.799 0 .31-.106.576-.316.799a1.052 1.052 0 01-.799.334c-.322 0-.589-.105-.799-.315a1.151 1.151 0 01-.335-.8zm8.306 0a1.1 1.1 0 01.316-.781 1.05 1.05 0 01.799-.334c.297 0 .557.099.78.297.223.198.341.465.353.799 0 .31-.105.576-.316.799a1.05 1.05 0 01-.799.334c-.322 0-.588-.105-.799-.315a1.15 1.15 0 01-.334-.8zm8.305 0c0-.298.106-.558.316-.781.211-.223.477-.334.799-.334.298 0 .558.099.781.297.223.198.34.465.353.799 0 .31-.106.576-.316.799a1.052 1.052 0 01-.799.334c-.322 0-.589-.105-.799-.315a1.151 1.151 0 01-.335-.8zm8.901.241c.693-2.936.693-3.016 0-.241-.694 2.774-.607 2.65.26-.372h5.555v-2.787l.019-2.787c.124-.161.241-.242.353-.242.161 0 .285.093.371.279v5.537h5.538c.185.099.278.223.278.372 0 .148-.093.272-.278.37h-5.538v5.538c-.099.174-.21.26-.334.26h-.074c-.149 0-.26-.086-.335-.26v-5.537h-5.555c-.174-.087-.26-.21-.26-.371v.24zm17.949-.929a1.09 1.09 0 00.037-.15l.093-.407a3.54 3.54 0 01.186-.576c.074-.174.167-.378.279-.614.111-.235.235-.421.371-.557a4.41 4.41 0 01.483-.41.849.849 0 01.614-.166c.359 0 .675.074.947.223.273.149.465.285.576.409.112.124.18.248.205.37.024.076.043.113.055.113.013 0 .062-.043.149-.13.595-.644 1.282-.966 2.062-.966h.056c.595 0 1.041.254 1.338.76.099.237.149.466.149.689 0 .372-.081.669-.242.892-.161.223-.322.365-.483.427a1.034 1.034 0 01-.464.074c-.248 0-.446-.068-.595-.204a.695.695 0 01-.223-.54c0-.593.347-.99 1.04-1.188-.272-.161-.495-.241-.668-.241-.694 0-1.332.458-1.914 1.375a2.457 2.457 0 00-.279.613c-.062.21-.272 1.034-.632 2.47-.421 1.735-.662 2.658-.724 2.769-.161.335-.428.502-.799.502a.635.635 0 01-.39-.111.67.67 0 01-.205-.223c-.037-.075-.049-.137-.037-.186 0-.161.248-1.226.743-3.196.496-1.97.743-3.066.743-3.29 0-.482-.161-.723-.483-.723-.26 0-.483.173-.669.52a5.468 5.468 0 00-.446 1.133c-.111.409-.179.632-.204.669-.025.025-.124.037-.297.037h-.26c-.075-.074-.112-.13-.112-.167z" fill="#fff" fill-rule="nonzero" stroke="#000" stroke-width=".02"/><path d="M244.368 31.61c.009-.053.022-.123.04-.21a4.3 4.3 0 01.157-.5c.088-.245.175-.451.263-.618.087-.166.232-.328.433-.486.202-.157.403-.232.604-.223.315 0 .578.08.788.237.211.157.342.306.395.446.052.14.078.233.078.276 0 .017.005.027.014.027l.144-.145c.535-.561 1.143-.841 1.826-.841.473 0 .854.118 1.143.355.289.236.438.582.447 1.038.008.455-.158 1.142-.5 2.062-.341.92-.507 1.476-.499 1.669 0 .227.075.341.224.341a.405.405 0 00.118-.013c.254-.044.481-.21.683-.5.201-.289.355-.639.46-1.05.017-.07.105-.105.262-.105.176 0 .263.034.263.105 0 .008-.017.074-.053.196-.07.254-.166.504-.288.75-.123.244-.325.49-.605.735-.28.245-.582.364-.906.355-.411 0-.71-.119-.894-.355-.183-.237-.275-.481-.275-.736 0-.166.157-.691.473-1.576.315-.884.477-1.55.486-1.997 0-.516-.193-.775-.578-.775h-.066c-.753 0-1.388.443-1.905 1.327l-.092.158-.433 1.76c-.29 1.147-.455 1.765-.5 1.852a.583.583 0 01-.564.355.45.45 0 01-.276-.079.474.474 0 01-.145-.157c-.026-.053-.034-.097-.026-.132 0-.114.166-.828.5-2.141.332-1.314.507-2.027.525-2.141.009-.044.013-.145.013-.303 0-.341-.105-.512-.315-.512-.333 0-.609.438-.828 1.314a4.325 4.325 0 00-.079.276c-.017.052-.1.078-.25.078h-.183c-.053-.052-.08-.092-.08-.118z" fill="#fff" fill-rule="nonzero" stroke="#000" stroke-width=".014"/><path d="M255.96 15.67l.074-.018h.409l.52.446c1.165 1.053 2.013 2.366 2.546 3.939.532 1.573.799 3.209.799 4.906 0 .842-.062 1.653-.186 2.434-.124.78-.266 1.443-.427 1.988a8.387 8.387 0 01-.688 1.635c-.297.545-.533.96-.706 1.245a5.568 5.568 0 01-.762.947c-.334.347-.532.552-.594.614a6.252 6.252 0 01-.428.353c-.037.037-.062.06-.074.074h-.427c-.038 0-.069-.02-.093-.056a.427.427 0 01-.056-.167c.012-.012.08-.093.204-.242 1.92-1.994 2.88-4.936 2.88-8.825 0-3.89-.96-6.832-2.88-8.826a13.637 13.637 0 00-.204-.242c0-.1.031-.167.093-.204z" fill="#fff" fill-rule="nonzero" stroke="#000" stroke-width=".02"/></svg>