<svg viewBox="0 0 491 70" xmlns="http://www.w3.org/2000/svg" fill-rule="evenodd" clip-rule="evenodd"><path d="M10.465 28.742a.937.937 0 00-.204-.167.939.939 0 00-.298-.056 57.58 57.58 0 00-.799-.056h-.613v-.854h1.97c1.065 0 1.666.006 1.802.018a.499.499 0 01.316.13c.012.013.663 1.728 1.951 5.147l1.932 5.091 1.932-5.091c1.289-3.419 1.945-5.134 1.97-5.147.037-.074.13-.117.279-.13.148-.012.755-.018 1.82-.018h1.97v.854h-.613c-.496.013-.812.031-.948.056a.509.509 0 00-.334.223v10.423a.448.448 0 00.315.223c.137.025.459.044.967.056h.613v.855h-.205c-.26-.038-1.127-.056-2.601-.056-1.622 0-2.489.018-2.601.056h-.204v-.855h.613c.52-.012.836-.031.947-.056.112-.025.23-.099.353-.223V28.909l-.018-.353c-2.886 7.655-4.354 11.526-4.404 11.613-.049.074-.173.111-.371.111s-.322-.037-.372-.111a1944.2 1944.2 0 01-2.192-5.742l-2.155-5.722v.334c-.013.223-.019.613-.019 1.171v3.474l.019 5.017c.136.446.662.693 1.579.743h.316v.855h-.168c-.185-.038-.898-.056-2.136-.056-1.264 0-1.988.018-2.174.056h-.149v-.855h.316c.397-.025.719-.087.966-.186.248-.099.397-.179.446-.241.05-.062.112-.168.186-.316v-9.959zm20.692 11.856c-.26-.038-1.177-.056-2.75-.056s-2.49.018-2.75.056h-.204v-.855h.408c.607 0 .998-.02 1.171-.056.173-.037.297-.105.372-.204.024-.037.037-1.784.037-5.24 0-3.443-.013-5.183-.037-5.221a.482.482 0 00-.149-.13c-.05-.024-.186-.055-.409-.093-.223-.037-.55-.05-.985-.037h-.408v-.854h.204c.26.037 1.177.055 2.75.055s2.49-.018 2.75-.055h.204v.854h-.409c-.607 0-.997.019-1.17.056-.174.037-.297.105-.372.204-.025.038-.037 1.778-.037 5.22 0 3.457.012 5.204.037 5.24.05.063.1.106.15.13.048.026.185.057.408.094.223.037.551.049.984.037h.41v.855h-.205zm3.047-11.558a.937.937 0 00-.204-.166.939.939 0 00-.298-.056 57.58 57.58 0 00-.799-.056h-.613v-.854h5.072c.942 0 1.666.037 2.174.11a4.586 4.586 0 011.542.54c1.177.595 1.852 1.406 2.026 2.434.012.062.018.16.018.297 0 .409-.099.793-.297 1.152a2.96 2.96 0 01-.706.873 5.946 5.946 0 01-.836.576 3.943 3.943 0 01-.725.335l-.297.093a.594.594 0 00.204.11c.372.199.675.41.911.633.235.223.415.495.539.817.123.322.21.589.26.799.049.21.105.558.167 1.04.062.484.124.862.186 1.134.124.595.272.985.446 1.17.173.186.408.279.706.279h.092c.186 0 .366-.1.539-.297.174-.198.285-.54.335-1.022 0-.136.024-.223.074-.26.05-.037.149-.062.297-.074.149-.013.248 0 .298.037.049.037.074.118.074.24 0 .385-.099.776-.297 1.172-.199.396-.471.663-.818.799-.198.074-.458.11-.78.11-1.846-.073-2.911-.767-3.196-2.08-.025-.136-.037-.588-.037-1.356 0-.768-.043-1.282-.13-1.542-.235-.718-.706-1.177-1.412-1.375l-.186-.037-1.226-.02H36.08v2.435l.019 2.434a.45.45 0 00.316.223c.136.025.458.044.966.056h.613v.855h-.204c-.26-.038-1.14-.056-2.639-.056-1.511 0-2.396.018-2.656.056h-.205v-.855h.613c.521-.012.836-.031.948-.056.111-.025.229-.1.353-.223V29.04zm6.707 2.286v-.185c0-.223-.006-.41-.018-.558a2.045 2.045 0 00-.168-.576 1.975 1.975 0 00-.353-.576c-.136-.148-.371-.285-.706-.41a4.42 4.42 0 00-1.152-.24h-.408c-.248 0-.471-.006-.669-.02h-.39c-.558 0-.861.057-.911.169-.037.049-.056.89-.056 2.526v2.453h1.078c1.251 0 2.149-.112 2.694-.335.545-.222.886-.706 1.022-1.45.025-.135.037-.401.037-.798zm6.968-2.286a.937.937 0 00-.204-.166.939.939 0 00-.298-.056 57.58 57.58 0 00-.8-.056h-.612v-.854h5.072c.942 0 1.666.037 2.174.11a4.586 4.586 0 011.542.54c1.177.595 1.852 1.406 2.026 2.434.012.062.018.16.018.297 0 .409-.1.793-.297 1.152a2.96 2.96 0 01-.706.873 5.946 5.946 0 01-.836.576 3.943 3.943 0 01-.725.335l-.297.093a.594.594 0 00.204.11c.372.199.675.41.91.633.236.223.416.495.54.817.123.322.21.589.26.799.049.21.105.558.167 1.04.062.484.124.862.186 1.134.124.595.272.985.446 1.17.173.186.408.279.706.279h.092c.186 0 .366-.1.539-.297.174-.198.285-.54.335-1.022 0-.136.024-.223.074-.26.05-.037.149-.062.297-.074.149-.013.248 0 .298.037.049.037.074.118.074.24 0 .385-.1.776-.297 1.172-.2.396-.471.663-.818.799-.198.074-.458.11-.78.11-1.846-.073-2.911-.767-3.196-2.08-.025-.136-.037-.588-.037-1.356 0-.768-.043-1.282-.13-1.542-.235-.718-.706-1.177-1.412-1.375l-.186-.037-1.226-.02h-1.227v2.435l.019 2.434a.45.45 0 00.316.223c.136.025.458.044.966.056h.613v.855h-.204c-.26-.038-1.14-.056-2.64-.056-1.51 0-2.395.018-2.655.056h-.205v-.855h.613c.52-.012.836-.031.948-.056.11-.025.229-.1.353-.223V29.04zm6.707 2.286v-.185c0-.223-.006-.41-.018-.558a2.045 2.045 0 00-.168-.576 1.975 1.975 0 00-.353-.576c-.136-.148-.371-.285-.706-.41a4.42 4.42 0 00-1.152-.24h-.408c-.248 0-.471-.006-.67-.02h-.39c-.557 0-.86.057-.91.169-.037.049-.056.89-.056 2.526v2.453h1.078c1.25 0 2.149-.112 2.694-.335.545-.222.886-.706 1.022-1.45.025-.135.037-.401.037-.798zm10.758 2.824c0-.161.087-.284.26-.371h11.835c.186.099.279.223.279.37 0 .138-.087.255-.26.354l-5.908.019h-5.91c-.197-.062-.296-.186-.296-.372zm0 3.605c0-.186.099-.31.297-.372h11.817c.173.124.26.248.26.372 0 .16-.093.285-.28.372H65.605c-.173-.087-.26-.211-.26-.372z" fill="#fff" fill-rule="nonzero" stroke="#000" stroke-width=".02"/><path d="M89.042 28.068l.032-.17a3.58 3.58 0 01.128-.406c.071-.199.142-.366.213-.5.072-.136.189-.268.352-.396.164-.128.327-.188.491-.181.256 0 .469.064.64.192.17.128.277.249.32.363a.859.859 0 01.063.224c0 .014.005.021.011.021l.117-.118c.434-.454.929-.682 1.483-.682.384 0 .694.096.928.288.234.192.356.473.362.843.008.37-.128.927-.405 1.674-.277.746-.412 1.198-.405 1.354 0 .186.06.278.181.278a.33.33 0 00.096-.01c.206-.037.391-.171.555-.406a2.61 2.61 0 00.373-.853c.014-.058.085-.086.213-.086.143 0 .214.028.214.086 0 .007-.014.06-.043.16a3.366 3.366 0 01-.234.607c-.1.2-.264.399-.491.598-.227.199-.473.295-.736.287-.334 0-.576-.095-.725-.287a.963.963 0 01-.224-.598c0-.135.128-.561.384-1.28.256-.717.387-1.258.395-1.62 0-.42-.157-.63-.47-.63h-.053c-.612 0-1.127.36-1.547 1.078l-.074.128-.352 1.429c-.235.93-.37 1.432-.405 1.503a.473.473 0 01-.46.288.365.365 0 01-.223-.063.388.388 0 01-.117-.128c-.022-.043-.029-.079-.022-.107 0-.093.136-.672.405-1.739.27-1.066.413-1.645.427-1.738.007-.035.01-.118.01-.246 0-.277-.084-.415-.255-.415-.27 0-.494.355-.672 1.066a3.588 3.588 0 00-.064.224c-.014.043-.082.064-.203.064h-.149c-.042-.043-.064-.075-.064-.096z" fill="#fff" fill-rule="nonzero" stroke="#000" stroke-width=".011"/><path d="M102.205 8.733c.062-.136.174-.204.335-.204.087 0 .161.03.223.092a.507.507 0 01.13.223c0 .088-1.722 9.309-5.165 27.666-3.444 18.357-5.19 27.554-5.24 27.59-.025.113-.155.168-.39.168h-.056c-.148 0-.223-.012-.223-.037l-.26-1.523a580.353 580.353 0 01-.799-4.571c-.347-2.02-.687-3.995-1.022-5.927l-2.062-11.984-1.189 2.36-.483-.483 1.412-2.843 1.431-2.806c.012.013.662 3.754 1.95 11.223 1.252 7.444 1.896 11.197 1.933 11.259l4.72-25.027c3.12-16.66 4.706-25.053 4.755-25.176z" fill="#fff" fill-rule="nonzero" stroke="#000" stroke-width=".02"/><path fill="#fff" d="M102.509 44.326h349.039v-1.115h-349.04zm.231-34.115h344.58V9.096H102.74z"/><path d="M106.757 26.272c-.21 0-.315-.062-.315-.186 0-.025.018-.11.055-.26.05-.198.1-.31.15-.334.048-.025.191-.044.426-.056.335 0 .706-.019 1.115-.056.173-.037.291-.11.353-.223.025-.062.465-1.802 1.32-5.22l1.3-5.203c0-.087-.025-.13-.075-.13-.099-.037-.427-.068-.984-.093h-.576c-.075-.074-.112-.124-.112-.149 0-.024.013-.13.037-.315.05-.21.112-.34.186-.39h10.015c.086.05.13.117.13.204 0 .062-.08.755-.242 2.081-.16 1.325-.247 2.006-.26 2.043-.025.087-.149.131-.37.131h-.224a.285.285 0 01-.13-.242c0-.012.018-.16.055-.446.037-.285.056-.613.056-.985 0-.37-.043-.675-.13-.91a1.57 1.57 0 00-.353-.576c-.149-.149-.378-.248-.688-.297-.309-.05-.625-.093-.947-.13-.322-.038-.768-.044-1.338-.019h-.427c-1.016.012-1.555.031-1.617.056a.226.226 0 00-.13.148c-.012.013-.223.824-.63 2.434l-.596 2.397h1.45c.247 0 .42-.006.52-.018.1-.013.235-.03.408-.056.174-.025.322-.068.446-.13a1.2 1.2 0 00.316-.223 1.78 1.78 0 00.41-.613 4.35 4.35 0 00.24-.706c.05-.21.081-.322.093-.335.037-.062.155-.093.353-.093h.223c.087.062.13.124.13.186 0 .037-.192.85-.576 2.434-.384 1.586-.594 2.403-.63 2.453-.026.086-.15.13-.373.13h-.223c-.087-.075-.13-.149-.13-.223 0-.037.031-.174.093-.409s.093-.483.093-.743c0-.359-.124-.582-.372-.669-.248-.087-.799-.13-1.653-.13h-1.022l-.595 2.36c-.396 1.535-.594 2.341-.594 2.415 0 .173.551.26 1.653.26h.465a.506.506 0 01.111.13c0 .012-.012.136-.037.372a.853.853 0 01-.186.353h-.316c-.508-.025-1.443-.038-2.805-.038h-1.84c-.42 0-.656.007-.706.02zm13.992-12.021c0-.273.08-.489.241-.65h.205c.52.037 1.17.055 1.95.055 1.462 0 2.323-.018 2.583-.055h.186c.074.074.111.13.111.167 0 .037-.012.15-.037.334-.062.186-.117.304-.167.353h-.39a7.334 7.334 0 01-.558.037c-.359.062-.557.155-.594.28 0 .024.179 1.578.539 4.663.359 3.084.545 4.638.557 4.663l1.356-2.174a632.577 632.577 0 004.106-6.67.545.545 0 00.075-.278c0-.298-.273-.47-.818-.52-.223 0-.334-.069-.334-.205 0-.012.012-.093.037-.242.037-.173.074-.284.112-.334.037-.05.117-.074.241-.074h.223c.124 0 .334.006.632.018.297.013.693.02 1.189.02.854 0 1.393-.014 1.616-.038h.13c.087.086.13.155.13.204 0 .211-.055.41-.167.595-.037.037-.142.055-.316.055l-.446.037a1.425 1.425 0 00-.39.093c-.124.05-.223.093-.297.13a1.204 1.204 0 00-.223.15 1.02 1.02 0 01-.186.13.409.409 0 00-.148.166c-.05.087-.093.13-.131.13l-3.585 5.76c-2.23 3.605-3.382 5.45-3.456 5.537a3.047 3.047 0 00-.13.093l-.335.018h-.13c-.223 0-.334-.043-.334-.13-.037-.074-.279-2.056-.725-5.945-.471-3.939-.712-5.927-.724-5.964-.062-.137-.446-.205-1.152-.205h-.316c-.087-.062-.13-.13-.13-.204zm15.086 7.395c0-.855.062-1.666.186-2.434.124-.768.266-1.43.427-1.988.161-.558.39-1.103.688-1.635.297-.533.532-.948.706-1.245.173-.297.433-.619.78-.966.347-.347.551-.558.613-.632.062-.074.217-.204.465-.39h.315c.174 0 .261.056.261.167 0 .037-.106.167-.316.39a8.327 8.327 0 00-.762.985c-.297.433-.601.966-.91 1.598-.31.632-.57 1.486-.781 2.564-.21 1.077-.316 2.273-.316 3.586 0 1.313.106 2.502.316 3.567.211 1.065.465 1.926.762 2.583.297.656.601 1.19.91 1.597.31.41.57.737.781.985.21.248.316.378.316.39 0 .112-.093.168-.279.168h-.297l-.521-.446c-1.164-1.053-2.012-2.366-2.545-3.939a15.18 15.18 0 01-.799-4.905zm5.84 7.096h.558c.483 0 .774-.086.873-.26v-1.06c0-.222.006-.463.018-.723.013-.26.013-.533 0-.818a11.495 11.495 0 010-.91c.013-.322.013-.638 0-.948v-3.53c0-.297-.006-.54-.018-.725-.013-.185-.013-.284 0-.297-.037-.235-.124-.39-.26-.464-.137-.075-.415-.13-.836-.168h-.335v-.427c0-.285.013-.427.037-.427l.186-.02c.124-.011.304-.024.539-.036l.687-.037c.211-.013.44-.025.688-.037a4.18 4.18 0 00.557-.056c.124-.025.192-.031.205-.02h.055v.484l.019.484.149-.131c.73-.545 1.585-.817 2.564-.817 1.003 0 1.858.396 2.564 1.189s1.065 1.79 1.077 2.99c0 1.252-.402 2.268-1.208 3.048-.805.78-1.715 1.17-2.731 1.17a3.344 3.344 0 01-2.229-.817l-.149-.13v2.62c0 .335.012.539.037.613.025.075.093.143.205.205.26.037.563.055.91.055h.297v.855h-.148l-.446-.018a20.53 20.53 0 00-.929-.02c-.335 0-.57-.005-.706-.018-1.276 0-1.97.019-2.081.056h-.149v-.855zm7.506-6.8c0-.916-.21-1.715-.631-2.397-.421-.681-.948-1.021-1.58-1.021-.879 0-1.641.402-2.285 1.207v4.44c.496.893 1.189 1.339 2.081 1.339.632 0 1.189-.335 1.672-1.004.483-.67.731-1.523.743-2.564zm2.986.373c0-1.177.402-2.193 1.207-3.048.806-.854 1.778-1.288 2.917-1.3 1.115 0 2.075.421 2.88 1.263.805.843 1.214 1.864 1.227 3.066 0 1.177-.397 2.168-1.189 2.973-.793.805-1.766 1.207-2.918 1.207-1.201 0-2.186-.415-2.954-1.244-.768-.83-1.158-1.803-1.17-2.917zm4.124 3.418c1.512 0 2.267-1.009 2.267-3.028v-1.059c0-.273-.006-.508-.018-.706a3.654 3.654 0 00-.13-.706 2.097 2.097 0 00-.298-.669c-.124-.174-.316-.347-.576-.52a2.588 2.588 0 00-.91-.372 2.586 2.586 0 00-1.356.204c-.533.273-.88.651-1.041 1.134-.161.483-.241 1.053-.241 1.71v.371c0 1.19.117 2.025.353 2.508.396.755 1.046 1.133 1.95 1.133zm10.145-5.313c0-.496-.168-.923-.502-1.283-.335-.359-.818-.538-1.449-.538-.446 0-.83.08-1.152.241-.372.235-.558.558-.558.966a.807.807 0 000 .242c.013.1.112.248.298.446.185.198.452.353.799.464.223.062.495.118.817.167.322.05.595.106.818.168.223.062.421.142.594.241.211.1.415.223.613.372.198.148.397.402.595.762.198.36.303.743.316 1.152 0 .767-.236 1.4-.706 1.895-.471.495-1.233.75-2.286.761h-.148c-.644 0-1.239-.223-1.784-.668l-.149.13-.167.167a3.196 3.196 0 01-.223.204l-.204.186h-.223c-.037 0-.093-.037-.167-.11v-2.547c0-.26.012-.415.037-.464.025-.05.087-.08.186-.093h.167c.148 0 .248.024.297.074.05.05.081.124.093.223.012.1.056.266.13.502.074.235.192.495.353.78.434.632 1.034.948 1.802.948 1.202 0 1.803-.484 1.803-1.45 0-.359-.112-.65-.335-.873-.248-.297-.762-.52-1.542-.669-.78-.148-1.294-.29-1.542-.427a2.703 2.703 0 01-1.059-.855 1.928 1.928 0 01-.39-1.152c0-.483.105-.892.316-1.226a1.99 1.99 0 01.798-.743 3.864 3.864 0 011.747-.428h.204c.496 0 .929.093 1.301.28l.279.148.167-.13c.124-.112.26-.217.409-.316h.223c.037 0 .092.037.167.111v2.453l-.112.111h-.52c-.074-.074-.111-.148-.111-.223zm3.122-5.444c0-.347.111-.62.334-.818.223-.198.495-.297.817-.297.285.025.533.13.744.316.21.185.316.452.316.8 0 .37-.106.65-.316.835a1.142 1.142 0 01-.781.278c-.309 0-.569-.093-.78-.278-.211-.186-.322-.465-.334-.836zm3.307 11.315c-.186-.038-.83-.056-1.933-.056h-.687c-.322 0-.632.012-.929.037l-.409.02h-.148v-.856h.297c.347 0 .65-.019.91-.056.112-.049.18-.117.205-.204.024-.087.037-.347.037-.78v-3.549c0-.644-.013-1.053-.037-1.226-.025-.174-.112-.292-.26-.354-.174-.086-.465-.13-.874-.13h-.204v-.427c0-.285.012-.427.037-.427l.186-.019c.124-.012.297-.025.52-.037l.669-.037c.211-.013.434-.025.669-.037.235-.013.415-.03.539-.056.124-.025.192-.03.204-.019h.056v7.061c.062.124.136.198.223.223.086.024.303.05.65.074h.427v.855h-.148zm1.096-7.841c.657-.05 1.165-.396 1.524-1.04.359-.645.557-1.4.594-2.267v-.279h.743v3.42h2.509v.853h-2.509v2.676c.013 1.548.019 2.421.019 2.62 0 .198.043.396.13.594.174.483.477.725.911.725.545 0 .879-.44 1.003-1.319.012-.099.018-.384.018-.855v-.65h.744v.873c0 .954-.261 1.678-.781 2.174-.334.334-.768.501-1.3.501-.421 0-.787-.074-1.097-.223a1.737 1.737 0 01-.706-.576 3.142 3.142 0 01-.353-.65 2.079 2.079 0 01-.13-.594c-.012-.087-.018-1.004-.018-2.75v-2.546h-1.468v-.687h.167zm8.008-3.474c0-.347.111-.62.334-.818.223-.198.495-.297.817-.297.285.025.533.13.744.316.21.185.316.452.316.8 0 .37-.106.65-.316.835a1.142 1.142 0 01-.781.278c-.309 0-.569-.093-.78-.278-.211-.186-.322-.465-.334-.836zm3.307 11.315c-.186-.038-.83-.056-1.933-.056h-.687c-.322 0-.632.012-.929.037l-.409.02h-.148v-.856h.297c.347 0 .65-.019.91-.056.112-.049.18-.117.205-.204.024-.087.037-.347.037-.78v-3.549c0-.644-.013-1.053-.037-1.226-.025-.174-.112-.292-.26-.354-.174-.086-.465-.13-.874-.13h-.204v-.427c0-.285.012-.427.037-.427l.186-.019c.124-.012.297-.025.52-.037l.669-.037c.211-.013.434-.025.669-.037.235-.013.415-.03.539-.056.124-.025.192-.03.204-.019h.056v7.061c.062.124.136.198.223.223.086.024.303.05.65.074h.427v.855h-.148zm6.874-8.008c.075.025.595.037 1.561.037.706 0 1.208-.012 1.505-.037h.093v.854h-.204c-.719.05-1.177.298-1.375.744-.025.05-.44 1.121-1.245 3.214-.805 2.093-1.226 3.171-1.263 3.233-.062.111-.217.167-.465.167-.235 0-.384-.056-.446-.167-1.734-4.472-2.607-6.738-2.62-6.8-.062-.174-.161-.279-.297-.316-.136-.037-.378-.062-.725-.075h-.445v-.854h.111l.149.018h.854c.174 0 .329.007.465.02.136.011.248.018.334.018 1.177 0 1.858-.019 2.044-.056h.149v.854h-.26c-.484.013-.744.106-.781.28 0 .05.316.891.948 2.526l.947 2.452 1.691-4.44v-.149a.548.548 0 00-.186-.427.821.821 0 00-.334-.204 1.086 1.086 0 00-.26-.038h-.075v-.854h.13zm4.051 3.957c0-.68.124-1.3.371-1.858.248-.557.558-1.009.929-1.356a3.876 3.876 0 011.208-.78 3.607 3.607 0 011.226-.279c.657 0 1.22.111 1.691.334.471.223.83.533 1.078.93.247.396.421.792.52 1.188.099.397.155.837.167 1.32 0 .086-.043.173-.13.26h-5.239v.278c0 1.834.619 2.948 1.858 3.345.247.074.52.111.817.111.52 0 .966-.198 1.338-.594.21-.21.378-.47.501-.78l.186-.447c.037-.037.137-.055.298-.055h.055c.211 0 .316.062.316.185 0 .05-.018.131-.056.242-.235.681-.625 1.22-1.17 1.616a3.047 3.047 0 01-1.84.595c-1.176 0-2.155-.427-2.935-1.282-.78-.855-1.177-1.846-1.189-2.973zm5.667-1.059c-.137-1.585-.725-2.428-1.765-2.527h-.038a2.28 2.28 0 00-.297.02 2.038 2.038 0 00-.464.148 1.384 1.384 0 00-.539.39c-.149.173-.291.427-.428.762a4.95 4.95 0 00-.297 1.226v.13h3.828v-.149zm13.6-.557c4.583-3.778 4.453-3.778-.39 0s-5.066 3.685-.669-.279 4.298-4.199-.297-.706a.96.96 0 01.278-.706c.062-.062.093-.099.093-.11 0-.014-.062-.026-.185-.039a6.086 6.086 0 00-.911-.074c-.607 0-1.102.198-1.486.595-.582.582-.874 1.554-.874 2.917 0 1.015.192 1.814.576 2.396.508.756 1.19 1.134 2.044 1.134.508 0 .917-.16 1.226-.483a2.82 2.82 0 00.669-1.152c.025-.099.056-.16.093-.186.037-.025.137-.037.298-.037h.26c.074.074.111.13.111.167 0 .05-.025.15-.074.297-.05.15-.149.353-.297.613a3.326 3.326 0 01-.539.706c-.211.211-.508.403-.892.576a2.887 2.887 0 01-1.282.242c-1.065 0-1.994-.396-2.787-1.189-.793-.793-1.195-1.79-1.208-2.99 0-1.29.403-2.336 1.208-3.14.805-.807 1.74-1.209 2.805-1.209 1.066 0 1.809.167 2.23.502.421.334.632.73.632 1.19a.847.847 0 01-.316.686l-.316.28z" fill="#fff" fill-rule="nonzero" stroke="#000" stroke-width=".02"/><path d="M219.388 20.624c1.697-3.778 1.561-3.778-.409 0-1.969 3.778-2.198 3.685-.687-.279s1.418-4.205-.279-.724c0-.434.211-.818.632-1.152.421-.335 1.17-.502 2.248-.502.904 0 1.635.198 2.192.594.558.397.929.868 1.115 1.413.062.173.093.365.093.575 0 .211.006.923.019 2.137v1.301c0 .594.031 1.003.093 1.226.061.223.191.334.39.334.185 0 .309-.099.371-.297.062-.198.093-.526.093-.985v-.668h.743v.724c-.012.496-.031.787-.055.873a1.546 1.546 0 01-.651.874c-.322.21-.662.322-1.022.334-.359.012-.65-.099-.873-.334a1.792 1.792 0 01-.446-.78v-.075l-.037.056a.76.76 0 01-.093.111 2.785 2.785 0 00-.148.167 1.19 1.19 0 01-.223.205c-.087.062-.18.136-.279.223a1.158 1.158 0 01-.335.204c-.123.05-.26.1-.408.15a2.85 2.85 0 01-.483.11 6.787 6.787 0 01-.576.056 3.621 3.621 0 01-2.007-.576c-.594-.384-.892-.923-.892-1.616 0-.26.044-.508.13-.744.087-.235.254-.489.502-.76.248-.274.545-.503.892-.689.347-.186.83-.359 1.449-.52a9.377 9.377 0 012.044-.279h.26v-.408c0-.422-.037-.73-.112-.929-.272-.88-.873-1.32-1.802-1.32-.223 0-.433.007-.632.02a1.892 1.892 0 00-.464.073c-.111.037-.161.056-.149.056.273.186.409.458.409.818 0 .31-.099.551-.297.724l-.316.28zm-.204 3.697c0 .384.148.725.446 1.022a1.56 1.56 0 001.096.465c.47 0 .885-.143 1.245-.428.359-.285.6-.656.724-1.115.025-.086.044-.495.056-1.226 0-.718-.006-1.077-.019-1.077-.099 0-.229.006-.39.018-.161.013-.44.068-.836.167a6.077 6.077 0 00-1.078.372 2.363 2.363 0 00-.854.687c-.248.31-.378.682-.39 1.115zm12.449-3.901c0-.496-.168-.923-.502-1.283-.335-.359-.818-.538-1.449-.538-.446 0-.83.08-1.152.241-.372.235-.558.558-.558.966a.807.807 0 000 .242c.013.1.112.248.298.446.185.198.452.353.799.464.223.062.495.118.817.167.322.05.595.106.818.168.223.062.421.142.594.241.211.1.415.223.613.372.198.148.397.402.595.762.198.36.303.743.316 1.152 0 .767-.236 1.4-.706 1.895-.471.495-1.233.75-2.286.761h-.148c-.644 0-1.239-.223-1.784-.668l-.149.13-.167.167a3.196 3.196 0 01-.223.204l-.204.186h-.223c-.037 0-.093-.037-.167-.11v-2.547c0-.26.012-.415.037-.464.025-.05.087-.08.186-.093h.167c.148 0 .248.024.297.074.05.05.081.124.093.223.012.1.056.266.13.502.074.235.192.495.353.78.434.632 1.034.948 1.802.948 1.202 0 1.803-.484 1.803-1.45 0-.359-.112-.65-.335-.873-.248-.297-.762-.52-1.542-.669-.78-.148-1.294-.29-1.542-.427a2.703 2.703 0 01-1.059-.855 1.928 1.928 0 01-.39-1.152c0-.483.105-.892.316-1.226a1.99 1.99 0 01.798-.743 3.864 3.864 0 011.747-.428h.204c.496 0 .929.093 1.301.28l.279.148.167-.13c.124-.112.26-.217.409-.316h.223c.037 0 .092.037.167.111v2.453l-.112.111h-.52c-.074-.074-.111-.148-.111-.223zm2.303 5.016h.557c.484 0 .775-.087.874-.26v-1.988c0-.297.006-.607.018-.929.013-.322.013-.663 0-1.022a15.58 15.58 0 010-1.059v-2.843c0-.42-.006-.793-.018-1.115a8.492 8.492 0 010-.817c.012-.223.012-.328 0-.316-.037-.235-.124-.39-.26-.464-.137-.075-.415-.13-.837-.168h-.334v-.427c0-.285.012-.427.037-.427l.186-.019c.124-.012.303-.025.539-.037l.687-.037c.211-.013.44-.025.688-.037a4.2 4.2 0 00.557-.056c.124-.025.192-.03.204-.019h.056v6.076c.743-.929 1.635-1.394 2.676-1.394 1.523 0 2.359.7 2.508 2.1.012.087.019.947.019 2.582v1.598c0 .471.012.75.037.836.024.087.093.15.204.186.26.037.564.056.91.056h.298v.855h-.149l-.446-.019a22.072 22.072 0 00-.929-.019c-.334 0-.57-.006-.706-.018-1.276 0-1.969.018-2.081.056h-.148v-.855h.297c.755 0 1.133-.099 1.133-.297.013-.025.019-.88.019-2.564-.013-1.672-.025-2.558-.037-2.657-.075-.347-.198-.607-.372-.78-.173-.174-.322-.279-.446-.316a1.4 1.4 0 00-.483-.038c-.557 0-1.047.211-1.468.632-.334.335-.545.675-.631 1.022-.087.347-.137.861-.149 1.542v2.304c0 .372.006.62.019.743a.628.628 0 00.055.242c.025.037.081.074.167.111.261.037.564.056.911.056h.297v.855h-.148l-.428-.019a23.457 23.457 0 00-.947-.019 9.31 9.31 0 01-.706-.018c-1.276 0-1.97.018-2.081.056h-.149v-.855zm19.602.855c-.223-.038-1.01-.056-2.36-.056-1.276 0-1.969.018-2.081.056h-.148v-.855h.297c.347 0 .65-.019.91-.056a.398.398 0 00.223-.204c.013-.025.019-1.04.019-3.047v-2.992h-1.319v-.854h1.319v-1.226l.018-1.245.038-.186c.235-.805.631-1.387 1.189-1.747a4.343 4.343 0 011.765-.669h.167c.099 0 .186-.006.26-.018.508.037.892.198 1.152.483.26.285.39.607.39.966 0 .285-.086.514-.26.688-.173.173-.402.26-.687.26-.285 0-.514-.087-.688-.26-.173-.174-.26-.403-.26-.688 0-.248.112-.495.335-.743h-.075a.891.891 0 00-.204-.019c-.347 0-.657.13-.929.391-.273.26-.483.6-.632 1.021-.074.248-.118.837-.13 1.766v1.226h2.062v.854h-2.006v2.973c0 2.007.006 3.022.018 3.047.013.025.031.05.056.075a.24.24 0 00.093.055.241.241 0 01.093.056c.025.025.068.037.13.037s.105.006.13.02a.477.477 0 00.167.017h.167a2.4 2.4 0 01.186.02.482.482 0 00.186 0h.576v.854h-.167z" fill="#fff" fill-rule="nonzero" stroke="#000" stroke-width=".02"/><path d="M254.634 25.436h.557c.483 0 .774-.087.873-.26v-1.189c0-.236.006-.502.019-.799.012-.297.012-.607 0-.929a13.386 13.386 0 010-1.022 15.58 15.58 0 000-1.059V16.22c0-.322-.006-.594-.019-.817-.012-.223-.012-.328 0-.316-.037-.235-.124-.39-.26-.464-.136-.075-.415-.13-.836-.168h-.334v-.427c0-.285.012-.427.037-.427l.186-.019c.123-.012.303-.025.538-.037l.688-.037c.21-.013.44-.025.687-.037a4.2 4.2 0 00.558-.056c.124-.025.192-.03.204-.019h.056v5.853c0 3.926.006 5.902.018 5.927.05.1.124.167.223.204.26.037.564.056.911.056h.297v.855h-.149l-.427-.019a21.608 21.608 0 00-.91-.019c-.322 0-.558-.006-.706-.018a6.694 6.694 0 00-.706 0l-.929.037-.428.02h-.148v-.856zm5.221-3.121c0-1.177.402-2.193 1.207-3.048.806-.854 1.778-1.288 2.917-1.3 1.115 0 2.075.421 2.88 1.263.805.843 1.214 1.864 1.227 3.066 0 1.177-.397 2.168-1.189 2.973-.793.805-1.766 1.207-2.918 1.207-1.201 0-2.186-.415-2.954-1.244-.768-.83-1.158-1.803-1.17-2.917zm4.124 3.418c1.512 0 2.267-1.009 2.267-3.028v-1.059c0-.273-.006-.508-.018-.706a3.654 3.654 0 00-.13-.706 2.097 2.097 0 00-.298-.669c-.124-.174-.316-.347-.576-.52a2.588 2.588 0 00-.91-.372 2.586 2.586 0 00-1.356.204c-.533.273-.88.651-1.041 1.134-.161.483-.241 1.053-.241 1.71v.371c0 1.19.117 2.025.353 2.508.396.755 1.046 1.133 1.95 1.133zm6.318-6.28c-.075-.124-.161-.198-.26-.223a6.936 6.936 0 00-.669-.093h-.409v-.854h.111l.353.018c.236 0 .49.007.762.02.273.011.471.018.595.018 1.115 0 1.765-.019 1.951-.056h.148v.854h-.26c-.47.025-.706.13-.706.316 0 .013.273.812.818 2.397l.817 2.341 1.375-3.995-.111-.315c-.124-.36-.23-.57-.316-.632-.099-.062-.335-.099-.706-.112h-.372v-.854h.112c.074.037.594.056 1.56.056 1.127 0 1.784-.019 1.97-.056h.13v.854h-.167c-.595 0-.892.1-.892.298 0 .037.086.316.26.836.173.52.365 1.077.576 1.672.21.595.409 1.158.594 1.691l.279.8.762-2.212c.52-1.51.78-2.304.78-2.379 0-.198-.093-.359-.278-.483a1.397 1.397 0 00-.632-.223h-.149v-.854h.13c.149.037.737.056 1.765.056.843 0 1.301-.019 1.375-.056h.093v.854h-.223a.704.704 0 00-.167.02c-.582.086-.972.395-1.171.928l-1.114 3.214a186.52 186.52 0 00-.576 1.672c-.248.731-.403 1.165-.465 1.301-.062.136-.161.211-.297.223h-.149c-.235 0-.378-.043-.427-.13-.012-.012-.316-.86-.91-2.545l-.855-2.49c-.025.05-.613 1.728-1.765 5.035-.062.087-.205.13-.428.13h-.092c-.161 0-.273-.05-.335-.149l-2.415-6.893zm17.242.967c0-.496-.168-.923-.502-1.283-.335-.359-.818-.538-1.449-.538-.446 0-.83.08-1.152.241-.372.235-.558.558-.558.966a.807.807 0 000 .242c.013.1.112.248.298.446.185.198.452.353.799.464.223.062.495.118.817.167.322.05.595.106.818.168.223.062.421.142.594.241.211.1.415.223.613.372.198.148.397.402.595.762.198.36.303.743.316 1.152 0 .767-.236 1.4-.706 1.895-.471.495-1.233.75-2.286.761h-.148c-.644 0-1.239-.223-1.784-.668l-.149.13-.167.167a3.196 3.196 0 01-.223.204l-.204.186h-.223c-.037 0-.093-.037-.167-.11v-2.547c0-.26.012-.415.037-.464.025-.05.087-.08.186-.093h.167c.148 0 .248.024.297.074.05.05.081.124.093.223.012.1.056.266.13.502.074.235.192.495.353.78.434.632 1.034.948 1.802.948 1.202 0 1.803-.484 1.803-1.45 0-.359-.112-.65-.335-.873-.248-.297-.762-.52-1.542-.669-.78-.148-1.294-.29-1.542-.427a2.703 2.703 0 01-1.059-.855 1.928 1.928 0 01-.39-1.152c0-.483.105-.892.316-1.226a1.99 1.99 0 01.798-.743 3.864 3.864 0 011.747-.428h.204c.496 0 .929.093 1.301.28l.279.148.167-.13c.124-.112.26-.217.409-.316h.223c.037 0 .092.037.167.111v2.453l-.112.111h-.52c-.074-.074-.111-.148-.111-.223zm3.288 5.22c.966-.433.966-.588 0-.464-.966.124-.867-.143.297-.799 1.164-.657 1.431-.768.799-.335.347 0 .656.155.929.465.272.31.415.855.427 1.635 0 .434-.055.855-.167 1.263a5.701 5.701 0 01-.39 1.06c-.149.297-.31.551-.483.761a7.281 7.281 0 01-.446.502c-.124.124-.204.18-.242.167-.049 0-.13-.056-.241-.167-.112-.112-.167-.192-.167-.242 0-.049.068-.148.204-.297.136-.149.291-.334.464-.557.174-.223.335-.533.484-.929.148-.397.247-.849.297-1.357v-.223l-.019.02a.69.69 0 01-.093.036.482.482 0 00-.111.056.302.302 0 01-.167.037c-.075 0-.149.006-.223.02-.335 0-.607-.107-.818-.317l-.334-.335zm8.751-.204h.558c.483 0 .774-.087.873-.26V24.6c0-.174.006-.366.018-.576a6.716 6.716 0 000-.725 8.45 8.45 0 010-.78v-2.323l-.018-.427c-.037-.235-.124-.39-.26-.464-.137-.075-.415-.13-.836-.168h-.335v-.427c0-.285.013-.427.037-.427l.186-.019c.124-.012.297-.025.52-.037l.669-.037c.198-.013.415-.025.65-.037.236-.013.415-.03.539-.056.124-.025.192-.03.205-.019h.055v1.282c.483-.842 1.084-1.263 1.803-1.263h.111c.558 0 .966.136 1.226.41.261.271.391.556.391.853a.987.987 0 01-.242.67c-.161.185-.396.278-.706.278-.31 0-.539-.099-.687-.297a1.143 1.143 0 01-.242-.632c0-.112.012-.21.037-.297a.941.941 0 01.093-.223l.056-.093c-.025-.025-.167 0-.428.074a2.14 2.14 0 00-.445.28c-.583.556-.874 1.665-.874 3.325v1.97c0 .148.007.272.019.371.012.1.012.192 0 .278v.093c.012.025.031.05.056.075a.226.226 0 00.093.055.23.23 0 01.092.056c.025.025.069.037.13.037.062 0 .106.006.131.02a.47.47 0 00.167.017h.167a2.4 2.4 0 01.186.02.482.482 0 00.186 0h.576v.854h-.168c-.223-.038-1.009-.056-2.359-.056-1.276 0-1.97.018-2.081.056h-.149v-.855zm7.432-3.196c0-.68.124-1.3.371-1.858.248-.557.558-1.009.929-1.356a3.876 3.876 0 011.208-.78 3.607 3.607 0 011.226-.279c.657 0 1.22.111 1.691.334.471.223.83.533 1.078.93.247.396.421.792.52 1.188.099.397.155.837.167 1.32 0 .086-.043.173-.13.26h-5.239v.278c0 1.834.619 2.948 1.858 3.345.247.074.52.111.817.111.52 0 .966-.198 1.338-.594.21-.21.378-.47.501-.78l.186-.447c.037-.037.137-.055.298-.055h.055c.211 0 .316.062.316.185 0 .05-.018.131-.056.242-.235.681-.625 1.22-1.17 1.616a3.047 3.047 0 01-1.84.595c-1.176 0-2.155-.427-2.935-1.282-.78-.855-1.177-1.846-1.189-2.973zm5.667-1.059c-.137-1.585-.725-2.428-1.765-2.527h-.038a2.28 2.28 0 00-.297.02 2.038 2.038 0 00-.464.148 1.384 1.384 0 00-.539.39c-.149.173-.291.427-.428.762a4.95 4.95 0 00-.297 1.226v.13h3.828v-.149zm3.363-6.205c0-.347.111-.62.334-.818.223-.198.495-.297.817-.297.285.025.533.13.744.316.21.185.316.452.316.8 0 .37-.106.65-.316.835a1.142 1.142 0 01-.781.278c-.309 0-.569-.093-.78-.278-.211-.186-.322-.465-.334-.836zm3.307 11.315c-.186-.038-.83-.056-1.933-.056h-.687c-.322 0-.632.012-.929.037l-.409.02h-.148v-.856h.297c.347 0 .65-.019.91-.056.112-.049.18-.117.205-.204.024-.087.037-.347.037-.78v-3.549c0-.644-.013-1.053-.037-1.226-.025-.174-.112-.292-.26-.354-.174-.086-.465-.13-.874-.13h-.204v-.427c0-.285.012-.427.037-.427l.186-.019c.124-.012.297-.025.52-.037l.669-.037c.211-.013.434-.025.669-.037.235-.013.415-.03.539-.056.124-.025.192-.03.204-.019h.056v7.061c.062.124.136.198.223.223.086.024.303.05.65.074h.427v.855h-.148zm1.041-.855h.557c.484 0 .775-.087.874-.26v-1.152c0-.21.006-.452.018-.725a7.8 7.8 0 000-.78v-1.226c0-.434-.006-.799-.018-1.097v-.427c-.037-.235-.124-.39-.26-.464-.137-.075-.415-.13-.837-.168h-.334v-.427c0-.285.012-.427.037-.427l.186-.019c.124-.012.297-.025.52-.037l.688-.037c.21-.013.433-.025.669-.037.235-.013.414-.03.538-.056.124-.025.192-.03.205-.019h.055v.744c0 .47.007.706.019.706s.043-.03.093-.093l.223-.279c.099-.124.217-.235.353-.334.136-.1.316-.217.539-.353.223-.137.458-.236.706-.298.248-.062.563-.093.947-.093 1.412.05 2.199.75 2.36 2.1.012.087.019.947.019 2.582v1.598c0 .471.012.75.037.836.024.087.093.15.204.186.26.037.564.056.91.056h.298v.855h-.149l-.446-.019a22.072 22.072 0 00-.929-.019c-.334 0-.57-.006-.706-.018-1.276 0-1.969.018-2.081.056h-.148v-.855h.297c.755 0 1.133-.099 1.133-.297.013-.025.019-.88.019-2.564-.013-1.672-.025-2.558-.037-2.657-.075-.347-.198-.607-.372-.78-.173-.174-.322-.279-.446-.316a1.4 1.4 0 00-.483-.038c-.557 0-1.047.211-1.468.632-.334.335-.545.675-.631 1.022-.087.347-.137.861-.149 1.542v2.304c0 .372.006.62.019.743a.628.628 0 00.055.242c.025.037.081.074.167.111.261.037.564.056.911.056h.297v.855h-.148l-.428-.019a23.457 23.457 0 00-.947-.019 9.31 9.31 0 01-.706-.018c-1.276 0-1.97.018-2.081.056h-.149v-.855zm16.163-7.153c.075.025.595.037 1.561.037.706 0 1.208-.012 1.505-.037h.093v.854h-.204c-.719.05-1.177.298-1.375.744-.025.05-.44 1.121-1.245 3.214-.805 2.093-1.226 3.171-1.263 3.233-.062.111-.217.167-.465.167-.235 0-.384-.056-.446-.167-1.734-4.472-2.607-6.738-2.62-6.8-.062-.174-.161-.279-.297-.316-.136-.037-.378-.062-.725-.075h-.445v-.854h.111l.149.018h.854c.174 0 .329.007.465.02.136.011.248.018.334.018 1.177 0 1.858-.019 2.044-.056h.149v.854h-.26c-.484.013-.744.106-.781.28 0 .05.316.891.948 2.526l.947 2.452 1.691-4.44v-.149a.548.548 0 00-.186-.427.821.821 0 00-.334-.204 1.086 1.086 0 00-.26-.038h-.075v-.854h.13zm4.052 3.957c0-.68.124-1.3.371-1.858.248-.557.558-1.009.929-1.356a3.876 3.876 0 011.208-.78 3.607 3.607 0 011.226-.279c.657 0 1.22.111 1.691.334.471.223.83.533 1.078.93.247.396.421.792.52 1.188.099.397.155.837.167 1.32 0 .086-.043.173-.13.26h-5.239v.278c0 1.834.619 2.948 1.858 3.345.247.074.52.111.817.111.52 0 .966-.198 1.338-.594.21-.21.378-.47.501-.78l.186-.447c.037-.037.137-.055.298-.055h.055c.211 0 .316.062.316.185 0 .05-.018.131-.056.242-.235.681-.625 1.22-1.17 1.616a3.047 3.047 0 01-1.84.595c-1.176 0-2.155-.427-2.935-1.282-.78-.855-1.177-1.846-1.189-2.973zm5.667-1.059c-.137-1.585-.725-2.428-1.765-2.527h-.038a2.28 2.28 0 00-.297.02 2.038 2.038 0 00-.464.148 1.384 1.384 0 00-.539.39c-.149.173-.291.427-.428.762a4.95 4.95 0 00-.297 1.226v.13h3.828v-.149zm7.562-.761c0-.496-.168-.923-.502-1.283-.335-.359-.818-.538-1.449-.538-.446 0-.83.08-1.152.241-.372.235-.558.558-.558.966a.807.807 0 000 .242c.013.1.112.248.298.446.185.198.452.353.799.464.223.062.495.118.817.167.322.05.595.106.818.168.223.062.421.142.594.241.211.1.415.223.613.372.198.148.397.402.595.762.198.36.303.743.316 1.152 0 .767-.236 1.4-.706 1.895-.471.495-1.233.75-2.286.761h-.148c-.644 0-1.239-.223-1.784-.668l-.149.13-.167.167a3.196 3.196 0 01-.223.204l-.204.186h-.223c-.037 0-.093-.037-.167-.11v-2.547c0-.26.012-.415.037-.464.025-.05.087-.08.186-.093h.167c.148 0 .248.024.297.074.05.05.081.124.093.223.012.1.056.266.13.502.074.235.192.495.353.78.434.632 1.034.948 1.802.948 1.202 0 1.803-.484 1.803-1.45 0-.359-.112-.65-.335-.873-.248-.297-.762-.52-1.542-.669-.78-.148-1.294-.29-1.542-.427a2.703 2.703 0 01-1.059-.855 1.928 1.928 0 01-.39-1.152c0-.483.105-.892.316-1.226a1.99 1.99 0 01.798-.743 3.864 3.864 0 011.747-.428h.204c.496 0 .929.093 1.301.28l.279.148.167-.13c.124-.112.26-.217.409-.316h.223c.037 0 .092.037.167.111v2.453l-.112.111h-.52c-.074-.074-.111-.148-.111-.223zm2.34-1.97c.657-.05 1.165-.396 1.524-1.04.359-.645.557-1.4.594-2.267v-.279h.743v3.42h2.509v.853h-2.509v2.676c.013 1.548.019 2.421.019 2.62 0 .198.043.396.13.594.174.483.477.725.911.725.545 0 .879-.44 1.003-1.319.012-.099.018-.384.018-.855v-.65h.744v.873c0 .954-.261 1.678-.781 2.174-.334.334-.768.501-1.3.501-.421 0-.787-.074-1.097-.223a1.737 1.737 0 01-.706-.576 3.142 3.142 0 01-.353-.65 2.079 2.079 0 01-.13-.594c-.012-.087-.018-1.004-.018-2.75v-2.546h-1.468v-.687h.167zm7.209 6.986h.557c.484 0 .775-.087.874-.26v-1.152c0-.21.006-.452.018-.725a7.8 7.8 0 000-.78v-1.226c0-.434-.006-.799-.018-1.097v-.427c-.037-.235-.124-.39-.26-.464-.137-.075-.415-.13-.837-.168h-.334v-.427c0-.285.012-.427.037-.427l.186-.019c.124-.012.297-.025.52-.037l.688-.037c.21-.013.433-.025.669-.037.235-.013.414-.03.538-.056.124-.025.192-.03.205-.019h.055v.744c0 .47.007.706.019.706s.043-.03.093-.093l.223-.279c.099-.124.217-.235.353-.334.136-.1.316-.217.539-.353.223-.137.458-.236.706-.298.248-.062.563-.093.947-.093.186 0 .36.013.521.038.161.024.303.061.427.111s.241.1.353.15c.111.048.204.104.279.166.074.062.142.13.204.204.062.075.118.143.167.205.05.062.093.13.13.204a.998.998 0 01.075.186.74.74 0 00.055.148l.037.093.168-.223c.037-.049.093-.117.167-.204.074-.087.155-.167.241-.242l.279-.24c.099-.088.223-.162.372-.224.148-.062.291-.124.427-.186s.297-.105.483-.13a8.52 8.52 0 01.576-.056c1.561 0 2.409.7 2.546 2.1.012.087.018.947.018 2.582v1.598c0 .471.013.75.037.836.025.087.093.15.205.186.26.037.563.056.91.056h.297v.855h-.148l-.428-.019a23.457 23.457 0 00-.947-.019 9.31 9.31 0 01-.706-.018c-1.276 0-1.97.018-2.081.056h-.149v-.855h.297c.756 0 1.134-.099 1.134-.297.012-.025.018-.88.018-2.564-.012-1.672-.024-2.558-.037-2.657-.074-.347-.198-.607-.371-.78-.174-.174-.322-.279-.446-.316-.124-.038-.285-.05-.483-.038-.558 0-1.047.211-1.468.632-.335.335-.545.675-.632 1.022-.087.347-.136.861-.148 1.542v2.304c0 .372.006.62.018.743.013.124.031.205.056.242.025.037.08.074.167.111.26.037.564.056.91.056h.298v.855h-.149l-.446-.019a22.072 22.072 0 00-.929-.019c-.334 0-.57-.006-.706-.018-1.276 0-1.969.018-2.081.056h-.148v-.855h.297c.755 0 1.133-.099 1.133-.297.013-.025.019-.88.019-2.564-.013-1.672-.025-2.558-.037-2.657-.075-.347-.198-.607-.372-.78-.173-.174-.322-.279-.446-.316a1.4 1.4 0 00-.483-.038c-.557 0-1.047.211-1.468.632-.334.335-.545.675-.631 1.022-.087.347-.137.861-.149 1.542v2.304c0 .372.006.62.019.743a.628.628 0 00.055.242c.025.037.081.074.167.111.261.037.564.056.911.056h.297v.855h-.148l-.428-.019a23.457 23.457 0 00-.947-.019 9.31 9.31 0 01-.706-.018c-1.276 0-1.97.018-2.081.056h-.149v-.855zm15.533-3.196c0-.68.124-1.3.371-1.858.248-.557.558-1.009.929-1.356a3.876 3.876 0 011.208-.78 3.607 3.607 0 011.226-.279c.657 0 1.22.111 1.691.334.471.223.83.533 1.078.93.247.396.421.792.52 1.188.099.397.155.837.167 1.32 0 .086-.043.173-.13.26h-5.239v.278c0 1.834.619 2.948 1.858 3.345.247.074.52.111.817.111.52 0 .966-.198 1.338-.594.21-.21.378-.47.501-.78l.186-.447c.037-.037.137-.055.298-.055h.055c.211 0 .316.062.316.185 0 .05-.018.131-.056.242-.235.681-.625 1.22-1.17 1.616a3.047 3.047 0 01-1.84.595c-1.176 0-2.155-.427-2.935-1.282-.78-.855-1.177-1.846-1.189-2.973zm5.667-1.059c-.137-1.585-.725-2.428-1.765-2.527h-.038a2.28 2.28 0 00-.297.02 2.038 2.038 0 00-.464.148 1.384 1.384 0 00-.539.39c-.149.173-.291.427-.428.762a4.95 4.95 0 00-.297 1.226v.13h3.828v-.149zm2.545 4.255h.557c.484 0 .775-.087.874-.26v-1.152c0-.21.006-.452.018-.725a7.8 7.8 0 000-.78v-1.226c0-.434-.006-.799-.018-1.097v-.427c-.037-.235-.124-.39-.26-.464-.137-.075-.415-.13-.837-.168h-.334v-.427c0-.285.012-.427.037-.427l.186-.019c.124-.012.297-.025.52-.037l.688-.037c.21-.013.433-.025.669-.037.235-.013.414-.03.538-.056.124-.025.192-.03.205-.019h.055v.744c0 .47.007.706.019.706s.043-.03.093-.093l.223-.279c.099-.124.217-.235.353-.334.136-.1.316-.217.539-.353.223-.137.458-.236.706-.298.248-.062.563-.093.947-.093 1.412.05 2.199.75 2.36 2.1.012.087.019.947.019 2.582v1.598c0 .471.012.75.037.836.024.087.093.15.204.186.26.037.564.056.91.056h.298v.855h-.149l-.446-.019a22.072 22.072 0 00-.929-.019c-.334 0-.57-.006-.706-.018-1.276 0-1.969.018-2.081.056h-.148v-.855h.297c.755 0 1.133-.099 1.133-.297.013-.025.019-.88.019-2.564-.013-1.672-.025-2.558-.037-2.657-.075-.347-.198-.607-.372-.78-.173-.174-.322-.279-.446-.316a1.4 1.4 0 00-.483-.038c-.557 0-1.047.211-1.468.632-.334.335-.545.675-.631 1.022-.087.347-.137.861-.149 1.542v2.304c0 .372.006.62.019.743a.628.628 0 00.055.242c.025.037.081.074.167.111.261.037.564.056.911.056h.297v.855h-.148l-.428-.019a23.457 23.457 0 00-.947-.019 9.31 9.31 0 01-.706-.018c-1.276 0-1.97.018-2.081.056h-.149v-.855zm10.367-6.986c.657-.05 1.165-.396 1.524-1.04.359-.645.557-1.4.594-2.267v-.279h.743v3.42h2.509v.853h-2.509v2.676c.013 1.548.019 2.421.019 2.62 0 .198.043.396.13.594.174.483.477.725.911.725.545 0 .879-.44 1.003-1.319.012-.099.018-.384.018-.855v-.65h.744v.873c0 .954-.261 1.678-.781 2.174-.334.334-.768.501-1.3.501-.421 0-.787-.074-1.097-.223a1.737 1.737 0 01-.706-.576 3.142 3.142 0 01-.353-.65 2.079 2.079 0 01-.13-.594c-.012-.087-.018-1.004-.018-2.75v-2.546h-1.468v-.687h.167zm11.761 6.986h.558c.483 0 .774-.087.873-.26V24.6c0-.174.006-.366.018-.576a6.716 6.716 0 000-.725 8.45 8.45 0 010-.78v-2.323l-.018-.427c-.037-.235-.124-.39-.26-.464-.137-.075-.415-.13-.836-.168h-.335v-.427c0-.285.013-.427.037-.427l.186-.019c.124-.012.297-.025.52-.037l.669-.037c.198-.013.415-.025.65-.037.236-.013.415-.03.539-.056.124-.025.192-.03.205-.019h.055v1.282c.483-.842 1.084-1.263 1.803-1.263h.111c.558 0 .966.136 1.226.41.261.271.391.556.391.853a.987.987 0 01-.242.67c-.161.185-.396.278-.706.278-.31 0-.539-.099-.687-.297a1.143 1.143 0 01-.242-.632c0-.112.012-.21.037-.297a.941.941 0 01.093-.223l.056-.093c-.025-.025-.167 0-.428.074a2.14 2.14 0 00-.445.28c-.583.556-.874 1.665-.874 3.325v1.97c0 .148.007.272.019.371.012.1.012.192 0 .278v.093c.012.025.031.05.056.075a.226.226 0 00.093.055.23.23 0 01.092.056c.025.025.069.037.13.037.062 0 .106.006.131.02a.47.47 0 00.167.017h.167a2.4 2.4 0 01.186.02.482.482 0 00.186 0h.576v.854h-.168c-.223-.038-1.009-.056-2.359-.056-1.276 0-1.97.018-2.081.056h-.149v-.855zm9.458-4.812c1.697-3.778 1.561-3.778-.409 0-1.969 3.778-2.198 3.685-.687-.279s1.418-4.205-.279-.724c0-.434.211-.818.632-1.152.421-.335 1.17-.502 2.248-.502.904 0 1.635.198 2.192.594.558.397.929.868 1.115 1.413.062.173.093.365.093.575 0 .211.006.923.019 2.137v1.301c0 .594.031 1.003.093 1.226.061.223.191.334.39.334.185 0 .309-.099.371-.297.062-.198.093-.526.093-.985v-.668h.743v.724c-.012.496-.031.787-.055.873a1.546 1.546 0 01-.651.874c-.322.21-.662.322-1.022.334-.359.012-.65-.099-.873-.334a1.792 1.792 0 01-.446-.78v-.075l-.037.056a.76.76 0 01-.093.111 2.785 2.785 0 00-.148.167 1.19 1.19 0 01-.223.205c-.087.062-.18.136-.279.223a1.158 1.158 0 01-.335.204c-.123.05-.26.1-.408.15a2.85 2.85 0 01-.483.11 6.787 6.787 0 01-.576.056 3.621 3.621 0 01-2.007-.576c-.594-.384-.892-.923-.892-1.616 0-.26.044-.508.13-.744.087-.235.254-.489.502-.76.248-.274.545-.503.892-.689.347-.186.83-.359 1.449-.52a9.377 9.377 0 012.044-.279h.26v-.408c0-.422-.037-.73-.112-.929-.272-.88-.873-1.32-1.802-1.32-.223 0-.433.007-.632.02a1.892 1.892 0 00-.464.073c-.111.037-.161.056-.149.056.273.186.409.458.409.818 0 .31-.099.551-.297.724l-.316.28zm-.204 3.697c0 .384.148.725.446 1.022a1.56 1.56 0 001.096.465c.47 0 .885-.143 1.245-.428.359-.285.6-.656.724-1.115.025-.086.044-.495.056-1.226 0-.718-.006-1.077-.019-1.077-.099 0-.229.006-.39.018-.161.013-.44.068-.836.167a6.077 6.077 0 00-1.078.372 2.363 2.363 0 00-.854.687c-.248.31-.378.682-.39 1.115zm7.468-5.871c.657-.05 1.165-.396 1.524-1.04.359-.645.557-1.4.594-2.267v-.279h.743v3.42h2.509v.853h-2.509v2.676c.013 1.548.019 2.421.019 2.62 0 .198.043.396.13.594.174.483.477.725.911.725.545 0 .879-.44 1.003-1.319.012-.099.018-.384.018-.855v-.65h.744v.873c0 .954-.261 1.678-.781 2.174-.334.334-.768.501-1.3.501-.421 0-.787-.074-1.097-.223a1.737 1.737 0 01-.706-.576 3.142 3.142 0 01-.353-.65 2.079 2.079 0 01-.13-.594c-.012-.087-.018-1.004-.018-2.75v-2.546h-1.468v-.687h.167zm7.247 3.79c0-.68.124-1.3.371-1.858.248-.557.558-1.009.929-1.356a3.876 3.876 0 011.208-.78 3.607 3.607 0 011.226-.279c.657 0 1.22.111 1.691.334.471.223.83.533 1.078.93.247.396.421.792.52 1.188.099.397.155.837.167 1.32 0 .086-.043.173-.13.26h-5.239v.278c0 1.834.619 2.948 1.858 3.345.247.074.52.111.817.111.52 0 .966-.198 1.338-.594.21-.21.378-.47.501-.78l.186-.447c.037-.037.137-.055.298-.055h.055c.211 0 .316.062.316.185 0 .05-.018.131-.056.242-.235.681-.625 1.22-1.17 1.616a3.047 3.047 0 01-1.84.595c-1.176 0-2.155-.427-2.935-1.282-.78-.855-1.177-1.846-1.189-2.973zm5.667-1.059c-.137-1.585-.725-2.428-1.765-2.527h-.038a2.28 2.28 0 00-.297.02 2.038 2.038 0 00-.464.148 1.384 1.384 0 00-.539.39c-.149.173-.291.427-.428.762a4.95 4.95 0 00-.297 1.226v.13h3.828v-.149zm3.195-8.807l.075-.018h.408l.521.446c1.164 1.053 2.012 2.366 2.545 3.94a15.18 15.18 0 01.799 4.904c0 .842-.062 1.653-.186 2.434-.124.78-.266 1.443-.427 1.988a8.326 8.326 0 01-.688 1.635 31.4 31.4 0 01-.706 1.245c-.173.284-.427.6-.761.947-.335.347-.533.551-.595.613-.062.062-.204.18-.427.353l-.075.075h-.427c-.037 0-.068-.019-.093-.056a.443.443 0 01-.056-.167c.013-.013.081-.093.205-.242 1.92-1.994 2.88-4.936 2.88-8.825 0-3.89-.96-6.83-2.88-8.826a7.734 7.734 0 00-.205-.24c0-.1.031-.168.093-.206zM121.473 56.519c1.041-2.935 1.041-3.016 0-.241-1.04 2.774-.954 2.65.26-.372h10.795c.186.099.279.223.279.372 0 .148-.093.272-.279.37h-10.795c-.173-.085-.26-.21-.26-.37v.24zm18.227-6.264c0-.087-.353-.143-1.059-.168-.297 0-.489-.006-.576-.018-.087-.013-.13-.075-.13-.186 0-.012.012-.081.037-.204.074-.248.13-.384.167-.41.037-.024 1.239-.036 3.605-.036 2.353.012 3.61.03 3.771.055.793.137 1.456.44 1.988.91.533.472.806 1.097.818 1.877 0 .954-.409 1.827-1.226 2.62-.855.842-1.957 1.375-3.308 1.598-.086.012-.737.025-1.95.037h-1.765l-.558 2.21c-.371 1.438-.557 2.2-.557 2.286 0 .05.006.08.018.093a.762.762 0 00.13.075c.075.037.18.049.316.037.136-.013.341 0 .613.037h.576c.075.11.112.18.112.204 0 .199-.044.384-.13.558-.062.062-.161.093-.298.093a69.828 69.828 0 00-2.545-.038h-1.765c-.409 0-.632.007-.669.019-.223 0-.334-.062-.334-.186 0-.025.018-.111.055-.26.05-.198.1-.31.149-.334.05-.025.192-.044.427-.056.335 0 .706-.02 1.115-.056.174-.037.291-.111.353-.223.037-.05.483-1.771 1.338-5.165.855-3.394 1.282-5.184 1.282-5.37zm6.651 1.374c0-.161-.012-.291-.037-.39a2.093 2.093 0 00-.167-.408c-.087-.174-.241-.31-.464-.41a6.156 6.156 0 00-.911-.297c-.087-.012-.582-.024-1.486-.037h-.65a6.35 6.35 0 00-.539.019c-.137.012-.211.012-.223 0-.161.012-.273.068-.335.167-.024.074-.142.55-.353 1.43a93.78 93.78 0 01-.65 2.565 64.71 64.71 0 00-.334 1.263c0 .025.501.037 1.505.037h.65c1.387 0 2.378-.31 2.973-.93.334-.333.588-.822.761-1.466.174-.645.26-1.16.26-1.543zm2.955-1.746c0-.273.08-.49.241-.65h.205c.52.037 1.17.055 1.95.055 1.462 0 2.323-.018 2.583-.055h.186c.074.074.111.13.111.167 0 .037-.012.149-.037.334-.062.186-.117.304-.167.353h-.39a7.334 7.334 0 01-.558.037c-.359.062-.557.155-.594.279 0 .025.179 1.579.539 4.664.359 3.084.545 4.638.557 4.663l1.356-2.174a632.577 632.577 0 004.106-6.67.545.545 0 00.075-.278c0-.298-.273-.471-.818-.521-.223 0-.334-.068-.334-.204 0-.012.012-.093.037-.242.037-.173.074-.284.112-.334.037-.05.117-.074.241-.074h.223c.124 0 .334.006.632.018.297.013.693.019 1.189.019.854 0 1.393-.013 1.616-.037h.13c.087.086.13.155.13.204 0 .21-.055.409-.167.595-.037.037-.142.055-.316.055l-.446.037a1.425 1.425 0 00-.39.093c-.124.05-.223.093-.297.13a1.204 1.204 0 00-.223.149 1.02 1.02 0 01-.186.13.409.409 0 00-.148.167c-.05.087-.093.13-.131.13l-3.585 5.76c-2.23 3.605-3.382 5.45-3.456 5.537a3.047 3.047 0 00-.13.093l-.335.018h-.13c-.223 0-.334-.043-.334-.13-.037-.074-.279-2.056-.725-5.945-.471-3.94-.712-5.927-.724-5.964-.062-.137-.446-.205-1.152-.205h-.316c-.087-.062-.13-.13-.13-.204zm15.068 7.395c0-.855.062-1.666.186-2.434.124-.768.266-1.431.427-1.988.161-.558.39-1.103.688-1.635.297-.533.532-.948.706-1.245.173-.297.433-.62.78-.966.347-.347.551-.558.613-.632.062-.074.217-.204.465-.39h.315c.174 0 .261.056.261.167 0 .037-.106.167-.316.39a8.327 8.327 0 00-.762.985c-.297.433-.601.966-.91 1.598-.31.632-.57 1.486-.781 2.564-.21 1.077-.316 2.273-.316 3.586 0 1.313.106 2.502.316 3.567.211 1.065.465 1.926.762 2.583.297.656.601 1.189.91 1.597.31.409.57.737.781.985.21.248.316.378.316.39 0 .112-.093.168-.279.168h-.297l-.521-.446c-1.164-1.053-2.012-2.366-2.545-3.94a15.18 15.18 0 01-.799-4.904zm5.951 3.491h.557c.484 0 .775-.087.874-.26v-1.152c0-.211.006-.452.018-.725a7.8 7.8 0 000-.78v-1.226c0-.434-.006-.799-.018-1.097v-.427c-.037-.235-.124-.39-.26-.464-.137-.075-.415-.13-.837-.168h-.334v-.427c0-.285.012-.427.037-.427l.186-.019c.124-.012.297-.025.52-.037l.688-.037c.21-.013.433-.025.669-.037.235-.013.414-.031.538-.056.124-.025.192-.031.205-.019h.055v.744c0 .47.007.706.019.706s.043-.031.093-.093l.223-.279c.099-.124.217-.235.353-.334.136-.1.316-.217.539-.353.223-.137.458-.236.706-.298.248-.062.563-.093.947-.093 1.412.05 2.199.75 2.36 2.1.012.087.019.947.019 2.582v1.598c0 .471.012.75.037.836.024.087.093.149.204.186.26.037.564.056.91.056h.298v.855h-.149l-.446-.019a22.072 22.072 0 00-.929-.019c-.334 0-.57-.006-.706-.018-1.276 0-1.969.018-2.081.056h-.148v-.855h.297c.755 0 1.133-.099 1.133-.297.013-.025.019-.88.019-2.564-.013-1.672-.025-2.558-.037-2.657-.075-.347-.198-.607-.372-.781-.173-.173-.322-.278-.446-.315a1.4 1.4 0 00-.483-.038c-.557 0-1.047.211-1.468.632-.334.335-.545.675-.631 1.022-.087.347-.137.861-.149 1.542v2.304c0 .372.006.619.019.743a.628.628 0 00.055.242c.025.037.081.074.167.111.261.037.564.056.911.056h.297v.855h-.148l-.428-.019a23.457 23.457 0 00-.947-.019 9.31 9.31 0 01-.706-.018c-1.276 0-1.97.018-2.081.056h-.149v-.855zm10.399-2.897c0-.681.124-1.3.371-1.858.248-.557.558-1.01.929-1.356a3.876 3.876 0 011.208-.78 3.607 3.607 0 011.226-.28c.657 0 1.22.112 1.691.335.471.223.83.533 1.078.929.247.397.421.793.52 1.189.099.397.155.837.167 1.32 0 .086-.043.173-.13.26h-5.239v.278c0 1.834.619 2.948 1.858 3.345.247.074.52.11.817.11.52 0 .966-.197 1.338-.593.21-.211.378-.471.501-.781l.186-.446c.037-.037.137-.055.298-.055h.055c.211 0 .316.062.316.185 0 .05-.018.13-.056.242-.235.68-.625 1.22-1.17 1.616a3.047 3.047 0 01-1.84.595c-1.176 0-2.155-.427-2.935-1.282-.78-.855-1.177-1.846-1.189-2.973zm5.667-1.06c-.137-1.584-.725-2.427-1.765-2.526h-.038c-.099 0-.198.007-.297.019a2.038 2.038 0 00-.464.149 1.384 1.384 0 00-.539.39c-.149.173-.291.427-.428.762a4.95 4.95 0 00-.297 1.226v.13h3.828v-.15zm8.193-2.488c.545-.545 1.165-.818 1.858-.818.372 0 .638.118.799.353.161.235.242.47.242.706a.72.72 0 01-.167.465c-.112.136-.279.204-.502.204-.409 0-.638-.186-.688-.557-.024-.174-.006-.304.056-.391 0-.012.006-.031.019-.055v-.02a1.95 1.95 0 00-.985.41c-.099.062-.149.105-.149.13 0 .012.025.043.075.093.049.049.105.124.167.223.062.099.13.21.204.334.075.124.13.285.167.483.038.198.062.403.075.613 0 .768-.304 1.419-.911 1.95-.607.534-1.356.806-2.248.819-.619 0-1.232-.174-1.839-.521a1.338 1.338 0 00-.205.707c0 .433.162.755.484.966a.574.574 0 00.315.11c.099 0 .545.014 1.338.038 1.041.013 1.709.05 2.007.112.755.11 1.35.365 1.783.762.483.483.725 1.09.725 1.82 0 .83-.483 1.468-1.449 1.914-.743.384-1.623.576-2.639.576-1.028 0-1.913-.192-2.656-.576-.967-.433-1.45-1.053-1.45-1.858 0-.446.13-.817.391-1.115.26-.297.52-.501.78-.613l.204-.111c-.446-.384-.669-.904-.669-1.561 0-.582.18-1.11.539-1.58-.545-.544-.817-1.157-.817-1.84 0-.78.309-1.435.929-1.968.619-.533 1.368-.805 2.248-.818a3.4 3.4 0 011.765.483l.204.13zm-.557 1.226a1.267 1.267 0 00-.483-.818c-.26-.198-.582-.303-.966-.316-.36 0-.669.1-.929.298-.26.198-.421.477-.483.836-.038.21-.056.526-.056.947 0 .545.043.948.13 1.208.087.26.272.477.557.65.211.124.477.186.799.186.273 0 .508-.043.706-.13.198-.087.341-.198.428-.334.086-.137.154-.26.204-.372.05-.111.081-.204.093-.28.037-.197.056-.507.056-.928 0-.421-.019-.737-.056-.947zm1.932 7.766c0-.31-.087-.563-.26-.762-.173-.198-.427-.34-.762-.427a5.72 5.72 0 00-.91-.167 11.287 11.287 0 00-1.003-.037h-.502c-.83 0-1.325.037-1.486.11-.248.113-.44.286-.576.52a1.608 1.608 0 00-.223.745c0 .123.037.266.111.427.074.16.204.347.39.557.186.21.483.384.892.52.409.137.904.21 1.486.223.855 0 1.543-.173 2.063-.52.52-.347.78-.743.78-1.19zm4.348-7.06c1.697-3.778 1.561-3.778-.409 0-1.969 3.778-2.198 3.685-.687-.28 1.511-3.963 1.418-4.204-.279-.723 0-.434.211-.818.632-1.152.421-.335 1.17-.502 2.248-.502.904 0 1.635.198 2.192.594.558.397.929.868 1.115 1.413.062.173.093.365.093.575 0 .21.006.923.019 2.137v1.3c0 .595.031 1.004.093 1.227.061.223.191.334.39.334.185 0 .309-.1.371-.297.062-.198.093-.526.093-.985v-.668h.743v.724c-.012.496-.031.787-.055.873a1.546 1.546 0 01-.651.874c-.322.21-.662.322-1.022.334-.359.012-.65-.1-.873-.334a1.792 1.792 0 01-.446-.781v-.074l-.037.056a.76.76 0 01-.093.11 2.785 2.785 0 00-.148.168 1.19 1.19 0 01-.223.205c-.087.062-.18.136-.279.223a1.158 1.158 0 01-.335.204c-.123.05-.26.099-.408.149a2.85 2.85 0 01-.483.11 6.787 6.787 0 01-.576.057 3.621 3.621 0 01-2.007-.576c-.594-.384-.892-.923-.892-1.616 0-.261.044-.508.13-.744.087-.235.254-.49.502-.761.248-.273.545-.502.892-.688.347-.186.83-.36 1.449-.52a9.377 9.377 0 012.044-.28h.26v-.407c0-.422-.037-.731-.112-.93-.272-.88-.873-1.32-1.802-1.32-.223 0-.433.008-.632.02a1.892 1.892 0 00-.464.074c-.111.037-.161.056-.149.056.273.186.409.458.409.818 0 .309-.099.55-.297.724l-.316.279zm-.204 3.697c0 .384.148.725.446 1.022a1.56 1.56 0 001.096.465c.47 0 .885-.143 1.245-.428.359-.285.6-.656.724-1.115.025-.086.044-.495.056-1.226 0-.718-.006-1.077-.019-1.077-.099 0-.229.006-.39.018-.161.013-.44.068-.836.167a6.077 6.077 0 00-1.078.372 2.363 2.363 0 00-.854.687c-.248.31-.378.682-.39 1.115zm7.468-5.871c.657-.05 1.165-.396 1.524-1.04.359-.645.557-1.4.594-2.267v-.28h.743v3.42h2.509v.854h-2.509v2.676c.013 1.548.019 2.42.019 2.62 0 .198.043.396.13.594.174.483.477.725.911.725.545 0 .879-.44 1.003-1.32.012-.098.018-.383.018-.854v-.65h.744v.873c0 .954-.261 1.678-.781 2.174-.334.334-.768.5-1.3.5-.421 0-.787-.073-1.097-.222a1.737 1.737 0 01-.706-.576 3.142 3.142 0 01-.353-.65 2.079 2.079 0 01-.13-.594c-.012-.087-.018-1.004-.018-2.75v-2.546h-1.468v-.687h.167zm8.009-3.474c0-.347.111-.62.334-.818.223-.198.495-.297.817-.297.285.025.533.13.744.316.21.185.316.452.316.799 0 .37-.106.65-.316.836a1.142 1.142 0 01-.781.278c-.309 0-.569-.093-.78-.278-.211-.186-.322-.465-.334-.836zm3.307 11.315c-.186-.038-.83-.056-1.933-.056h-.687c-.322 0-.632.012-.929.037l-.409.019h-.148v-.855h.297c.347 0 .65-.02.91-.056.112-.05.18-.117.205-.204.024-.087.037-.347.037-.781v-3.548c0-.644-.013-1.053-.037-1.226-.025-.174-.112-.292-.26-.354-.174-.086-.465-.13-.874-.13h-.204v-.427c0-.285.012-.427.037-.427l.186-.02c.124-.011.297-.024.52-.036l.669-.037c.211-.013.434-.025.669-.037.235-.013.415-.031.539-.056.124-.025.192-.031.204-.02h.056v7.062c.062.124.136.198.223.223.086.024.303.049.65.074h.427v.855h-.148zm6.874-8.008c.075.025.595.037 1.561.037.706 0 1.208-.012 1.505-.037h.093v.854h-.204c-.719.05-1.177.298-1.375.744-.025.049-.44 1.12-1.245 3.214-.805 2.093-1.226 3.17-1.263 3.233-.062.11-.217.167-.465.167-.235 0-.384-.056-.446-.167-1.734-4.472-2.607-6.738-2.62-6.8-.062-.174-.161-.28-.297-.316-.136-.037-.378-.062-.725-.075h-.445v-.854h.111l.149.018h.854c.174 0 .329.007.465.019s.248.019.334.019c1.177 0 1.858-.02 2.044-.056h.149v.854h-.26c-.484.013-.744.106-.781.279 0 .05.316.892.948 2.527l.947 2.452 1.691-4.44v-.15a.548.548 0 00-.186-.426.821.821 0 00-.334-.204 1.086 1.086 0 00-.26-.038h-.075v-.854h.13zm4.051 3.957c0-.681.124-1.3.371-1.858.248-.557.558-1.01.929-1.356a3.876 3.876 0 011.208-.78 3.607 3.607 0 011.226-.28c.657 0 1.22.112 1.691.335.471.223.83.533 1.078.929.247.397.421.793.52 1.189.099.397.155.837.167 1.32 0 .086-.043.173-.13.26h-5.239v.278c0 1.834.619 2.948 1.858 3.345.247.074.52.11.817.11.52 0 .966-.197 1.338-.593.21-.211.378-.471.501-.781l.186-.446c.037-.037.137-.055.298-.055h.055c.211 0 .316.062.316.185 0 .05-.018.13-.056.242-.235.68-.625 1.22-1.17 1.616a3.047 3.047 0 01-1.84.595c-1.176 0-2.155-.427-2.935-1.282-.78-.855-1.177-1.846-1.189-2.973zm5.667-1.06c-.137-1.584-.725-2.427-1.765-2.526h-.038c-.099 0-.198.007-.297.019a2.038 2.038 0 00-.464.149 1.384 1.384 0 00-.539.39c-.149.173-.291.427-.428.762a4.95 4.95 0 00-.297 1.226v.13h3.828v-.15zm13.6-.556c4.583-3.778 4.453-3.778-.39 0s-5.066 3.685-.669-.28c4.397-3.963 4.298-4.198-.297-.705a.96.96 0 01.278-.706c.062-.062.093-.1.093-.111 0-.013-.062-.025-.185-.038a6.086 6.086 0 00-.911-.074c-.607 0-1.102.198-1.486.595-.582.582-.874 1.554-.874 2.917 0 1.015.192 1.814.576 2.396.508.756 1.19 1.134 2.044 1.134.508 0 .917-.161 1.226-.483a2.82 2.82 0 00.669-1.152c.025-.1.056-.161.093-.186.037-.025.137-.037.298-.037h.26c.074.074.111.13.111.167 0 .05-.025.149-.074.297-.05.149-.149.353-.297.613a3.326 3.326 0 01-.539.706c-.211.21-.508.403-.892.576a2.887 2.887 0 01-1.282.242c-1.065 0-1.994-.396-2.787-1.19-.793-.792-1.195-1.79-1.208-2.99 0-1.29.403-2.335 1.208-3.14.805-.806 1.74-1.208 2.805-1.208 1.066 0 1.809.167 2.23.502.421.334.632.73.632 1.189a.847.847 0 01-.316.687l-.316.279z" fill="#fff" fill-rule="nonzero" stroke="#000" stroke-width=".02"/><path d="M252.999 56.256c1.697-3.778 1.561-3.778-.409 0-1.969 3.778-2.198 3.685-.687-.28 1.511-3.963 1.418-4.204-.279-.723 0-.434.211-.818.632-1.152.421-.335 1.17-.502 2.248-.502.904 0 1.635.198 2.192.594.558.397.929.868 1.115 1.413.062.173.093.365.093.575 0 .21.006.923.019 2.137v1.3c0 .595.031 1.004.093 1.227.061.223.191.334.39.334.185 0 .309-.1.371-.297.062-.198.093-.526.093-.985v-.668h.743v.724c-.012.496-.031.787-.055.873a1.546 1.546 0 01-.651.874c-.322.21-.662.322-1.022.334-.359.012-.65-.1-.873-.334a1.792 1.792 0 01-.446-.781v-.074l-.037.056a.76.76 0 01-.093.11 2.785 2.785 0 00-.148.168 1.19 1.19 0 01-.223.205c-.087.062-.18.136-.279.223a1.158 1.158 0 01-.335.204c-.123.05-.26.099-.408.149a2.85 2.85 0 01-.483.11 6.787 6.787 0 01-.576.057 3.621 3.621 0 01-2.007-.576c-.594-.384-.892-.923-.892-1.616 0-.261.044-.508.13-.744.087-.235.254-.49.502-.761.248-.273.545-.502.892-.688.347-.186.83-.36 1.449-.52a9.377 9.377 0 012.044-.28h.26v-.407c0-.422-.037-.731-.112-.93-.272-.88-.873-1.32-1.802-1.32-.223 0-.433.008-.632.02a1.892 1.892 0 00-.464.074c-.111.037-.161.056-.149.056.273.186.409.458.409.818 0 .309-.099.55-.297.724l-.316.279zm-.204 3.697c0 .384.148.725.446 1.022a1.56 1.56 0 001.096.465c.47 0 .885-.143 1.245-.428.359-.285.6-.656.724-1.115.025-.086.044-.495.056-1.226 0-.718-.006-1.077-.019-1.077-.099 0-.229.006-.39.018-.161.013-.44.068-.836.167a6.077 6.077 0 00-1.078.372 2.363 2.363 0 00-.854.687c-.248.31-.378.682-.39 1.115zm12.448-3.903a1.82 1.82 0 00-.502-1.281c-.335-.36-.818-.538-1.449-.538-.446 0-.83.08-1.152.24-.372.236-.558.559-.558.967a.807.807 0 000 .242c.013.099.112.248.298.446.185.198.452.353.799.464.223.062.495.118.817.167.322.05.595.106.818.168.223.062.421.142.594.24.211.1.415.224.613.373.198.148.397.402.595.762.198.359.303.743.316 1.152 0 .767-.236 1.399-.706 1.895-.471.495-1.233.749-2.286.76h-.148c-.644 0-1.239-.222-1.784-.667l-.149.13-.167.167a3.196 3.196 0 01-.223.204l-.204.186h-.223c-.037 0-.093-.037-.167-.111V59.47c0-.26.012-.415.037-.464.025-.05.087-.081.186-.093h.167c.148 0 .248.024.297.074.05.05.081.124.093.223.012.099.056.266.13.502.074.235.192.495.353.78.434.632 1.034.948 1.802.948 1.202 0 1.803-.484 1.803-1.45 0-.36-.112-.65-.335-.873-.248-.297-.762-.52-1.542-.67-.78-.147-1.294-.29-1.542-.426a2.703 2.703 0 01-1.059-.855 1.928 1.928 0 01-.39-1.152c0-.483.105-.892.316-1.226a1.99 1.99 0 01.798-.743 3.864 3.864 0 011.747-.428h.204c.496 0 .929.093 1.301.279l.279.149.167-.13c.124-.112.26-.217.409-.316h.223c.037 0 .092.037.167.11v2.454l-.112.11h-.52c-.074-.073-.111-.147-.111-.222zm2.304 5.018h.557c.484 0 .775-.087.874-.26V58.82c0-.297.006-.607.018-.93a13.36 13.36 0 000-1.021 15.58 15.58 0 010-1.06v-2.842c0-.421-.006-.793-.018-1.115a8.492 8.492 0 010-.817c.012-.223.012-.328 0-.316-.037-.235-.124-.39-.26-.464-.137-.075-.415-.131-.837-.168h-.334v-.427c0-.285.012-.427.037-.427l.186-.02c.124-.011.303-.024.539-.036l.687-.037c.211-.013.44-.025.688-.037a4.2 4.2 0 00.557-.056c.124-.025.192-.031.204-.02h.056v6.077c.743-.93 1.635-1.394 2.676-1.394 1.523 0 2.359.7 2.508 2.1.012.087.019.947.019 2.582v1.598c0 .47.012.75.037.836.024.087.093.149.204.186.26.037.564.056.91.056h.298v.855h-.149l-.446-.02a22.072 22.072 0 00-.929-.018c-.334 0-.57-.006-.706-.018-1.276 0-1.969.018-2.081.056h-.148v-.855h.297c.755 0 1.133-.1 1.133-.297.013-.025.019-.88.019-2.564-.013-1.672-.025-2.558-.037-2.657-.075-.347-.198-.607-.372-.781-.173-.173-.322-.278-.446-.315a1.4 1.4 0 00-.483-.038c-.557 0-1.047.21-1.468.632-.334.335-.545.675-.631 1.022-.087.347-.137.86-.149 1.542v2.304c0 .372.006.619.019.743a.628.628 0 00.055.242c.025.037.081.074.167.11.261.038.564.057.911.057h.297v.855h-.148l-.428-.02a23.457 23.457 0 00-.947-.018 9.31 9.31 0 01-.706-.018c-1.276 0-1.97.018-2.081.056h-.149v-.855zm19.602.855c-.223-.038-1.01-.056-2.36-.056-1.276 0-1.969.018-2.081.056h-.148v-.855h.297c.347 0 .65-.02.91-.056a.398.398 0 00.223-.204c.013-.025.019-1.041.019-3.047v-2.992h-1.319v-.854h1.319v-1.226l.018-1.245.038-.186c.235-.805.631-1.387 1.189-1.747a4.343 4.343 0 011.765-.67h.167c.099 0 .186-.005.26-.017.508.037.892.198 1.152.483.26.285.39.607.39.966 0 .285-.086.514-.26.688-.173.173-.402.26-.687.26-.285 0-.514-.087-.688-.26-.173-.174-.26-.403-.26-.688 0-.248.112-.495.335-.743h-.075a.891.891 0 00-.204-.02c-.347 0-.657.13-.929.392-.273.26-.483.6-.632 1.02-.074.249-.118.838-.13 1.767v1.226h2.062v.854h-2.006v2.973c0 2.007.006 3.022.018 3.047.013.025.031.05.056.075a.24.24 0 00.093.055.241.241 0 01.093.056c.025.025.068.037.13.037s.105.006.13.019a.477.477 0 00.167.018h.167a2.4 2.4 0 01.186.019c.099.012.161.012.186 0h.576v.855h-.167z" fill="#fff" fill-rule="nonzero" stroke="#000" stroke-width=".02"/><path d="M288.245 61.068h.557c.483 0 .774-.087.873-.26v-1.19c0-.235.006-.501.019-.798.012-.297.012-.607 0-.93a13.386 13.386 0 010-1.021 15.58 15.58 0 000-1.06v-3.957c0-.322-.006-.594-.019-.817-.012-.223-.012-.328 0-.316-.037-.235-.124-.39-.26-.464-.136-.075-.415-.131-.836-.168h-.334v-.427c0-.285.012-.427.037-.427l.186-.02c.123-.011.303-.024.538-.036l.688-.037c.21-.013.44-.025.687-.037a4.2 4.2 0 00.558-.056c.124-.025.192-.031.204-.02h.056v5.854c0 3.926.006 5.902.018 5.927.05.099.124.167.223.204.26.037.564.056.911.056h.297v.855h-.149l-.427-.02a21.608 21.608 0 00-.91-.018c-.322 0-.558-.006-.706-.018a6.694 6.694 0 00-.706 0l-.929.037-.428.019h-.148v-.855zm5.221-3.121c0-1.177.402-2.193 1.207-3.048.806-.854 1.778-1.288 2.917-1.3 1.115 0 2.075.42 2.88 1.263.805.843 1.214 1.864 1.227 3.066 0 1.177-.397 2.168-1.189 2.973-.793.805-1.766 1.207-2.918 1.207-1.201 0-2.186-.415-2.954-1.244-.768-.83-1.158-1.803-1.17-2.917zm4.124 3.418c1.512 0 2.267-1.01 2.267-3.028v-1.06c0-.272-.006-.507-.018-.705a3.654 3.654 0 00-.13-.706 2.097 2.097 0 00-.298-.67c-.124-.173-.316-.346-.576-.52a2.588 2.588 0 00-.91-.371 2.586 2.586 0 00-1.356.204c-.533.273-.88.65-1.041 1.134-.161.483-.241 1.053-.241 1.709v.372c0 1.189.117 2.025.353 2.508.396.755 1.046 1.133 1.95 1.133zm6.318-6.28c-.075-.124-.161-.198-.26-.223a6.936 6.936 0 00-.669-.093h-.409v-.854h.111l.353.018c.236 0 .49.007.762.019.273.012.471.019.595.019 1.115 0 1.765-.02 1.951-.056h.148v.854h-.26c-.47.025-.706.13-.706.316 0 .013.273.812.818 2.397l.817 2.34 1.375-3.994-.111-.315c-.124-.36-.23-.57-.316-.632-.099-.062-.335-.1-.706-.112h-.372v-.854h.112c.074.037.594.056 1.56.056 1.127 0 1.784-.02 1.97-.056h.13v.854h-.167c-.595 0-.892.1-.892.298 0 .037.086.316.26.836.173.52.365 1.077.576 1.672.21.595.409 1.158.594 1.69l.279.8.762-2.211c.52-1.511.78-2.304.78-2.38 0-.197-.093-.358-.278-.482a1.397 1.397 0 00-.632-.223h-.149v-.854h.13c.149.037.737.056 1.765.056.843 0 1.301-.02 1.375-.056h.093v.854h-.223a.704.704 0 00-.167.019c-.582.087-.972.396-1.171.929l-1.114 3.214a186.52 186.52 0 00-.576 1.672c-.248.73-.403 1.165-.465 1.3-.062.137-.161.212-.297.224h-.149c-.235 0-.378-.043-.427-.13-.012-.012-.316-.861-.91-2.545l-.855-2.49c-.025.049-.613 1.728-1.765 5.035-.062.087-.205.13-.428.13h-.092c-.161 0-.273-.05-.335-.15l-2.415-6.892zm17.242.965a1.82 1.82 0 00-.502-1.281c-.335-.36-.818-.538-1.449-.538-.446 0-.83.08-1.152.24-.372.236-.558.559-.558.967a.807.807 0 000 .242c.013.099.112.248.298.446.185.198.452.353.799.464.223.062.495.118.817.167.322.05.595.106.818.168.223.062.421.142.594.24.211.1.415.224.613.373.198.148.397.402.595.762.198.359.303.743.316 1.152 0 .767-.236 1.399-.706 1.895-.471.495-1.233.749-2.286.76h-.148c-.644 0-1.239-.222-1.784-.667l-.149.13-.167.167a3.196 3.196 0 01-.223.204l-.204.186h-.223c-.037 0-.093-.037-.167-.111V59.47c0-.26.012-.415.037-.464.025-.05.087-.081.186-.093h.167c.148 0 .248.024.297.074.05.05.081.124.093.223.012.099.056.266.13.502.074.235.192.495.353.78.434.632 1.034.948 1.802.948 1.202 0 1.803-.484 1.803-1.45 0-.36-.112-.65-.335-.873-.248-.297-.762-.52-1.542-.67-.78-.147-1.294-.29-1.542-.426a2.703 2.703 0 01-1.059-.855 1.928 1.928 0 01-.39-1.152c0-.483.105-.892.316-1.226a1.99 1.99 0 01.798-.743 3.864 3.864 0 011.747-.428h.204c.496 0 .929.093 1.301.279l.279.149.167-.13c.124-.112.26-.217.409-.316h.223c.037 0 .092.037.167.11v2.454l-.112.11h-.52c-.074-.073-.111-.147-.111-.222zm3.288 5.222c.966-.433.966-.588 0-.464-.966.124-.867-.143.297-.8 1.164-.656 1.431-.767.799-.334.347 0 .656.155.929.465.272.31.415.855.427 1.635 0 .434-.055.855-.167 1.263a5.701 5.701 0 01-.39 1.059c-.149.298-.31.552-.483.762a7.281 7.281 0 01-.446.502c-.124.124-.204.179-.242.167-.049 0-.13-.056-.241-.167-.112-.112-.167-.192-.167-.242 0-.05.068-.148.204-.297.136-.15.291-.334.464-.557.174-.223.335-.533.484-.93.148-.396.247-.848.297-1.356v-.223l-.019.019a.69.69 0 01-.093.037.482.482 0 00-.111.056.302.302 0 01-.167.037c-.075 0-.149.006-.223.019-.335 0-.607-.106-.818-.316l-.334-.335zm13.452.651c-.223-.038-1.01-.056-2.36-.056-1.276 0-1.969.018-2.081.056h-.148v-.855h.297c.347 0 .65-.02.91-.056a.398.398 0 00.223-.204c.013-.025.019-1.041.019-3.047v-2.992h-1.319v-.854h1.319v-1.226l.018-1.245.038-.186c.235-.805.631-1.387 1.189-1.747a4.343 4.343 0 011.765-.67h.167c.099 0 .186-.005.26-.017.508.037.892.198 1.152.483.26.285.39.607.39.966 0 .285-.086.514-.26.688-.173.173-.402.26-.687.26-.285 0-.514-.087-.688-.26-.173-.174-.26-.403-.26-.688 0-.248.112-.495.335-.743h-.075a.891.891 0 00-.204-.02c-.347 0-.657.13-.929.392-.273.26-.483.6-.632 1.02-.074.249-.118.838-.13 1.767v1.226h2.062v.854h-2.006v2.973c0 2.007.006 3.022.018 3.047.013.025.031.05.056.075a.24.24 0 00.093.055.241.241 0 01.093.056c.025.025.068.037.13.037s.105.006.13.019a.477.477 0 00.167.018h.167a2.4 2.4 0 01.186.019c.099.012.161.012.186 0h.576v.855h-.167z" fill="#fff" fill-rule="nonzero" stroke="#000" stroke-width=".02"/><path d="M339.785 50.608c0-.347.111-.62.334-.818.223-.198.495-.297.817-.297.285.025.533.13.744.316.21.185.316.452.316.799 0 .37-.106.65-.316.836a1.142 1.142 0 01-.781.278c-.309 0-.569-.093-.78-.278-.211-.186-.322-.465-.334-.836zm3.307 11.315c-.186-.038-.83-.056-1.933-.056h-.687c-.322 0-.632.012-.929.037l-.409.019h-.148v-.855h.297c.347 0 .65-.02.91-.056.112-.05.18-.117.205-.204.024-.087.037-.347.037-.781v-3.548c0-.644-.013-1.053-.037-1.226-.025-.174-.112-.292-.26-.354-.174-.086-.465-.13-.874-.13h-.204v-.427c0-.285.012-.427.037-.427l.186-.02c.124-.011.297-.024.52-.036l.669-.037c.211-.013.434-.025.669-.037.235-.013.415-.031.539-.056.124-.025.192-.031.204-.02h.056v7.062c.062.124.136.198.223.223.086.024.303.049.65.074h.427v.855h-.148zm1.059-.855h.557c.484 0 .775-.087.874-.26v-1.152c0-.211.006-.452.018-.725a7.8 7.8 0 000-.78v-1.226c0-.434-.006-.8-.018-1.097V55.4c-.037-.235-.124-.39-.26-.464-.137-.075-.415-.13-.837-.168h-.334v-.427c0-.285.012-.427.037-.427l.186-.02c.124-.011.297-.024.52-.036l.688-.037c.21-.013.433-.025.669-.037.235-.013.414-.031.538-.056.124-.025.192-.031.205-.02h.055v.745c0 .47.007.706.019.706s.043-.031.093-.093l.223-.28a1.84 1.84 0 01.353-.333c.136-.1.316-.217.539-.353.223-.137.458-.236.706-.298.248-.062.563-.093.947-.093 1.412.05 2.199.75 2.36 2.1.012.087.019.947.019 2.582v1.598c0 .47.012.75.037.836.024.087.093.149.204.186.26.037.564.056.91.056h.298v.855h-.149l-.446-.02a22.072 22.072 0 00-.929-.018c-.334 0-.57-.006-.706-.018-1.276 0-1.969.018-2.081.056h-.148v-.855h.297c.755 0 1.133-.1 1.133-.297.013-.025.019-.88.019-2.564-.013-1.672-.025-2.558-.037-2.657-.075-.347-.198-.607-.372-.781-.173-.173-.322-.278-.446-.315a1.4 1.4 0 00-.483-.038c-.557 0-1.047.21-1.468.632-.334.335-.545.675-.631 1.022-.087.347-.137.86-.149 1.542v2.304c0 .372.006.619.019.743a.628.628 0 00.055.242c.025.037.081.074.167.11.261.038.564.057.911.057h.297v.855h-.148l-.428-.02a23.457 23.457 0 00-.947-.018 9.31 9.31 0 01-.706-.018c-1.276 0-1.97.018-2.081.056h-.149v-.855zm12.411-4.812c1.697-3.778 1.561-3.778-.409 0-1.969 3.778-2.198 3.685-.687-.28 1.511-3.963 1.418-4.204-.279-.723 0-.434.211-.818.632-1.152.421-.335 1.17-.502 2.248-.502.904 0 1.635.198 2.192.594.558.397.929.868 1.115 1.413.062.173.093.365.093.575 0 .21.006.923.019 2.137v1.3c0 .595.031 1.004.093 1.227.061.223.191.334.39.334.185 0 .309-.1.371-.297.062-.198.093-.526.093-.985v-.668h.743v.724c-.012.496-.031.787-.055.873a1.546 1.546 0 01-.651.874c-.322.21-.662.322-1.022.334-.359.012-.65-.1-.873-.334a1.792 1.792 0 01-.446-.781v-.074l-.037.056a.76.76 0 01-.093.11 2.785 2.785 0 00-.148.168 1.19 1.19 0 01-.223.205c-.087.062-.18.136-.279.223a1.158 1.158 0 01-.335.204c-.123.05-.26.099-.408.149a2.85 2.85 0 01-.483.11 6.787 6.787 0 01-.576.057 3.621 3.621 0 01-2.007-.576c-.594-.384-.892-.923-.892-1.616 0-.261.044-.508.13-.744.087-.235.254-.49.502-.761.248-.273.545-.502.892-.688.347-.186.83-.36 1.449-.52a9.377 9.377 0 012.044-.28h.26v-.407c0-.422-.037-.731-.112-.93-.272-.88-.873-1.32-1.802-1.32-.223 0-.433.008-.632.02a1.892 1.892 0 00-.464.074c-.111.037-.161.056-.149.056.273.186.409.458.409.818 0 .309-.099.55-.297.724l-.316.279zm-.204 3.697c0 .384.148.725.446 1.022a1.56 1.56 0 001.096.465c.47 0 .885-.143 1.245-.428.359-.285.6-.656.724-1.115.025-.086.044-.495.056-1.226 0-.718-.006-1.077-.019-1.077-.099 0-.229.006-.39.018-.161.013-.44.068-.836.167a6.077 6.077 0 00-1.078.372 2.363 2.363 0 00-.854.687c-.248.31-.378.682-.39 1.115zm7.432 1.115h.557c.484 0 .775-.087.874-.26v-1.152c0-.211.006-.452.018-.725a7.8 7.8 0 000-.78v-1.226c0-.434-.006-.8-.018-1.097V55.4c-.037-.235-.124-.39-.26-.464-.137-.075-.415-.13-.837-.168h-.334v-.427c0-.285.012-.427.037-.427l.186-.02c.124-.011.297-.024.52-.036l.688-.037c.21-.013.433-.025.669-.037.235-.013.414-.031.538-.056.124-.025.192-.031.205-.02h.055v.745c0 .47.007.706.019.706s.043-.031.093-.093l.223-.28a1.84 1.84 0 01.353-.333c.136-.1.316-.217.539-.353.223-.137.458-.236.706-.298.248-.062.563-.093.947-.093 1.412.05 2.199.75 2.36 2.1.012.087.019.947.019 2.582v1.598c0 .47.012.75.037.836.024.087.093.149.204.186.26.037.564.056.91.056h.298v.855h-.149l-.446-.02a22.072 22.072 0 00-.929-.018c-.334 0-.57-.006-.706-.018-1.276 0-1.969.018-2.081.056h-.148v-.855h.297c.755 0 1.133-.1 1.133-.297.013-.025.019-.88.019-2.564-.013-1.672-.025-2.558-.037-2.657-.075-.347-.198-.607-.372-.781-.173-.173-.322-.278-.446-.315a1.4 1.4 0 00-.483-.038c-.557 0-1.047.21-1.468.632-.334.335-.545.675-.631 1.022-.087.347-.137.86-.149 1.542v2.304c0 .372.006.619.019.743a.628.628 0 00.055.242c.025.037.081.074.167.11.261.038.564.057.911.057h.297v.855h-.148l-.428-.02a23.457 23.457 0 00-.947-.018 9.31 9.31 0 01-.706-.018c-1.276 0-1.97.018-2.081.056h-.149v-.855zm16.74-4.812c4.583-3.778 4.453-3.778-.39 0s-5.066 3.685-.669-.28c4.397-3.963 4.298-4.198-.297-.705a.96.96 0 01.278-.706c.062-.062.093-.1.093-.111 0-.013-.062-.025-.185-.038a6.086 6.086 0 00-.911-.074c-.607 0-1.102.198-1.486.595-.582.582-.874 1.554-.874 2.917 0 1.015.192 1.814.576 2.396.508.756 1.19 1.134 2.044 1.134.508 0 .917-.161 1.226-.483a2.82 2.82 0 00.669-1.152c.025-.1.056-.161.093-.186.037-.025.137-.037.298-.037h.26c.074.074.111.13.111.167 0 .05-.025.149-.074.297-.05.149-.149.353-.297.613a3.326 3.326 0 01-.539.706c-.211.21-.508.403-.892.576a2.887 2.887 0 01-1.282.242c-1.065 0-1.994-.396-2.787-1.19-.793-.792-1.195-1.79-1.208-2.99 0-1.29.403-2.335 1.208-3.14.805-.806 1.74-1.208 2.805-1.208 1.066 0 1.809.167 2.23.502.421.334.632.73.632 1.189a.847.847 0 01-.316.687l-.316.279z" fill="#fff" fill-rule="nonzero" stroke="#000" stroke-width=".02"/><path d="M382.444 57.872c0-.681.124-1.3.371-1.858.248-.557.558-1.01.929-1.356a3.876 3.876 0 011.208-.78 3.607 3.607 0 011.226-.28c.657 0 1.22.112 1.691.335.471.223.83.533 1.078.929.247.397.421.793.52 1.189.099.397.155.837.167 1.32 0 .086-.043.173-.13.26h-5.239v.278c0 1.834.619 2.948 1.858 3.345.247.074.52.11.817.11.52 0 .966-.197 1.338-.593.21-.211.378-.471.501-.781l.186-.446c.037-.037.137-.055.298-.055h.055c.211 0 .316.062.316.185 0 .05-.018.13-.056.242-.235.68-.625 1.22-1.17 1.616a3.047 3.047 0 01-1.84.595c-1.176 0-2.155-.427-2.935-1.282-.78-.855-1.177-1.846-1.189-2.973zm5.667-1.06c-.137-1.584-.725-2.427-1.765-2.526h-.038c-.099 0-.198.007-.297.019a2.038 2.038 0 00-.464.149 1.384 1.384 0 00-.539.39c-.149.173-.291.427-.428.762a4.95 4.95 0 00-.297 1.226v.13h3.828v-.15zm7.078 4.256h.558c.483 0 .774-.087.873-.26v-.576c0-.174.006-.366.018-.576a6.716 6.716 0 000-.725 8.45 8.45 0 010-.78v-2.323l-.018-.427c-.037-.235-.124-.39-.26-.464-.137-.075-.415-.13-.836-.168h-.335v-.427c0-.285.013-.427.037-.427l.186-.02c.124-.011.297-.024.52-.036l.669-.037c.198-.013.415-.025.65-.037.236-.013.415-.031.539-.056.124-.025.192-.031.205-.02h.055v1.283c.483-.842 1.084-1.263 1.803-1.263h.111c.558 0 .966.136 1.226.409.261.272.391.557.391.854a.987.987 0 01-.242.669c-.161.186-.396.279-.706.279-.31 0-.539-.1-.687-.297a1.143 1.143 0 01-.242-.632c0-.112.012-.211.037-.297a.941.941 0 01.093-.223l.056-.093c-.025-.025-.167 0-.428.074a2.14 2.14 0 00-.445.279c-.583.557-.874 1.666-.874 3.326v1.969c0 .149.007.273.019.372.012.099.012.192 0 .278v.093c.012.025.031.05.056.075a.226.226 0 00.093.055.23.23 0 01.092.056c.025.025.069.037.13.037.062 0 .106.006.131.019a.47.47 0 00.167.018h.167a2.4 2.4 0 01.186.019c.099.012.161.012.186 0h.576v.855h-.168c-.223-.038-1.009-.056-2.359-.056-1.276 0-1.97.018-2.081.056h-.149v-.855zm9.476-4.812c1.697-3.778 1.561-3.778-.409 0-1.969 3.778-2.198 3.685-.687-.28 1.511-3.963 1.418-4.204-.279-.723 0-.434.211-.818.632-1.152.421-.335 1.17-.502 2.248-.502.904 0 1.635.198 2.192.594.558.397.929.868 1.115 1.413.062.173.093.365.093.575 0 .21.006.923.019 2.137v1.3c0 .595.031 1.004.093 1.227.061.223.191.334.39.334.185 0 .309-.1.371-.297.062-.198.093-.526.093-.985v-.668h.743v.724c-.012.496-.031.787-.055.873a1.546 1.546 0 01-.651.874c-.322.21-.662.322-1.022.334-.359.012-.65-.1-.873-.334a1.792 1.792 0 01-.446-.781v-.074l-.037.056a.76.76 0 01-.093.11 2.785 2.785 0 00-.148.168 1.19 1.19 0 01-.223.205c-.087.062-.18.136-.279.223a1.158 1.158 0 01-.335.204c-.123.05-.26.099-.408.149a2.85 2.85 0 01-.483.11 6.787 6.787 0 01-.576.057 3.621 3.621 0 01-2.007-.576c-.594-.384-.892-.923-.892-1.616 0-.261.044-.508.13-.744.087-.235.254-.49.502-.761.248-.273.545-.502.892-.688.347-.186.83-.36 1.449-.52a9.377 9.377 0 012.044-.28h.26v-.407c0-.422-.037-.731-.112-.93-.272-.88-.873-1.32-1.802-1.32-.223 0-.433.008-.632.02a1.892 1.892 0 00-.464.074c-.111.037-.161.056-.149.056.273.186.409.458.409.818 0 .309-.099.55-.297.724l-.316.279zm-.204 3.697c0 .384.148.725.446 1.022a1.56 1.56 0 001.096.465c.47 0 .885-.143 1.245-.428.359-.285.6-.656.724-1.115.025-.086.044-.495.056-1.226 0-.718-.006-1.077-.019-1.077-.099 0-.229.006-.39.018-.161.013-.44.068-.836.167a6.077 6.077 0 00-1.078.372 2.363 2.363 0 00-.854.687c-.248.31-.378.682-.39 1.115zm7.45-5.871c.657-.05 1.165-.396 1.524-1.04.359-.645.557-1.4.594-2.267v-.28h.743v3.42h2.509v.854h-2.509v2.676c.013 1.548.019 2.42.019 2.62 0 .198.043.396.13.594.174.483.477.725.911.725.545 0 .879-.44 1.003-1.32.012-.098.018-.383.018-.854v-.65h.744v.873c0 .954-.261 1.678-.781 2.174-.334.334-.768.5-1.3.5-.421 0-.787-.073-1.097-.222a1.737 1.737 0 01-.706-.576 3.142 3.142 0 01-.353-.65 2.079 2.079 0 01-.13-.594c-.012-.087-.018-1.004-.018-2.75v-2.546h-1.468v-.687h.167zm7.265 3.79c0-.681.124-1.3.371-1.858.248-.557.558-1.01.929-1.356a3.876 3.876 0 011.208-.78 3.607 3.607 0 011.226-.28c.657 0 1.22.112 1.691.335.471.223.83.533 1.078.929.247.397.421.793.52 1.189.099.397.155.837.167 1.32 0 .086-.043.173-.13.26h-5.239v.278c0 1.834.619 2.948 1.858 3.345.247.074.52.11.817.11.52 0 .966-.197 1.338-.593.21-.211.378-.471.501-.781l.186-.446c.037-.037.137-.055.298-.055h.055c.211 0 .316.062.316.185 0 .05-.018.13-.056.242-.235.68-.625 1.22-1.17 1.616a3.047 3.047 0 01-1.84.595c-1.176 0-2.155-.427-2.935-1.282-.78-.855-1.177-1.846-1.189-2.973zm5.667-1.06c-.137-1.584-.725-2.427-1.765-2.526h-.038c-.099 0-.198.007-.297.019a2.038 2.038 0 00-.464.149 1.384 1.384 0 00-.539.39c-.149.173-.291.427-.428.762a4.95 4.95 0 00-.297 1.226v.13h3.828v-.15zm3.177-8.806l.075-.018h.408l.521.446c1.164 1.053 2.012 2.366 2.545 3.939a15.18 15.18 0 01.799 4.905c0 .842-.062 1.653-.186 2.434-.124.78-.266 1.443-.427 1.988a8.326 8.326 0 01-.688 1.635 31.4 31.4 0 01-.706 1.245c-.173.284-.427.6-.761.947-.335.347-.533.55-.595.613-.062.062-.204.18-.427.353l-.075.075h-.427c-.037 0-.068-.02-.093-.056a.443.443 0 01-.056-.167c.013-.013.081-.093.205-.242 1.92-1.994 2.88-4.936 2.88-8.825 0-3.89-.96-6.831-2.88-8.826a7.734 7.734 0 00-.205-.241c0-.1.031-.167.093-.205zm29.226-11.812c1.041-2.935 1.041-3.016 0-.241-1.04 2.774-.954 2.65.26-.372h10.795c.186.099.279.223.279.372 0 .148-.093.272-.279.37h-10.795c-.173-.085-.26-.21-.26-.37v.24zm20.995-6.335l-.242.092a5.303 5.303 0 01-.743.186 8.409 8.409 0 01-1.077.13h-.353v-.854h.353a6.047 6.047 0 001.616-.28c.496-.16.842-.31 1.041-.445.198-.136.371-.272.52-.41.025-.036.099-.054.223-.054a.52.52 0 01.316.11v5.556l.018 5.574a.72.72 0 00.223.167c.062.025.211.05.446.075.235.025.619.037 1.152.037h.483v.855h-.204c-.26-.038-1.245-.056-2.954-.056-1.685 0-2.657.018-2.917.056h-.223v-.855h1.189c.198 0 .353-.006.464-.02.112-.011.211-.03.297-.054.087-.025.137-.038.149-.038.012 0 .05-.03.112-.092.061-.062.099-.087.111-.075v-9.605z" fill="#fff" fill-rule="nonzero" stroke="#000" stroke-width=".02"/></svg>