<svg viewBox="0 0 206 57" xmlns="http://www.w3.org/2000/svg" fill-rule="evenodd" clip-rule="evenodd"><path d="M-.22 32.736c.397-.025.719-.087.967-.186.247-.099.396-.18.446-.242.049-.062.111-.167.185-.316V21.81h-.074c-.124-.037-.57-.056-1.338-.056h-.501V20.9h3.846l.056.055c.024.013.563.793 1.616 2.341 1.053 1.55 2.112 3.103 3.177 4.664l1.58 2.323V22.48a2.701 2.701 0 00-.186-.279c-.05-.062-.198-.148-.446-.26-.248-.11-.57-.173-.966-.186h-.316V20.9h.149c.185.037.91.055 2.174.055 1.313 0 2.025-.018 2.136-.055h.168v.854h-.316c-.905.05-1.431.291-1.58.725l-.018 5.5v5.5l-.13.111h-.26c-.186 0-.298-.018-.335-.055-.037-.038-.663-.948-1.877-2.732A3418.454 3418.454 0 014.24 25.36c-1.251-1.846-1.939-2.849-2.063-3.01v4.831l.019 4.812c.136.446.663.694 1.579.744h.316v.854h-.167c-.186-.037-.898-.055-2.137-.055-1.263 0-1.988.018-2.174.055h-.148v-.854h.315zm15.572-10.703a.885.885 0 00-.205-.167.93.93 0 00-.297-.056 58.769 58.769 0 00-.8-.056h-.612V20.9h4.626c.483 0 .824-.007 1.022-.019 1.09 0 1.957.08 2.602.241.644.162 1.238.502 1.783 1.022.706.657 1.059 1.444 1.059 2.36 0 .843-.315 1.567-.947 2.174a4.7 4.7 0 01-2.267 1.208c-.273.062-1.034.1-2.285.111h-1.747v2.23c0 1.474.019 2.236.056 2.286.099.136.514.21 1.245.223h.613v.854h-.205c-.26-.037-1.152-.055-2.675-.055-1.673 0-2.564.018-2.676.055h-.204v-.854h.613c.52-.013.836-.03.947-.056.112-.025.23-.099.354-.223V22.033zm7.005 2.49c0-.322-.007-.57-.02-.743a4.573 4.573 0 00-.111-.669c-.061-.273-.167-.477-.315-.614a3.475 3.475 0 00-.614-.427c-.26-.149-.588-.24-.984-.279-.15-.024-.706-.037-1.673-.037h-.39c-.607 0-.93.056-.966.167-.037.05-.056.948-.056 2.695v2.62h2.007c.632 0 1.152-.044 1.56-.13a2.066 2.066 0 001.078-.614c.322-.359.484-1.015.484-1.969zm5.369-2.453l-.13-.13-.074-.056c-.05-.037-.081-.049-.093-.037-.012.013-.056 0-.13-.037a.247.247 0 00-.205-.019c-.061.025-.142.02-.241-.018a.66.66 0 00-.353-.019h-.54V20.9h.168c.223.037.99.055 2.304.055 1.499 0 2.379-.018 2.639-.055h.204v.854h-.39c-.756.037-1.133.143-1.133.316 0 .025.557 1.561 1.672 4.608 1.115 3.047 1.678 4.571 1.69 4.571l1.599-4.31c1.053-2.85 1.579-4.33 1.579-4.442 0-.235-.13-.415-.39-.538a2.176 2.176 0 00-.855-.205h-.093V20.9h.167c.186.037.899.055 2.137.055 1.127 0 1.728-.018 1.803-.055h.11v.854h-.13c-.928 0-1.523.254-1.783.762 0 .012-.693 1.901-2.081 5.667-1.387 3.766-2.093 5.655-2.118 5.667-.062.1-.18.15-.353.15h-.28c-.172 0-.29-.05-.352-.15-.025-.024-.75-1.988-2.174-5.89-1.45-3.889-2.174-5.853-2.174-5.89zm13.564 6.875c0-.855.063-1.666.186-2.434a17.03 17.03 0 01.428-1.988c.16-.558.39-1.103.687-1.635.298-.533.533-.948.706-1.245.174-.298.434-.62.78-.966.348-.347.552-.558.614-.632.062-.075.217-.205.464-.39h.316c.174 0 .26.055.26.167 0 .037-.105.167-.315.39a8.327 8.327 0 00-.762.985c-.298.433-.601.966-.911 1.598-.31.632-.57 1.486-.78 2.564-.211 1.078-.316 2.273-.316 3.586 0 1.313.105 2.502.316 3.568.21 1.065.464 1.926.762 2.582.297.657.6 1.19.91 1.598.31.41.57.737.78.985.21.248.316.378.316.39 0 .112-.092.168-.278.168h-.298l-.52-.446c-1.164-1.053-2.013-2.366-2.545-3.94a15.18 15.18 0 01-.8-4.905zm8.92-6.503c0-.298.117-.558.352-.78a1.23 1.23 0 01.817-.354.76.76 0 01.558.223.823.823 0 01.241.558c0 .285-.123.545-.37.78-.249.235-.52.36-.819.372a.835.835 0 01-.52-.186c-.16-.124-.248-.328-.26-.613zm-3.03 5.816c0-.1.056-.292.167-.576.112-.285.261-.6.446-.948.186-.347.46-.663.818-.948.36-.285.731-.42 1.115-.408.483 0 .885.142 1.208.427.322.285.49.67.501 1.152 0 .21-.086.557-.26 1.04a68.883 68.883 0 01-.743 1.951 50.285 50.285 0 00-.78 2.1 3.106 3.106 0 00-.093.595c0 .31.105.464.315.464.112 0 .23-.018.353-.056.124-.037.267-.123.428-.26.161-.136.328-.353.502-.65.173-.297.328-.663.464-1.096.037-.149.068-.236.093-.26.025-.025.13-.038.316-.038.248 0 .371.062.371.186 0 .1-.055.291-.167.576a7.275 7.275 0 01-.464.948 3.12 3.12 0 01-.836.93c-.36.271-.744.408-1.152.408a1.75 1.75 0 01-1.097-.39c-.334-.26-.508-.657-.52-1.19 0-.21.031-.408.093-.594s.328-.892.8-2.119c.47-1.25.742-2 .816-2.248a3.03 3.03 0 00.13-.724c0-.298-.105-.446-.315-.446h-.038c-.37 0-.712.204-1.02.613-.31.41-.547.93-.708 1.561a.247.247 0 00-.037.055.15.15 0 00-.018.056c0 .012-.013.025-.037.037a.139.139 0 01-.056.02h-.483c-.075-.076-.112-.13-.112-.168zm7.47 4.682c.967-.434.967-.588 0-.465-.966.124-.867-.142.298-.799 1.164-.656 1.43-.768.799-.334.346 0 .656.155.929.465.272.31.415.854.427 1.635a4.8 4.8 0 01-.167 1.263 5.848 5.848 0 01-.39 1.06c-.15.297-.31.55-.484.761a7.306 7.306 0 01-.445.502c-.124.124-.205.18-.242.167-.05 0-.13-.056-.242-.167-.111-.112-.167-.192-.167-.242 0-.049.068-.148.205-.297.136-.149.29-.335.464-.558.174-.222.335-.532.483-.929.149-.396.248-.848.297-1.356v-.223l-.018.02a.946.946 0 01-.093.036.446.446 0 00-.111.056.315.315 0 01-.168.037c-.074 0-.148.006-.223.018-.334 0-.607-.105-.817-.316l-.335-.334zm11.167-11.186h-.149c-.309 0-.495-.006-.557-.018-.062-.013-.093-.08-.093-.205 0-.334.068-.539.204-.613.025-.012.626-.018 1.803-.018h1.635c.136 0 .223.037.26.111 2.614 6.144 3.945 9.297 3.995 9.458l1.003-3.958c.657-2.614.985-4.007.985-4.18 0-.335-.396-.527-1.189-.577-.297 0-.446-.068-.446-.204 0-.025.012-.099.037-.223.05-.198.087-.316.112-.353.024-.037.086-.062.185-.074a96.262 96.262 0 002.119.055 41.066 41.066 0 001.97-.037c.185 0 .278.062.278.186 0 .272-.05.458-.149.557-.025.062-.16.093-.409.093-.879.05-1.43.298-1.653.743L72.99 33.46c-.025.087-.155.13-.39.13-.173 0-.279-.012-.316-.037-.037-.037-.836-1.914-2.397-5.63l-2.36-5.556-1.207 4.831c-.806 3.172-1.208 4.813-1.208 4.924.062.41.508.614 1.338.614h.185c.075.061.112.111.112.148 0 .037-.012.155-.037.353a.858.858 0 01-.186.353h-.242a37.13 37.13 0 00-2.006-.037H62.64c-.174 0-.279.006-.316.02-.186 0-.279-.057-.279-.169 0-.049.02-.148.056-.297.037-.148.068-.235.093-.26.024-.074.167-.11.427-.11.842-.039 1.387-.28 1.635-.726.05-.074.49-1.79 1.32-5.147l1.263-5.054c-.025-.012-.366-.03-1.022-.056zm13.285-2.081l.074-.018h.41l.52.446c1.164 1.052 2.012 2.365 2.545 3.94.533 1.572.8 3.207.8 4.904 0 .842-.062 1.654-.186 2.434a15.982 15.982 0 01-.428 1.988 8.387 8.387 0 01-.688 1.635c-.297.545-.533.96-.706 1.245a5.61 5.61 0 01-.762.948c-.334.347-.532.551-.594.613-.062.062-.205.18-.428.353a3.699 3.699 0 00-.074.075h-.426c-.039 0-.07-.019-.094-.056a.427.427 0 01-.056-.167c.012-.013.08-.093.204-.242 1.92-1.994 2.88-4.936 2.88-8.826 0-3.89-.96-6.832-2.88-8.826a9.038 9.038 0 00-.204-.24c0-.1.031-.169.093-.206zm12.32 7.47c0-.16.086-.285.26-.372h11.836c.186.1.278.223.278.372 0 .136-.086.254-.26.353l-5.908.018h-5.909c-.198-.062-.297-.185-.297-.37zm0 3.604c0-.185.099-.309.297-.37h11.817c.174.123.26.247.26.37 0 .161-.092.285-.278.372H91.682c-.174-.087-.26-.21-.26-.372zm19.695-14.771c.037-.025 3.784-.038 11.241-.038h11.186l1.078 2.51a206.482 206.482 0 001.17 2.712h-.743l-.13-.26a6.278 6.278 0 00-1.041-1.45 7.818 7.818 0 00-2.062-1.43c-.756-.36-1.629-.626-2.62-.8a21.647 21.647 0 00-2.806-.315 105.18 105.18 0 00-3.4-.075h-8.324l.148.205c5.736 7.841 8.616 11.8 8.641 11.873.012.025.012.062 0 .111-.038.038-1.673 1.908-4.906 5.612l-4.905 5.574c0 .012 1.307.02 3.92.02h2.62c1.103 0 1.896.005 2.379.017 1.684 0 3.047-.03 4.088-.093a23.943 23.943 0 003.103-.39c1.028-.198 1.901-.502 2.619-.91a6.959 6.959 0 001.914-1.617c.26-.322.514-.768.762-1.338h.743c0 .013-.043.143-.13.391-.086.247-.241.65-.464 1.207a28.614 28.614 0 00-.576 1.561l-1.078 2.88-11.167.02c-7.457 0-11.204-.014-11.242-.038-.074-.025-.111-.08-.111-.168a.28.28 0 01.037-.11l9.904-11.336c0-.012-.205-.29-.613-.836-.409-.545-1.06-1.437-1.951-2.675a261.589 261.589 0 00-2.416-3.308l-4.942-6.782-.019-.278c0-.26.031-.409.093-.446z" fill="#fff" fill-rule="nonzero" stroke="#fff" stroke-width=".02"/><path d="M113.982 50.123c-.061-.061-.091-.105-.091-.131 0-.035.013-.105.04-.21a.538.538 0 01.065-.185c.017-.043.056-.065.118-.065.061 0 .284-.005.67-.013h.696l.25-1.051c.026-.097.057-.223.091-.38a2.96 2.96 0 01.092-.343 2.28 2.28 0 00.08-.262.48.48 0 01.105-.224 1.13 1.13 0 00.13-.157.296.296 0 01.185-.118c.079-.018.158-.027.236-.027.158.009.268.057.329.145.06.087.092.17.092.25 0 .06-.04.266-.119.616-.078.351-.166.697-.262 1.038l-.132.487c0 .017.22.026.657.026h.67c.061.061.092.11.092.144a.622.622 0 01-.17.46H116.4l-.473 1.905c-.342 1.401-.513 2.154-.513 2.26 0 .367.119.551.355.551.307 0 .605-.148.894-.447.288-.297.52-.665.695-1.103.018-.053.04-.083.066-.092a1.13 1.13 0 01.197-.026h.053c.131 0 .197.035.197.105 0 .026-.013.08-.04.158-.043.14-.122.306-.236.499a4.624 4.624 0 01-.447.617c-.183.22-.407.403-.67.552a1.61 1.61 0 01-.8.223c-.264 0-.513-.065-.75-.197-.236-.131-.407-.359-.512-.683a1.647 1.647 0 01-.026-.355v-.236l.46-1.84c.306-1.234.464-1.856.472-1.864 0-.018-.223-.027-.67-.027h-.67zm5.137.5c0-.114.06-.202.184-.263h8.368c.131.07.196.157.196.263 0 .096-.06.18-.183.25l-4.177.012h-4.178c-.14-.044-.21-.131-.21-.262zm0 2.548c0-.131.07-.219.21-.263h8.355c.123.088.183.176.183.263 0 .113-.065.201-.196.263h-8.368c-.123-.062-.184-.15-.184-.263zm10.759-5.676c.49-.709 1.16-1.064 2.01-1.064.42 0 .84.114 1.26.342.422.228.763.63 1.026 1.209.324.727.486 1.725.486 2.995 0 1.357-.188 2.395-.565 3.113a2.243 2.243 0 01-.723.88c-.306.22-.573.356-.8.408a3.616 3.616 0 01-.671.092 3.04 3.04 0 01-.683-.079c-.228-.053-.495-.193-.801-.42a2.363 2.363 0 01-.723-.88c-.376-.719-.564-1.757-.564-3.114 0-1.524.25-2.684.748-3.482zm2.956-.157a1.237 1.237 0 00-.933-.42c-.368 0-.683.14-.946.42-.218.228-.363.543-.433.946-.07.403-.105 1.243-.105 2.522 0 1.384.035 2.295.105 2.733.07.438.227.783.473 1.038.245.262.547.394.906.394.35 0 .648-.132.894-.394.253-.263.411-.63.473-1.104.06-.473.096-1.362.104-2.667 0-1.27-.034-2.106-.104-2.509-.07-.403-.215-.722-.434-.96zM122.656 2.186h-.105c-.219 0-.35-.004-.394-.013-.044-.01-.066-.057-.066-.145 0-.236.048-.38.144-.433.018-.009.443-.013 1.275-.013h1.156c.096 0 .158.026.184.079 1.848 4.343 2.789 6.572 2.824 6.686l.71-2.798c.464-1.848.696-2.833.696-2.956 0-.236-.28-.372-.84-.407-.21 0-.316-.048-.316-.144 0-.018.008-.07.026-.158.035-.14.062-.223.08-.25.016-.026.06-.043.13-.052a68.057 68.057 0 001.498.039 29.034 29.034 0 001.392-.026c.132 0 .198.044.198.131 0 .193-.036.324-.106.394-.018.044-.114.066-.289.066-.621.035-1.011.21-1.169.525l-1.957 7.751c-.018.061-.11.092-.276.092-.122 0-.197-.009-.224-.026-.026-.026-.59-1.353-1.694-3.98l-1.669-3.929-.853 3.416c-.57 2.242-.854 3.403-.854 3.481.044.29.36.434.946.434h.13c.054.043.08.079.08.105 0 .026-.009.11-.026.25a.606.606 0 01-.132.249h-.17a26.25 26.25 0 00-1.42-.026h-1.155a1.04 1.04 0 00-.224.013c-.131 0-.197-.04-.197-.119 0-.034.014-.104.04-.21a.538.538 0 01.066-.183c.017-.053.118-.079.301-.079.596-.027.981-.197 1.156-.512.036-.053.346-1.266.933-3.64l.894-3.573c-.018-.008-.26-.022-.723-.04z" fill="#fff" fill-rule="nonzero" stroke="#fff" stroke-width=".014"/><path fill="#fff" stroke="#fff" stroke-linejoin="round" stroke-miterlimit="2" d="M141.166 29.207h61.744v-1.115h-61.744z"/><path d="M166.953 9.175a5.15 5.15 0 01-.595-.018c-.062-.013-.093-.081-.093-.205 0-.334.068-.539.205-.613.024-.012 1.102-.018 3.233-.018 2.13.012 3.282.03 3.456.055.693.099 1.276.273 1.746.521.471.247.805.532 1.004.854.198.322.328.589.39.799.062.211.099.421.111.632 0 .557-.179 1.078-.539 1.561a3.927 3.927 0 01-1.244 1.115c-.471.26-.886.47-1.245.631-.36.161-.595.242-.706.242l.13.093c.83.471 1.245 1.152 1.245 2.044 0 .136-.031.514-.093 1.133-.062.62-.093 1.127-.093 1.524v.167c0 .223.006.396.018.52a.495.495 0 00.205.335.835.835 0 00.483.167c.347 0 .632-.136.855-.409.222-.272.384-.563.483-.873.062-.174.111-.279.148-.316.037-.037.13-.056.279-.056.248 0 .372.075.372.223 0 .223-.149.576-.446 1.059-.471.706-1.028 1.059-1.673 1.059h-.167c-.755 0-1.381-.154-1.877-.464-.495-.31-.768-.793-.817-1.449 0-.335.093-.855.279-1.561.185-.706.278-1.158.278-1.357 0-.631-.266-1.09-.799-1.375a1.508 1.508 0 00-.464-.148 27.062 27.062 0 00-1.319-.037h-1.282l-.595 2.415a136.416 136.416 0 00-.613 2.49c0 .05.006.081.018.093a.596.596 0 00.446.111c.137-.012.341 0 .613.038h.576a.774.774 0 01.112.167c0 .012-.019.124-.056.334a.835.835 0 01-.186.353h-.278a53.45 53.45 0 00-2.434-.037h-2.026c-.21 0-.34.006-.39.019-.211 0-.316-.056-.316-.168 0-.024.019-.111.056-.26.062-.235.124-.365.186-.39.049-.012.142-.018.278-.018h.112c.334 0 .706-.019 1.115-.056.173-.037.291-.112.353-.223.037-.05.483-1.772 1.338-5.166.854-3.394 1.282-5.184 1.282-5.37 0-.086-.353-.142-1.059-.167zm7.432 1.542a1.4 1.4 0 00-.39-1.003c-.26-.272-.793-.446-1.598-.52h-.428c-.26 0-.495-.006-.706-.019h-.408c-.583 0-.917.062-1.004.186-.012.037-.223.861-.632 2.471-.408 1.611-.613 2.434-.613 2.472 0 .012.428.018 1.282.018.967-.012 1.611-.056 1.933-.13.793-.124 1.412-.489 1.858-1.096.198-.285.365-.657.502-1.115.136-.458.204-.88.204-1.264z" fill="#fff" fill-rule="nonzero" stroke="#fff" stroke-width=".02"/><path d="M179.13 21.089c-.062-.062-.092-.105-.092-.132 0-.035.013-.105.04-.21a.538.538 0 01.065-.184c.017-.044.056-.066.118-.066.061 0 .284-.004.67-.012h.696l.25-1.052c.026-.096.057-.223.091-.38a2.96 2.96 0 01.092-.342 2.28 2.28 0 00.08-.263.48.48 0 01.105-.223c.044-.044.087-.096.13-.158a.296.296 0 01.185-.118c.079-.017.158-.026.236-.026.158.009.268.057.329.144.06.088.092.171.092.25 0 .061-.04.267-.119.617-.078.35-.166.696-.262 1.038l-.132.486c0 .018.22.027.657.027h.67c.061.061.092.11.092.144a.622.622 0 01-.17.46h-1.406l-.473 1.905c-.342 1.4-.513 2.154-.513 2.26 0 .367.119.55.355.55.307 0 .605-.148.894-.446.288-.298.52-.665.695-1.103.018-.053.04-.083.066-.092a1.13 1.13 0 01.197-.027h.053c.131 0 .197.036.197.106a.614.614 0 01-.04.157 2.43 2.43 0 01-.236.5 4.624 4.624 0 01-.447.617 2.414 2.414 0 01-.67.552 1.61 1.61 0 01-.8.223c-.264 0-.513-.066-.75-.197-.236-.132-.407-.36-.512-.683a1.647 1.647 0 01-.026-.355v-.236l.46-1.84c.306-1.234.464-1.856.472-1.865 0-.018-.223-.026-.67-.026h-.67z" fill="#fff" fill-rule="nonzero" stroke="#fff" stroke-width=".014"/><path d="M145.028 43.271c0-.855.062-1.666.185-2.434a17.03 17.03 0 01.428-1.988c.161-.558.39-1.103.687-1.635.298-.533.533-.948.706-1.245.174-.298.434-.62.781-.966.347-.347.551-.558.613-.632.062-.075.217-.205.464-.39h.316c.174 0 .26.055.26.167 0 .037-.105.167-.315.39a8.327 8.327 0 00-.762.985c-.298.433-.601.966-.911 1.598-.309.632-.57 1.486-.78 2.564-.211 1.078-.316 2.273-.316 3.586 0 1.313.105 2.502.316 3.568.21 1.065.464 1.926.762 2.582.297.657.6 1.19.91 1.598.31.41.57.737.781.985.21.248.315.378.315.39 0 .112-.092.168-.278.168h-.298l-.52-.446c-1.164-1.053-2.013-2.366-2.545-3.94a15.18 15.18 0 01-.799-4.905zm9.439-6.094l-.242.092a5.303 5.303 0 01-.743.186 8.403 8.403 0 01-1.078.13h-.353v-.854h.353a6.061 6.061 0 001.617-.279c.495-.16.842-.31 1.04-.446.199-.136.372-.273.521-.409.024-.037.099-.056.223-.056.111 0 .216.038.315.112v5.556l.019 5.574a.736.736 0 00.223.167c.062.025.211.05.446.074.235.025.619.038 1.152.038h.483v.854h-.204c-.26-.037-1.245-.055-2.955-.055-1.684 0-2.657.018-2.917.055h-.223v-.854h1.189c.198 0 .353-.007.465-.019.111-.012.21-.03.297-.056.087-.025.136-.037.149-.037.012 0 .049-.03.111-.093.062-.062.099-.087.112-.074v-9.606zm10.517 6.336c.693-2.936.693-3.017 0-.242-.694 2.775-.607 2.651.26-.372h5.555v-2.787l.019-2.787c.124-.16.241-.24.353-.24.161 0 .285.092.372.277V42.9h5.537c.186.1.278.223.278.372 0 .15-.092.273-.278.372h-5.537v5.537c-.1.173-.211.26-.335.26h-.074c-.149 0-.26-.087-.335-.26v-5.537h-5.555c-.174-.087-.26-.21-.26-.372v.242zm20.959-6.745c0-.298.118-.558.353-.78a1.23 1.23 0 01.817-.354.76.76 0 01.558.223.823.823 0 01.241.558c0 .285-.123.545-.371.78s-.52.36-.818.372a.835.835 0 01-.52-.186c-.161-.124-.248-.328-.26-.613zm-3.029 5.816c0-.1.056-.292.167-.576.112-.285.261-.6.446-.948.186-.347.459-.663.818-.948.359-.285.731-.42 1.115-.408.483 0 .885.142 1.208.427.322.285.489.67.501 1.152 0 .21-.086.557-.26 1.04a68.883 68.883 0 01-.743 1.951 50.285 50.285 0 00-.781 2.1 3.106 3.106 0 00-.092.595c0 .31.105.464.315.464.112 0 .23-.018.353-.056.124-.037.267-.123.428-.26.161-.136.328-.353.502-.65.173-.297.328-.663.464-1.096.037-.149.068-.236.093-.26.025-.025.13-.038.316-.038.248 0 .371.062.371.186 0 .1-.055.291-.167.576a7.275 7.275 0 01-.464.948 3.12 3.12 0 01-.836.93c-.36.271-.744.408-1.152.408a1.75 1.75 0 01-1.097-.39c-.334-.26-.508-.657-.52-1.19 0-.21.031-.408.093-.594s.328-.892.799-2.119c.471-1.25.743-2 .817-2.248a3.03 3.03 0 00.13-.724c0-.298-.105-.446-.315-.446h-.038c-.371 0-.712.204-1.021.613-.31.41-.546.93-.707 1.561a.247.247 0 00-.037.055.15.15 0 00-.018.056c0 .012-.013.025-.037.037a.139.139 0 01-.056.02h-.483c-.075-.076-.112-.13-.112-.168zM190.068 34l.074-.019h.409l.52.446c1.165 1.052 2.013 2.365 2.546 3.94.532 1.572.799 3.207.799 4.904 0 .842-.062 1.654-.186 2.434a15.982 15.982 0 01-.427 1.988 8.387 8.387 0 01-.688 1.635c-.297.545-.533.96-.706 1.245a5.61 5.61 0 01-.762.948c-.334.347-.532.551-.594.613-.062.062-.205.18-.428.353a3.699 3.699 0 00-.074.075h-.427c-.038 0-.069-.019-.093-.056a.427.427 0 01-.056-.167c.012-.013.08-.093.204-.242 1.92-1.994 2.88-4.936 2.88-8.826 0-3.89-.96-6.832-2.88-8.826a9.038 9.038 0 00-.204-.24c0-.1.031-.169.093-.206z" fill="#fff" fill-rule="nonzero" stroke="#fff" stroke-width=".02"/><path d="M197.52 34.836c-.062-.061-.092-.105-.092-.131 0-.036.013-.106.04-.21a.538.538 0 01.065-.185c.017-.044.056-.065.118-.065.061 0 .284-.005.67-.013h.696l.25-1.051c.026-.097.057-.223.091-.38a2.96 2.96 0 01.092-.343 2.28 2.28 0 00.08-.262.48.48 0 01.105-.224c.044-.044.087-.096.13-.157a.296.296 0 01.185-.118c.079-.018.158-.027.236-.027.158.009.268.057.329.145.06.087.092.17.092.25 0 .06-.04.266-.119.616-.078.351-.166.697-.262 1.038l-.132.487c0 .017.22.026.657.026h.67c.061.061.092.11.092.144a.622.622 0 01-.17.46h-1.406l-.473 1.905c-.342 1.401-.513 2.154-.513 2.26 0 .367.119.551.355.551.307 0 .605-.148.894-.447.288-.297.52-.665.695-1.103.018-.053.04-.083.066-.092a1.13 1.13 0 01.197-.027h.053c.131 0 .197.036.197.106a.614.614 0 01-.04.157 2.43 2.43 0 01-.236.5 4.624 4.624 0 01-.447.617 2.414 2.414 0 01-.67.552 1.61 1.61 0 01-.8.223c-.264 0-.513-.065-.75-.197-.236-.131-.407-.359-.512-.683a1.647 1.647 0 01-.026-.355v-.236l.46-1.84c.306-1.234.464-1.856.472-1.865 0-.017-.223-.026-.67-.026h-.67z" fill="#fff" fill-rule="nonzero" stroke="#fff" stroke-width=".014"/></svg>