<?xml version="1.0" encoding="UTF-8" standalone="no"?>
<!DOCTYPE svg PUBLIC "-//W3C//DTD SVG 1.1//EN" "http://www.w3.org/Graphics/SVG/1.1/DTD/svg11.dtd">
<svg width="100%" height="100%" viewBox="0 0 264 54" version="1.1" xmlns="http://www.w3.org/2000/svg" xmlns:xlink="http://www.w3.org/1999/xlink" xml:space="preserve" xmlns:serif="http://www.serif.com/" style="fill-rule:evenodd;clip-rule:evenodd;">
    <g transform="matrix(1,0,0,-1,2,91)">
        <g id="E1-MJMATHI-72" transform="matrix(1,0,0,1,0.445935,30.7063)">
            <path d="M0.39,36.039C0.403,36.076 0.415,36.126 0.427,36.188C0.44,36.25 0.471,36.386 0.52,36.596C0.57,36.807 0.632,36.999 0.706,37.172C0.78,37.346 0.873,37.55 0.985,37.786C1.096,38.021 1.22,38.207 1.356,38.343C1.493,38.479 1.654,38.615 1.839,38.752C2.025,38.888 2.23,38.944 2.453,38.919C2.812,38.919 3.128,38.845 3.4,38.696C3.673,38.547 3.865,38.411 3.976,38.287C4.088,38.163 4.156,38.039 4.181,37.916C4.205,37.841 4.224,37.804 4.236,37.804C4.249,37.804 4.298,37.847 4.385,37.934C4.98,38.578 5.667,38.9 6.447,38.9L6.503,38.9C7.098,38.9 7.544,38.646 7.841,38.139C7.94,37.903 7.99,37.674 7.99,37.451C7.99,37.079 7.909,36.782 7.748,36.559C7.587,36.336 7.426,36.194 7.265,36.132C7.104,36.07 6.949,36.045 6.801,36.058C6.553,36.058 6.355,36.126 6.206,36.262C6.057,36.398 5.983,36.578 5.983,36.801C5.983,37.395 6.33,37.792 7.023,37.99C6.751,38.151 6.528,38.231 6.355,38.231C5.661,38.231 5.023,37.773 4.441,36.856C4.317,36.658 4.224,36.454 4.162,36.243C4.1,36.033 3.89,35.209 3.53,33.772C3.109,32.038 2.868,31.115 2.806,31.004C2.645,30.669 2.378,30.502 2.007,30.502C1.846,30.502 1.716,30.539 1.617,30.613C1.517,30.688 1.449,30.762 1.412,30.836C1.375,30.911 1.363,30.973 1.375,31.022C1.375,31.183 1.623,32.248 2.118,34.218C2.614,36.188 2.861,37.284 2.861,37.507C2.861,37.99 2.7,38.231 2.378,38.231C2.118,38.231 1.895,38.058 1.709,37.711C1.524,37.364 1.375,36.987 1.263,36.578C1.152,36.169 1.084,35.946 1.059,35.909C1.034,35.884 0.935,35.872 0.762,35.872L0.502,35.872C0.427,35.946 0.39,36.002 0.39,36.039Z" style="fill:white;fill-rule:nonzero;stroke:black;stroke-width:0.02px;"/>
        </g>
        <g id="E1-MJMAIN-AF" transform="matrix(1,0,0,1,1.02193,30.8549)">
            <rect x="1.282" y="40.814" width="6.708" height="0.855" style="fill:white;fill-rule:nonzero;stroke:black;stroke-width:0.02px;"/>
        </g>
        <g id="E1-MJMAIN-3D" transform="matrix(1,0,0,1,15.4777,30.7063)">
            <path d="M1.041,37.154C1.041,37.315 1.127,37.439 1.301,37.525L13.137,37.525C13.322,37.426 13.415,37.302 13.415,37.154C13.415,37.018 13.329,36.9 13.155,36.801L7.246,36.782L1.338,36.782C1.14,36.844 1.041,36.968 1.041,37.154ZM1.041,33.549C1.041,33.735 1.14,33.859 1.338,33.921L13.155,33.921C13.329,33.797 13.415,33.673 13.415,33.549C13.415,33.388 13.322,33.264 13.137,33.178L1.301,33.178C1.127,33.264 1.041,33.388 1.041,33.549Z" style="fill:white;fill-rule:nonzero;stroke:black;stroke-width:0.02px;"/>
        </g>
        <g transform="matrix(1,0,0,1,37.3471,31)">
            <rect x="0" y="34.794" width="13.378" height="1.115" style="fill:white;"/>
        </g>
        <g id="E1-MJMAIN-31" transform="matrix(1,0,0,1,39.3909,43.2668)">
            <path d="M3.958,41.446L3.716,41.353C3.543,41.291 3.295,41.229 2.973,41.167C2.651,41.105 2.292,41.062 1.895,41.037L1.542,41.037L1.542,41.892L1.895,41.892C2.477,41.917 3.016,42.01 3.512,42.171C4.007,42.332 4.354,42.48 4.552,42.616C4.75,42.753 4.924,42.889 5.073,43.025C5.097,43.062 5.172,43.081 5.295,43.081C5.407,43.081 5.512,43.044 5.611,42.97L5.611,37.414L5.63,31.84C5.717,31.753 5.791,31.697 5.853,31.672C5.915,31.648 6.063,31.623 6.299,31.598C6.534,31.573 6.918,31.561 7.451,31.561L7.934,31.561L7.934,30.706L7.73,30.706C7.469,30.743 6.485,30.762 4.775,30.762C3.091,30.762 2.118,30.743 1.858,30.706L1.635,30.706L1.635,31.561L2.824,31.561C3.022,31.561 3.177,31.567 3.289,31.58C3.4,31.592 3.499,31.611 3.586,31.635C3.673,31.66 3.722,31.672 3.735,31.672C3.747,31.672 3.784,31.703 3.846,31.765C3.908,31.827 3.945,31.852 3.958,31.84L3.958,41.446Z" style="fill:white;fill-rule:nonzero;stroke:black;stroke-width:0.02px;"/>
        </g>
        <g id="E1-MJMATHI-6E" transform="matrix(1,0,0,1,38.4619,17.96)">
            <path d="M0.39,36.039C0.403,36.113 0.421,36.212 0.446,36.336C0.471,36.46 0.545,36.695 0.669,37.042C0.793,37.389 0.917,37.68 1.041,37.916C1.164,38.151 1.369,38.38 1.654,38.603C1.939,38.826 2.223,38.931 2.508,38.919C2.954,38.919 3.326,38.807 3.623,38.584C3.921,38.362 4.106,38.151 4.181,37.953C4.255,37.755 4.292,37.624 4.292,37.563C4.292,37.538 4.298,37.525 4.311,37.525L4.515,37.73C5.271,38.523 6.132,38.919 7.098,38.919C7.767,38.919 8.306,38.752 8.714,38.417C9.123,38.083 9.334,37.594 9.346,36.949C9.358,36.305 9.123,35.333 8.64,34.032C8.157,32.732 7.922,31.945 7.934,31.672C7.934,31.35 8.039,31.189 8.25,31.189C8.324,31.189 8.38,31.196 8.417,31.208C8.776,31.27 9.098,31.505 9.383,31.914C9.668,32.323 9.885,32.818 10.034,33.4C10.058,33.5 10.182,33.549 10.405,33.549C10.653,33.549 10.777,33.5 10.777,33.4C10.777,33.388 10.752,33.295 10.702,33.122C10.603,32.763 10.467,32.41 10.294,32.063C10.12,31.716 9.835,31.369 9.439,31.022C9.043,30.675 8.615,30.508 8.157,30.52C7.575,30.52 7.154,30.688 6.893,31.022C6.633,31.357 6.503,31.703 6.503,32.063C6.503,32.298 6.726,33.041 7.172,34.292C7.618,35.543 7.847,36.485 7.86,37.117C7.86,37.847 7.587,38.213 7.042,38.213L6.949,38.213C5.884,38.213 4.986,37.587 4.255,36.336L4.125,36.113L3.512,33.623C3.103,32.001 2.868,31.127 2.806,31.004C2.645,30.669 2.378,30.502 2.007,30.502C1.846,30.502 1.716,30.539 1.617,30.613C1.517,30.688 1.449,30.762 1.412,30.836C1.375,30.911 1.363,30.973 1.375,31.022C1.375,31.183 1.61,32.193 2.081,34.051C2.552,35.909 2.799,36.918 2.824,37.079C2.837,37.141 2.843,37.284 2.843,37.507C2.843,37.99 2.694,38.231 2.397,38.231C1.926,38.231 1.536,37.612 1.226,36.373C1.152,36.126 1.115,35.996 1.115,35.983C1.09,35.909 0.972,35.872 0.762,35.872L0.502,35.872C0.427,35.946 0.39,36.002 0.39,36.039Z" style="fill:white;fill-rule:nonzero;stroke:black;stroke-width:0.02px;"/>
        </g>
        <g id="E1-MJSZ2-2211" transform="matrix(1,0,0,1,56.0578,30.7063)">
            <path d="M1.115,48.321C1.152,48.346 4.899,48.358 12.356,48.358L23.542,48.358L24.619,45.85C25.35,44.14 25.74,43.236 25.79,43.137L25.047,43.137L24.917,43.397C24.657,43.905 24.31,44.388 23.876,44.846C23.257,45.441 22.569,45.918 21.814,46.277C21.058,46.636 20.185,46.902 19.194,47.076C18.203,47.249 17.268,47.355 16.388,47.392C15.509,47.429 14.375,47.454 12.988,47.466L4.664,47.466L4.812,47.262C10.548,39.421 13.428,35.463 13.452,35.389C13.465,35.364 13.465,35.327 13.452,35.277C13.415,35.24 11.78,33.37 8.547,29.666L3.642,24.092C3.642,24.079 4.949,24.073 7.562,24.073L10.182,24.073C11.285,24.073 12.077,24.067 12.561,24.054C14.245,24.054 15.608,24.085 16.648,24.147C17.689,24.209 18.723,24.339 19.751,24.538C20.779,24.736 21.653,25.039 22.371,25.448C23.09,25.857 23.727,26.396 24.285,27.064C24.545,27.387 24.799,27.832 25.047,28.402L25.79,28.402C25.79,28.39 25.747,28.26 25.66,28.012C25.573,27.764 25.418,27.362 25.195,26.804C24.972,26.247 24.78,25.727 24.619,25.244L23.542,22.364L12.375,22.345C4.918,22.345 1.171,22.357 1.133,22.382C1.059,22.407 1.022,22.463 1.022,22.549C1.022,22.574 1.034,22.611 1.059,22.661L10.963,33.995C10.963,34.007 10.758,34.286 10.349,34.831C9.941,35.376 9.29,36.268 8.398,37.507C7.507,38.746 6.701,39.848 5.983,40.814L1.041,47.596L1.022,47.875C1.022,48.135 1.053,48.284 1.115,48.321Z" style="fill:white;fill-rule:nonzero;stroke:black;stroke-width:0.02px;"/>
        </g>
        <g id="E1-MJMATHI-69" transform="matrix(0.707,0,0,0.707,61.7891,17.4565)">
            <path d="M3.419,41.855C3.419,42.152 3.537,42.412 3.772,42.635C4.007,42.858 4.28,42.976 4.589,42.988C4.812,42.988 4.998,42.914 5.147,42.765C5.295,42.616 5.376,42.431 5.388,42.208C5.388,41.923 5.265,41.663 5.017,41.427C4.769,41.192 4.497,41.068 4.199,41.056C4.013,41.056 3.84,41.118 3.679,41.242C3.518,41.365 3.431,41.57 3.419,41.855ZM0.39,36.039C0.39,36.138 0.446,36.33 0.557,36.615C0.669,36.9 0.818,37.216 1.003,37.563C1.189,37.909 1.462,38.225 1.821,38.51C2.18,38.795 2.552,38.931 2.936,38.919C3.419,38.919 3.821,38.776 4.143,38.492C4.466,38.207 4.633,37.823 4.645,37.34C4.645,37.129 4.558,36.782 4.385,36.299C4.212,35.816 3.964,35.166 3.642,34.348C3.32,33.531 3.06,32.831 2.861,32.248C2.799,31.976 2.769,31.778 2.769,31.654C2.769,31.344 2.874,31.189 3.084,31.189C3.196,31.189 3.314,31.208 3.437,31.245C3.561,31.282 3.704,31.369 3.865,31.505C4.026,31.642 4.193,31.858 4.366,32.156C4.54,32.453 4.695,32.818 4.831,33.252C4.868,33.4 4.899,33.487 4.924,33.512C4.949,33.537 5.054,33.549 5.24,33.549C5.487,33.549 5.611,33.487 5.611,33.363C5.611,33.264 5.556,33.072 5.444,32.787C5.333,32.502 5.178,32.187 4.98,31.84C4.781,31.493 4.503,31.183 4.143,30.911C3.784,30.638 3.4,30.502 2.991,30.502C2.595,30.502 2.23,30.632 1.895,30.892C1.561,31.152 1.387,31.549 1.375,32.081C1.375,32.292 1.406,32.49 1.468,32.676C1.53,32.862 1.796,33.568 2.267,34.794C2.738,36.045 3.01,36.795 3.084,37.042C3.159,37.29 3.202,37.532 3.214,37.767C3.214,38.064 3.109,38.213 2.899,38.213L2.861,38.213C2.49,38.213 2.149,38.008 1.839,37.6C1.53,37.191 1.294,36.671 1.133,36.039C1.121,36.027 1.109,36.008 1.096,35.983C1.084,35.958 1.078,35.94 1.078,35.927C1.078,35.915 1.065,35.903 1.041,35.89C1.016,35.878 0.997,35.872 0.985,35.872L0.502,35.872C0.427,35.946 0.39,36.002 0.39,36.039Z" style="fill:white;fill-rule:nonzero;stroke:black;stroke-width:0.02px;"/>
        </g>
        <g id="E1-MJMAIN-3D1" serif:id="E1-MJMAIN-3D" transform="matrix(0.707,0,0,0.707,66.3212,17.4565)">
            <path d="M1.041,37.154C1.041,37.315 1.127,37.439 1.301,37.525L13.137,37.525C13.322,37.426 13.415,37.302 13.415,37.154C13.415,37.018 13.329,36.9 13.155,36.801L7.246,36.782L1.338,36.782C1.14,36.844 1.041,36.968 1.041,37.154ZM1.041,33.549C1.041,33.735 1.14,33.859 1.338,33.921L13.155,33.921C13.329,33.797 13.415,33.673 13.415,33.549C13.415,33.388 13.322,33.264 13.137,33.178L1.301,33.178C1.127,33.264 1.041,33.388 1.041,33.549Z" style="fill:white;fill-rule:nonzero;stroke:black;stroke-width:0.02px;"/>
        </g>
        <g id="E1-MJMAIN-311" serif:id="E1-MJMAIN-31" transform="matrix(0.707,0,0,0.707,76.5546,17.4565)">
            <path d="M3.958,41.446L3.716,41.353C3.543,41.291 3.295,41.229 2.973,41.167C2.651,41.105 2.292,41.062 1.895,41.037L1.542,41.037L1.542,41.892L1.895,41.892C2.477,41.917 3.016,42.01 3.512,42.171C4.007,42.332 4.354,42.48 4.552,42.616C4.75,42.753 4.924,42.889 5.073,43.025C5.097,43.062 5.172,43.081 5.295,43.081C5.407,43.081 5.512,43.044 5.611,42.97L5.611,37.414L5.63,31.84C5.717,31.753 5.791,31.697 5.853,31.672C5.915,31.648 6.063,31.623 6.299,31.598C6.534,31.573 6.918,31.561 7.451,31.561L7.934,31.561L7.934,30.706L7.73,30.706C7.469,30.743 6.485,30.762 4.775,30.762C3.091,30.762 2.118,30.743 1.858,30.706L1.635,30.706L1.635,31.561L2.824,31.561C3.022,31.561 3.177,31.567 3.289,31.58C3.4,31.592 3.499,31.611 3.586,31.635C3.673,31.66 3.722,31.672 3.735,31.672C3.747,31.672 3.784,31.703 3.846,31.765C3.908,31.827 3.945,31.852 3.958,31.84L3.958,41.446Z" style="fill:white;fill-rule:nonzero;stroke:black;stroke-width:0.02px;"/>
        </g>
        <g id="E1-MJMATHI-6E1" serif:id="E1-MJMATHI-6E" transform="matrix(0.707,0,0,0.707,66.5292,61.0824)">
            <path d="M0.39,36.039C0.403,36.113 0.421,36.212 0.446,36.336C0.471,36.46 0.545,36.695 0.669,37.042C0.793,37.389 0.917,37.68 1.041,37.916C1.164,38.151 1.369,38.38 1.654,38.603C1.939,38.826 2.223,38.931 2.508,38.919C2.954,38.919 3.326,38.807 3.623,38.584C3.921,38.362 4.106,38.151 4.181,37.953C4.255,37.755 4.292,37.624 4.292,37.563C4.292,37.538 4.298,37.525 4.311,37.525L4.515,37.73C5.271,38.523 6.132,38.919 7.098,38.919C7.767,38.919 8.306,38.752 8.714,38.417C9.123,38.083 9.334,37.594 9.346,36.949C9.358,36.305 9.123,35.333 8.64,34.032C8.157,32.732 7.922,31.945 7.934,31.672C7.934,31.35 8.039,31.189 8.25,31.189C8.324,31.189 8.38,31.196 8.417,31.208C8.776,31.27 9.098,31.505 9.383,31.914C9.668,32.323 9.885,32.818 10.034,33.4C10.058,33.5 10.182,33.549 10.405,33.549C10.653,33.549 10.777,33.5 10.777,33.4C10.777,33.388 10.752,33.295 10.702,33.122C10.603,32.763 10.467,32.41 10.294,32.063C10.12,31.716 9.835,31.369 9.439,31.022C9.043,30.675 8.615,30.508 8.157,30.52C7.575,30.52 7.154,30.688 6.893,31.022C6.633,31.357 6.503,31.703 6.503,32.063C6.503,32.298 6.726,33.041 7.172,34.292C7.618,35.543 7.847,36.485 7.86,37.117C7.86,37.847 7.587,38.213 7.042,38.213L6.949,38.213C5.884,38.213 4.986,37.587 4.255,36.336L4.125,36.113L3.512,33.623C3.103,32.001 2.868,31.127 2.806,31.004C2.645,30.669 2.378,30.502 2.007,30.502C1.846,30.502 1.716,30.539 1.617,30.613C1.517,30.688 1.449,30.762 1.412,30.836C1.375,30.911 1.363,30.973 1.375,31.022C1.375,31.183 1.61,32.193 2.081,34.051C2.552,35.909 2.799,36.918 2.824,37.079C2.837,37.141 2.843,37.284 2.843,37.507C2.843,37.99 2.694,38.231 2.397,38.231C1.926,38.231 1.536,37.612 1.226,36.373C1.152,36.126 1.115,35.996 1.115,35.983C1.09,35.909 0.972,35.872 0.762,35.872L0.502,35.872C0.427,35.946 0.39,36.002 0.39,36.039Z" style="fill:white;fill-rule:nonzero;stroke:black;stroke-width:0.02px;"/>
        </g>
        <g id="E1-MJMATHI-721" serif:id="E1-MJMATHI-72" transform="matrix(1,0,0,1,86.9912,31.7063)">
            <path d="M0.39,36.039C0.403,36.076 0.415,36.126 0.427,36.188C0.44,36.25 0.471,36.386 0.52,36.596C0.57,36.807 0.632,36.999 0.706,37.172C0.78,37.346 0.873,37.55 0.985,37.786C1.096,38.021 1.22,38.207 1.356,38.343C1.493,38.479 1.654,38.615 1.839,38.752C2.025,38.888 2.23,38.944 2.453,38.919C2.812,38.919 3.128,38.845 3.4,38.696C3.673,38.547 3.865,38.411 3.976,38.287C4.088,38.163 4.156,38.039 4.181,37.916C4.205,37.841 4.224,37.804 4.236,37.804C4.249,37.804 4.298,37.847 4.385,37.934C4.98,38.578 5.667,38.9 6.447,38.9L6.503,38.9C7.098,38.9 7.544,38.646 7.841,38.139C7.94,37.903 7.99,37.674 7.99,37.451C7.99,37.079 7.909,36.782 7.748,36.559C7.587,36.336 7.426,36.194 7.265,36.132C7.104,36.07 6.949,36.045 6.801,36.058C6.553,36.058 6.355,36.126 6.206,36.262C6.057,36.398 5.983,36.578 5.983,36.801C5.983,37.395 6.33,37.792 7.023,37.99C6.751,38.151 6.528,38.231 6.355,38.231C5.661,38.231 5.023,37.773 4.441,36.856C4.317,36.658 4.224,36.454 4.162,36.243C4.1,36.033 3.89,35.209 3.53,33.772C3.109,32.038 2.868,31.115 2.806,31.004C2.645,30.669 2.378,30.502 2.007,30.502C1.846,30.502 1.716,30.539 1.617,30.613C1.517,30.688 1.449,30.762 1.412,30.836C1.375,30.911 1.363,30.973 1.375,31.022C1.375,31.183 1.623,32.248 2.118,34.218C2.614,36.188 2.861,37.284 2.861,37.507C2.861,37.99 2.7,38.231 2.378,38.231C2.118,38.231 1.895,38.058 1.709,37.711C1.524,37.364 1.375,36.987 1.263,36.578C1.152,36.169 1.084,35.946 1.059,35.909C1.034,35.884 0.935,35.872 0.762,35.872L0.502,35.872C0.427,35.946 0.39,36.002 0.39,36.039Z" style="fill:white;fill-rule:nonzero;stroke:black;stroke-width:0.02px;"/>
        </g>
        <g id="E1-MJMATHI-691" serif:id="E1-MJMATHI-69" transform="matrix(0.707,0,0,0.707,94.3723,33.9113)">
            <path d="M3.419,41.855C3.419,42.152 3.537,42.412 3.772,42.635C4.007,42.858 4.28,42.976 4.589,42.988C4.812,42.988 4.998,42.914 5.147,42.765C5.295,42.616 5.376,42.431 5.388,42.208C5.388,41.923 5.265,41.663 5.017,41.427C4.769,41.192 4.497,41.068 4.199,41.056C4.013,41.056 3.84,41.118 3.679,41.242C3.518,41.365 3.431,41.57 3.419,41.855ZM0.39,36.039C0.39,36.138 0.446,36.33 0.557,36.615C0.669,36.9 0.818,37.216 1.003,37.563C1.189,37.909 1.462,38.225 1.821,38.51C2.18,38.795 2.552,38.931 2.936,38.919C3.419,38.919 3.821,38.776 4.143,38.492C4.466,38.207 4.633,37.823 4.645,37.34C4.645,37.129 4.558,36.782 4.385,36.299C4.212,35.816 3.964,35.166 3.642,34.348C3.32,33.531 3.06,32.831 2.861,32.248C2.799,31.976 2.769,31.778 2.769,31.654C2.769,31.344 2.874,31.189 3.084,31.189C3.196,31.189 3.314,31.208 3.437,31.245C3.561,31.282 3.704,31.369 3.865,31.505C4.026,31.642 4.193,31.858 4.366,32.156C4.54,32.453 4.695,32.818 4.831,33.252C4.868,33.4 4.899,33.487 4.924,33.512C4.949,33.537 5.054,33.549 5.24,33.549C5.487,33.549 5.611,33.487 5.611,33.363C5.611,33.264 5.556,33.072 5.444,32.787C5.333,32.502 5.178,32.187 4.98,31.84C4.781,31.493 4.503,31.183 4.143,30.911C3.784,30.638 3.4,30.502 2.991,30.502C2.595,30.502 2.23,30.632 1.895,30.892C1.561,31.152 1.387,31.549 1.375,32.081C1.375,32.292 1.406,32.49 1.468,32.676C1.53,32.862 1.796,33.568 2.267,34.794C2.738,36.045 3.01,36.795 3.084,37.042C3.159,37.29 3.202,37.532 3.214,37.767C3.214,38.064 3.109,38.213 2.899,38.213L2.861,38.213C2.49,38.213 2.149,38.008 1.839,37.6C1.53,37.191 1.294,36.671 1.133,36.039C1.121,36.027 1.109,36.008 1.096,35.983C1.084,35.958 1.078,35.94 1.078,35.927C1.078,35.915 1.065,35.903 1.041,35.89C1.016,35.878 0.997,35.872 0.985,35.872L0.502,35.872C0.427,35.946 0.39,36.002 0.39,36.039Z" style="fill:white;fill-rule:nonzero;stroke:black;stroke-width:0.02px;"/>
        </g>
        <g id="E1-MJMAIN-3D2" serif:id="E1-MJMAIN-3D" transform="matrix(1,0,0,1,105.947,30.7063)">
            <path d="M1.041,37.154C1.041,37.315 1.127,37.439 1.301,37.525L13.137,37.525C13.322,37.426 13.415,37.302 13.415,37.154C13.415,37.018 13.329,36.9 13.155,36.801L7.246,36.782L1.338,36.782C1.14,36.844 1.041,36.968 1.041,37.154ZM1.041,33.549C1.041,33.735 1.14,33.859 1.338,33.921L13.155,33.921C13.329,33.797 13.415,33.673 13.415,33.549C13.415,33.388 13.322,33.264 13.137,33.178L1.301,33.178C1.127,33.264 1.041,33.388 1.041,33.549Z" style="fill:white;fill-rule:nonzero;stroke:black;stroke-width:0.02px;"/>
        </g>
        <g transform="matrix(1,0,0,1,127.798,31)">
            <rect x="0" y="34.794" width="13.378" height="1.115" style="fill:white;"/>
        </g>
        <g id="E1-MJMAIN-312" serif:id="E1-MJMAIN-31" transform="matrix(1,0,0,1,129.841,43.2668)">
            <path d="M3.958,41.446L3.716,41.353C3.543,41.291 3.295,41.229 2.973,41.167C2.651,41.105 2.292,41.062 1.895,41.037L1.542,41.037L1.542,41.892L1.895,41.892C2.477,41.917 3.016,42.01 3.512,42.171C4.007,42.332 4.354,42.48 4.552,42.616C4.75,42.753 4.924,42.889 5.073,43.025C5.097,43.062 5.172,43.081 5.295,43.081C5.407,43.081 5.512,43.044 5.611,42.97L5.611,37.414L5.63,31.84C5.717,31.753 5.791,31.697 5.853,31.672C5.915,31.648 6.063,31.623 6.299,31.598C6.534,31.573 6.918,31.561 7.451,31.561L7.934,31.561L7.934,30.706L7.73,30.706C7.469,30.743 6.485,30.762 4.775,30.762C3.091,30.762 2.118,30.743 1.858,30.706L1.635,30.706L1.635,31.561L2.824,31.561C3.022,31.561 3.177,31.567 3.289,31.58C3.4,31.592 3.499,31.611 3.586,31.635C3.673,31.66 3.722,31.672 3.735,31.672C3.747,31.672 3.784,31.703 3.846,31.765C3.908,31.827 3.945,31.852 3.958,31.84L3.958,41.446Z" style="fill:white;fill-rule:nonzero;stroke:black;stroke-width:0.02px;"/>
        </g>
        <g id="E1-MJMATHI-6E2" serif:id="E1-MJMATHI-6E" transform="matrix(1,0,0,1,128.912,17.96)">
            <path d="M0.39,36.039C0.403,36.113 0.421,36.212 0.446,36.336C0.471,36.46 0.545,36.695 0.669,37.042C0.793,37.389 0.917,37.68 1.041,37.916C1.164,38.151 1.369,38.38 1.654,38.603C1.939,38.826 2.223,38.931 2.508,38.919C2.954,38.919 3.326,38.807 3.623,38.584C3.921,38.362 4.106,38.151 4.181,37.953C4.255,37.755 4.292,37.624 4.292,37.563C4.292,37.538 4.298,37.525 4.311,37.525L4.515,37.73C5.271,38.523 6.132,38.919 7.098,38.919C7.767,38.919 8.306,38.752 8.714,38.417C9.123,38.083 9.334,37.594 9.346,36.949C9.358,36.305 9.123,35.333 8.64,34.032C8.157,32.732 7.922,31.945 7.934,31.672C7.934,31.35 8.039,31.189 8.25,31.189C8.324,31.189 8.38,31.196 8.417,31.208C8.776,31.27 9.098,31.505 9.383,31.914C9.668,32.323 9.885,32.818 10.034,33.4C10.058,33.5 10.182,33.549 10.405,33.549C10.653,33.549 10.777,33.5 10.777,33.4C10.777,33.388 10.752,33.295 10.702,33.122C10.603,32.763 10.467,32.41 10.294,32.063C10.12,31.716 9.835,31.369 9.439,31.022C9.043,30.675 8.615,30.508 8.157,30.52C7.575,30.52 7.154,30.688 6.893,31.022C6.633,31.357 6.503,31.703 6.503,32.063C6.503,32.298 6.726,33.041 7.172,34.292C7.618,35.543 7.847,36.485 7.86,37.117C7.86,37.847 7.587,38.213 7.042,38.213L6.949,38.213C5.884,38.213 4.986,37.587 4.255,36.336L4.125,36.113L3.512,33.623C3.103,32.001 2.868,31.127 2.806,31.004C2.645,30.669 2.378,30.502 2.007,30.502C1.846,30.502 1.716,30.539 1.617,30.613C1.517,30.688 1.449,30.762 1.412,30.836C1.375,30.911 1.363,30.973 1.375,31.022C1.375,31.183 1.61,32.193 2.081,34.051C2.552,35.909 2.799,36.918 2.824,37.079C2.837,37.141 2.843,37.284 2.843,37.507C2.843,37.99 2.694,38.231 2.397,38.231C1.926,38.231 1.536,37.612 1.226,36.373C1.152,36.126 1.115,35.996 1.115,35.983C1.09,35.909 0.972,35.872 0.762,35.872L0.502,35.872C0.427,35.946 0.39,36.002 0.39,36.039Z" style="fill:white;fill-rule:nonzero;stroke:black;stroke-width:0.02px;"/>
        </g>
        <g id="E1-MJMAIN-28" transform="matrix(1,0,0,1,143.405,30.7063)">
            <path d="M1.747,35.351C1.747,36.206 1.809,37.018 1.932,37.786C2.056,38.554 2.199,39.216 2.36,39.774C2.521,40.331 2.75,40.876 3.047,41.409C3.345,41.941 3.58,42.356 3.753,42.654C3.927,42.951 4.187,43.273 4.534,43.62C4.881,43.967 5.085,44.177 5.147,44.252C5.209,44.326 5.364,44.456 5.611,44.642L5.927,44.642C6.101,44.642 6.187,44.586 6.187,44.475C6.187,44.437 6.082,44.307 5.871,44.084C5.661,43.861 5.407,43.533 5.11,43.1C4.812,42.666 4.509,42.133 4.199,41.502C3.89,40.87 3.629,40.015 3.419,38.938C3.208,37.86 3.103,36.664 3.103,35.351C3.103,34.038 3.208,32.849 3.419,31.784C3.629,30.719 3.883,29.858 4.181,29.201C4.478,28.545 4.781,28.012 5.091,27.603C5.401,27.195 5.661,26.866 5.871,26.619C6.082,26.371 6.187,26.241 6.187,26.228C6.187,26.117 6.094,26.061 5.909,26.061L5.611,26.061L5.091,26.507C3.927,27.56 3.078,28.873 2.546,30.446C2.013,32.019 1.747,33.654 1.747,35.351Z" style="fill:white;fill-rule:nonzero;stroke:black;stroke-width:0.02px;"/>
        </g>
        <g id="E1-MJMATHI-722" serif:id="E1-MJMATHI-72" transform="matrix(1,0,0,1,150.652,30.7063)">
            <path d="M0.39,36.039C0.403,36.076 0.415,36.126 0.427,36.188C0.44,36.25 0.471,36.386 0.52,36.596C0.57,36.807 0.632,36.999 0.706,37.172C0.78,37.346 0.873,37.55 0.985,37.786C1.096,38.021 1.22,38.207 1.356,38.343C1.493,38.479 1.654,38.615 1.839,38.752C2.025,38.888 2.23,38.944 2.453,38.919C2.812,38.919 3.128,38.845 3.4,38.696C3.673,38.547 3.865,38.411 3.976,38.287C4.088,38.163 4.156,38.039 4.181,37.916C4.205,37.841 4.224,37.804 4.236,37.804C4.249,37.804 4.298,37.847 4.385,37.934C4.98,38.578 5.667,38.9 6.447,38.9L6.503,38.9C7.098,38.9 7.544,38.646 7.841,38.139C7.94,37.903 7.99,37.674 7.99,37.451C7.99,37.079 7.909,36.782 7.748,36.559C7.587,36.336 7.426,36.194 7.265,36.132C7.104,36.07 6.949,36.045 6.801,36.058C6.553,36.058 6.355,36.126 6.206,36.262C6.057,36.398 5.983,36.578 5.983,36.801C5.983,37.395 6.33,37.792 7.023,37.99C6.751,38.151 6.528,38.231 6.355,38.231C5.661,38.231 5.023,37.773 4.441,36.856C4.317,36.658 4.224,36.454 4.162,36.243C4.1,36.033 3.89,35.209 3.53,33.772C3.109,32.038 2.868,31.115 2.806,31.004C2.645,30.669 2.378,30.502 2.007,30.502C1.846,30.502 1.716,30.539 1.617,30.613C1.517,30.688 1.449,30.762 1.412,30.836C1.375,30.911 1.363,30.973 1.375,31.022C1.375,31.183 1.623,32.248 2.118,34.218C2.614,36.188 2.861,37.284 2.861,37.507C2.861,37.99 2.7,38.231 2.378,38.231C2.118,38.231 1.895,38.058 1.709,37.711C1.524,37.364 1.375,36.987 1.263,36.578C1.152,36.169 1.084,35.946 1.059,35.909C1.034,35.884 0.935,35.872 0.762,35.872L0.502,35.872C0.427,35.946 0.39,36.002 0.39,36.039Z" style="fill:white;fill-rule:nonzero;stroke:black;stroke-width:0.02px;"/>
        </g>
        <g id="E1-MJMAIN-313" serif:id="E1-MJMAIN-31" transform="matrix(0.707,0,0,0.707,157.033,33.9113)">
            <path d="M3.958,41.446L3.716,41.353C3.543,41.291 3.295,41.229 2.973,41.167C2.651,41.105 2.292,41.062 1.895,41.037L1.542,41.037L1.542,41.892L1.895,41.892C2.477,41.917 3.016,42.01 3.512,42.171C4.007,42.332 4.354,42.48 4.552,42.616C4.75,42.753 4.924,42.889 5.073,43.025C5.097,43.062 5.172,43.081 5.295,43.081C5.407,43.081 5.512,43.044 5.611,42.97L5.611,37.414L5.63,31.84C5.717,31.753 5.791,31.697 5.853,31.672C5.915,31.648 6.063,31.623 6.299,31.598C6.534,31.573 6.918,31.561 7.451,31.561L7.934,31.561L7.934,30.706L7.73,30.706C7.469,30.743 6.485,30.762 4.775,30.762C3.091,30.762 2.118,30.743 1.858,30.706L1.635,30.706L1.635,31.561L2.824,31.561C3.022,31.561 3.177,31.567 3.289,31.58C3.4,31.592 3.499,31.611 3.586,31.635C3.673,31.66 3.722,31.672 3.735,31.672C3.747,31.672 3.784,31.703 3.846,31.765C3.908,31.827 3.945,31.852 3.958,31.84L3.958,41.446Z" style="fill:white;fill-rule:nonzero;stroke:black;stroke-width:0.02px;"/>
        </g>
        <g id="E1-MJMAIN-2B" transform="matrix(1,0,0,1,171.592,30.7063)">
            <path d="M1.041,35.11C1.734,38.046 1.734,38.126 1.041,35.351C0.347,32.577 0.434,32.701 1.301,35.723L6.856,35.723L6.856,38.51L6.875,41.297C6.999,41.458 7.116,41.539 7.228,41.539C7.389,41.539 7.513,41.446 7.599,41.26L7.599,35.723L13.137,35.723C13.322,35.624 13.415,35.5 13.415,35.351C13.415,35.203 13.322,35.079 13.137,34.98L7.599,34.98L7.599,29.443C7.5,29.269 7.389,29.183 7.265,29.183L7.191,29.183C7.042,29.183 6.931,29.269 6.856,29.443L6.856,34.98L1.301,34.98C1.127,35.067 1.041,35.19 1.041,35.351L1.041,35.11Z" style="fill:white;fill-rule:nonzero;stroke:black;stroke-width:0.02px;"/>
        </g>
        <g id="E1-MJMAIN-22EF" transform="matrix(1,0,0,1,190.191,30.7063)">
            <path d="M1.449,35.351C1.449,35.649 1.555,35.909 1.765,36.132C1.976,36.355 2.242,36.466 2.564,36.466C2.861,36.466 3.122,36.367 3.345,36.169C3.567,35.971 3.685,35.704 3.698,35.37C3.698,35.06 3.592,34.794 3.382,34.571C3.171,34.348 2.905,34.237 2.583,34.237C2.261,34.237 1.994,34.342 1.784,34.552C1.573,34.763 1.462,35.029 1.449,35.351ZM9.755,35.351C9.755,35.649 9.86,35.909 10.071,36.132C10.281,36.355 10.548,36.466 10.87,36.466C11.167,36.466 11.427,36.367 11.65,36.169C11.873,35.971 11.991,35.704 12.003,35.37C12.003,35.06 11.898,34.794 11.687,34.571C11.477,34.348 11.21,34.237 10.888,34.237C10.566,34.237 10.3,34.342 10.089,34.552C9.879,34.763 9.767,35.029 9.755,35.351ZM18.06,35.351C18.06,35.649 18.166,35.909 18.376,36.132C18.587,36.355 18.853,36.466 19.175,36.466C19.473,36.466 19.733,36.367 19.956,36.169C20.179,35.971 20.296,35.704 20.309,35.37C20.309,35.06 20.203,34.794 19.993,34.571C19.782,34.348 19.516,34.237 19.194,34.237C18.872,34.237 18.605,34.342 18.395,34.552C18.184,34.763 18.073,35.029 18.06,35.351Z" style="fill:white;fill-rule:nonzero;stroke:black;stroke-width:0.02px;"/>
        </g>
        <g id="E1-MJMAIN-2B1" serif:id="E1-MJMAIN-2B" transform="matrix(1,0,0,1,216.111,30.7063)">
            <path d="M1.041,35.11C1.734,38.046 1.734,38.126 1.041,35.351C0.347,32.577 0.434,32.701 1.301,35.723L6.856,35.723L6.856,38.51L6.875,41.297C6.999,41.458 7.116,41.539 7.228,41.539C7.389,41.539 7.513,41.446 7.599,41.26L7.599,35.723L13.137,35.723C13.322,35.624 13.415,35.5 13.415,35.351C13.415,35.203 13.322,35.079 13.137,34.98L7.599,34.98L7.599,29.443C7.5,29.269 7.389,29.183 7.265,29.183L7.191,29.183C7.042,29.183 6.931,29.269 6.856,29.443L6.856,34.98L1.301,34.98C1.127,35.067 1.041,35.19 1.041,35.351L1.041,35.11Z" style="fill:white;fill-rule:nonzero;stroke:black;stroke-width:0.02px;"/>
        </g>
        <g id="E1-MJMATHI-723" serif:id="E1-MJMATHI-72" transform="matrix(1,0,0,1,234.711,30.7063)">
            <path d="M0.39,36.039C0.403,36.076 0.415,36.126 0.427,36.188C0.44,36.25 0.471,36.386 0.52,36.596C0.57,36.807 0.632,36.999 0.706,37.172C0.78,37.346 0.873,37.55 0.985,37.786C1.096,38.021 1.22,38.207 1.356,38.343C1.493,38.479 1.654,38.615 1.839,38.752C2.025,38.888 2.23,38.944 2.453,38.919C2.812,38.919 3.128,38.845 3.4,38.696C3.673,38.547 3.865,38.411 3.976,38.287C4.088,38.163 4.156,38.039 4.181,37.916C4.205,37.841 4.224,37.804 4.236,37.804C4.249,37.804 4.298,37.847 4.385,37.934C4.98,38.578 5.667,38.9 6.447,38.9L6.503,38.9C7.098,38.9 7.544,38.646 7.841,38.139C7.94,37.903 7.99,37.674 7.99,37.451C7.99,37.079 7.909,36.782 7.748,36.559C7.587,36.336 7.426,36.194 7.265,36.132C7.104,36.07 6.949,36.045 6.801,36.058C6.553,36.058 6.355,36.126 6.206,36.262C6.057,36.398 5.983,36.578 5.983,36.801C5.983,37.395 6.33,37.792 7.023,37.99C6.751,38.151 6.528,38.231 6.355,38.231C5.661,38.231 5.023,37.773 4.441,36.856C4.317,36.658 4.224,36.454 4.162,36.243C4.1,36.033 3.89,35.209 3.53,33.772C3.109,32.038 2.868,31.115 2.806,31.004C2.645,30.669 2.378,30.502 2.007,30.502C1.846,30.502 1.716,30.539 1.617,30.613C1.517,30.688 1.449,30.762 1.412,30.836C1.375,30.911 1.363,30.973 1.375,31.022C1.375,31.183 1.623,32.248 2.118,34.218C2.614,36.188 2.861,37.284 2.861,37.507C2.861,37.99 2.7,38.231 2.378,38.231C2.118,38.231 1.895,38.058 1.709,37.711C1.524,37.364 1.375,36.987 1.263,36.578C1.152,36.169 1.084,35.946 1.059,35.909C1.034,35.884 0.935,35.872 0.762,35.872L0.502,35.872C0.427,35.946 0.39,36.002 0.39,36.039Z" style="fill:white;fill-rule:nonzero;stroke:black;stroke-width:0.02px;"/>
        </g>
        <g id="E1-MJMATHI-6E3" serif:id="E1-MJMATHI-6E" transform="matrix(0.707,0,0,0.707,242.092,33.9113)">
            <path d="M0.39,36.039C0.403,36.113 0.421,36.212 0.446,36.336C0.471,36.46 0.545,36.695 0.669,37.042C0.793,37.389 0.917,37.68 1.041,37.916C1.164,38.151 1.369,38.38 1.654,38.603C1.939,38.826 2.223,38.931 2.508,38.919C2.954,38.919 3.326,38.807 3.623,38.584C3.921,38.362 4.106,38.151 4.181,37.953C4.255,37.755 4.292,37.624 4.292,37.563C4.292,37.538 4.298,37.525 4.311,37.525L4.515,37.73C5.271,38.523 6.132,38.919 7.098,38.919C7.767,38.919 8.306,38.752 8.714,38.417C9.123,38.083 9.334,37.594 9.346,36.949C9.358,36.305 9.123,35.333 8.64,34.032C8.157,32.732 7.922,31.945 7.934,31.672C7.934,31.35 8.039,31.189 8.25,31.189C8.324,31.189 8.38,31.196 8.417,31.208C8.776,31.27 9.098,31.505 9.383,31.914C9.668,32.323 9.885,32.818 10.034,33.4C10.058,33.5 10.182,33.549 10.405,33.549C10.653,33.549 10.777,33.5 10.777,33.4C10.777,33.388 10.752,33.295 10.702,33.122C10.603,32.763 10.467,32.41 10.294,32.063C10.12,31.716 9.835,31.369 9.439,31.022C9.043,30.675 8.615,30.508 8.157,30.52C7.575,30.52 7.154,30.688 6.893,31.022C6.633,31.357 6.503,31.703 6.503,32.063C6.503,32.298 6.726,33.041 7.172,34.292C7.618,35.543 7.847,36.485 7.86,37.117C7.86,37.847 7.587,38.213 7.042,38.213L6.949,38.213C5.884,38.213 4.986,37.587 4.255,36.336L4.125,36.113L3.512,33.623C3.103,32.001 2.868,31.127 2.806,31.004C2.645,30.669 2.378,30.502 2.007,30.502C1.846,30.502 1.716,30.539 1.617,30.613C1.517,30.688 1.449,30.762 1.412,30.836C1.375,30.911 1.363,30.973 1.375,31.022C1.375,31.183 1.61,32.193 2.081,34.051C2.552,35.909 2.799,36.918 2.824,37.079C2.837,37.141 2.843,37.284 2.843,37.507C2.843,37.99 2.694,38.231 2.397,38.231C1.926,38.231 1.536,37.612 1.226,36.373C1.152,36.126 1.115,35.996 1.115,35.983C1.09,35.909 0.972,35.872 0.762,35.872L0.502,35.872C0.427,35.946 0.39,36.002 0.39,36.039Z" style="fill:white;fill-rule:nonzero;stroke:black;stroke-width:0.02px;"/>
        </g>
        <g id="E1-MJMAIN-29" transform="matrix(1,0,0,1,252.845,30.7063)">
            <path d="M1.115,44.623L1.189,44.642L1.598,44.642L2.118,44.196C3.283,43.143 4.131,41.83 4.664,40.257C5.196,38.684 5.463,37.048 5.463,35.351C5.463,34.509 5.401,33.698 5.277,32.917C5.153,32.137 5.011,31.474 4.85,30.929C4.689,30.384 4.459,29.839 4.162,29.294C3.865,28.749 3.629,28.334 3.456,28.049C3.283,27.764 3.029,27.448 2.694,27.102C2.36,26.755 2.162,26.55 2.1,26.488C2.038,26.427 1.895,26.309 1.672,26.135C1.635,26.098 1.61,26.074 1.598,26.061L1.171,26.061C1.133,26.061 1.102,26.08 1.078,26.117C1.053,26.154 1.034,26.21 1.022,26.284C1.034,26.296 1.102,26.377 1.226,26.526C3.146,28.52 4.106,31.462 4.106,35.351C4.106,39.241 3.146,42.183 1.226,44.177C1.102,44.326 1.034,44.406 1.022,44.419C1.022,44.518 1.053,44.586 1.115,44.623Z" style="fill:white;fill-rule:nonzero;stroke:black;stroke-width:0.02px;"/>
        </g>
    </g>
</svg>
