<?xml version="1.0" encoding="UTF-8" standalone="no"?>
<!DOCTYPE svg PUBLIC "-//W3C//DTD SVG 1.1//EN" "http://www.w3.org/Graphics/SVG/1.1/DTD/svg11.dtd">
<svg width="100%" height="100%" viewBox="0 0 206 57" version="1.1" xmlns="http://www.w3.org/2000/svg" xmlns:xlink="http://www.w3.org/1999/xlink" xml:space="preserve" xmlns:serif="http://www.serif.com/" style="fill-rule:evenodd;clip-rule:evenodd;">
    <g transform="matrix(1,0,0,-1,-1,103)">
        <g>
            <g id="E1-MJMAIN-4E" transform="matrix(1,0,0,1,0,34.7047)">
                <path d="M0.78,35.559C1.177,35.584 1.499,35.646 1.747,35.745C1.994,35.844 2.143,35.925 2.193,35.987C2.242,36.049 2.304,36.154 2.378,36.303L2.378,46.485L2.304,46.485C2.18,46.522 1.734,46.541 0.966,46.541L0.465,46.541L0.465,47.395L4.311,47.395L4.367,47.34C4.391,47.327 4.93,46.547 5.983,44.999C7.036,43.45 8.095,41.896 9.16,40.335L10.74,38.012L10.74,45.816C10.665,45.94 10.604,46.033 10.554,46.095C10.504,46.157 10.356,46.243 10.108,46.355C9.86,46.466 9.538,46.528 9.142,46.541L8.826,46.541L8.826,47.395L8.975,47.395C9.16,47.358 9.885,47.34 11.149,47.34C12.462,47.34 13.174,47.358 13.285,47.395L13.453,47.395L13.453,46.541L13.137,46.541C12.232,46.491 11.706,46.25 11.557,45.816L11.539,40.316L11.539,34.816L11.409,34.705L11.149,34.705C10.963,34.705 10.851,34.723 10.814,34.76C10.777,34.798 10.151,35.708 8.937,37.492C7.723,39.276 6.491,41.09 5.24,42.936C3.989,44.782 3.301,45.785 3.177,45.946L3.177,41.115L3.196,36.303C3.332,35.857 3.859,35.609 4.775,35.559L5.091,35.559L5.091,34.705L4.924,34.705C4.738,34.742 4.026,34.76 2.787,34.76C1.524,34.76 0.799,34.742 0.613,34.705L0.465,34.705L0.465,35.559L0.78,35.559Z" style="fill:white;fill-rule:nonzero;stroke:white;stroke-width:0.02px;"/>
            </g>
            <g id="E1-MJMAIN-50" transform="matrix(1,0,0,1,13.9357,34.7047)">
                <path d="M2.416,46.262C2.329,46.349 2.261,46.405 2.211,46.429C2.162,46.454 2.062,46.473 1.914,46.485C1.765,46.497 1.499,46.516 1.115,46.541L0.502,46.541L0.502,47.395L5.128,47.395C5.611,47.395 5.952,47.402 6.15,47.414C7.24,47.414 8.107,47.334 8.752,47.173C9.396,47.011 9.99,46.671 10.535,46.151C11.241,45.494 11.594,44.707 11.594,43.791C11.594,42.948 11.279,42.224 10.647,41.617C10.015,41.01 9.259,40.607 8.38,40.409C8.107,40.347 7.346,40.31 6.095,40.298L4.348,40.298L4.348,38.068C4.348,36.594 4.367,35.832 4.404,35.782C4.503,35.646 4.918,35.572 5.649,35.559L6.262,35.559L6.262,34.705L6.057,34.705C5.797,34.742 4.905,34.76 3.382,34.76C1.709,34.76 0.818,34.742 0.706,34.705L0.502,34.705L0.502,35.559L1.115,35.559C1.635,35.572 1.951,35.59 2.062,35.615C2.174,35.64 2.292,35.714 2.416,35.838L2.416,46.262ZM9.421,43.772C9.421,44.094 9.414,44.342 9.402,44.515C9.39,44.689 9.352,44.912 9.29,45.184C9.229,45.457 9.123,45.661 8.975,45.798C8.826,45.934 8.622,46.076 8.361,46.225C8.101,46.374 7.773,46.466 7.377,46.504C7.228,46.528 6.671,46.541 5.704,46.541L5.314,46.541C4.707,46.541 4.385,46.485 4.348,46.374C4.311,46.324 4.292,45.426 4.292,43.679L4.292,41.059L6.299,41.059C6.931,41.059 7.451,41.103 7.86,41.189C8.269,41.276 8.628,41.481 8.937,41.803C9.259,42.162 9.421,42.818 9.421,43.772Z" style="fill:white;fill-rule:nonzero;stroke:white;stroke-width:0.02px;"/>
            </g>
            <g id="E1-MJMAIN-56" transform="matrix(1,0,0,1,26.6079,34.7047)">
                <path d="M2.118,46.225L1.988,46.355C1.988,46.355 1.963,46.374 1.914,46.411C1.864,46.448 1.833,46.46 1.821,46.448C1.809,46.435 1.765,46.448 1.691,46.485C1.617,46.522 1.548,46.528 1.486,46.504C1.425,46.479 1.344,46.485 1.245,46.522C1.146,46.559 1.028,46.566 0.892,46.541L0.353,46.541L0.353,47.395L0.52,47.395C0.743,47.358 1.511,47.34 2.824,47.34C4.323,47.34 5.203,47.358 5.463,47.395L5.667,47.395L5.667,46.541L5.277,46.541C4.521,46.504 4.144,46.398 4.144,46.225C4.144,46.2 4.701,44.664 5.816,41.617C6.931,38.57 7.494,37.046 7.507,37.046L9.105,41.357C10.158,44.206 10.684,45.686 10.684,45.798C10.684,46.033 10.554,46.213 10.294,46.336C10.034,46.46 9.749,46.528 9.439,46.541L9.346,46.541L9.346,47.395L9.513,47.395C9.699,47.358 10.412,47.34 11.65,47.34C12.777,47.34 13.378,47.358 13.453,47.395L13.564,47.395L13.564,46.541L13.434,46.541C12.505,46.541 11.91,46.287 11.65,45.779C11.65,45.767 10.957,43.878 9.569,40.112C8.182,36.346 7.476,34.457 7.451,34.445C7.389,34.345 7.271,34.296 7.098,34.296L6.819,34.296C6.646,34.296 6.528,34.345 6.466,34.445C6.441,34.469 5.717,36.433 4.292,40.335C2.843,44.224 2.118,46.188 2.118,46.225Z" style="fill:white;fill-rule:nonzero;stroke:white;stroke-width:0.02px;"/>
            </g>
            <g id="E1-MJMAIN-28" transform="matrix(1,0,0,1,40.5436,34.7047)">
                <path d="M1.747,39.35C1.747,40.205 1.809,41.016 1.932,41.784C2.056,42.552 2.199,43.215 2.36,43.772C2.521,44.33 2.75,44.875 3.047,45.407C3.345,45.94 3.58,46.355 3.753,46.652C3.927,46.95 4.187,47.272 4.534,47.618C4.881,47.965 5.085,48.176 5.147,48.25C5.209,48.325 5.364,48.455 5.611,48.64L5.927,48.64C6.101,48.64 6.187,48.585 6.187,48.473C6.187,48.436 6.082,48.306 5.872,48.083C5.661,47.86 5.407,47.532 5.11,47.098C4.812,46.665 4.509,46.132 4.199,45.5C3.89,44.868 3.629,44.014 3.419,42.936C3.208,41.858 3.103,40.663 3.103,39.35C3.103,38.037 3.208,36.848 3.419,35.782C3.629,34.717 3.883,33.856 4.181,33.2C4.478,32.543 4.781,32.01 5.091,31.602C5.401,31.193 5.661,30.865 5.872,30.617C6.082,30.369 6.187,30.239 6.187,30.227C6.187,30.115 6.095,30.059 5.909,30.059L5.611,30.059L5.091,30.505C3.927,31.558 3.078,32.871 2.546,34.445C2.013,36.018 1.747,37.653 1.747,39.35Z" style="fill:white;fill-rule:nonzero;stroke:white;stroke-width:0.02px;"/>
            </g>
            <g id="E1-MJMATHI-69" transform="matrix(1,0,0,1,47.7901,34.7047)">
                <path d="M3.419,45.853C3.419,46.151 3.537,46.411 3.772,46.634C4.007,46.857 4.28,46.974 4.589,46.987C4.812,46.987 4.998,46.912 5.147,46.764C5.296,46.615 5.376,46.429 5.388,46.206C5.388,45.921 5.265,45.661 5.017,45.426C4.769,45.191 4.497,45.067 4.199,45.054C4.013,45.054 3.84,45.116 3.679,45.24C3.518,45.364 3.431,45.568 3.419,45.853ZM0.39,40.037C0.39,40.137 0.446,40.329 0.557,40.613C0.669,40.898 0.818,41.214 1.003,41.561C1.189,41.908 1.462,42.224 1.821,42.509C2.18,42.794 2.552,42.93 2.936,42.917C3.419,42.917 3.821,42.775 4.144,42.49C4.466,42.205 4.633,41.821 4.645,41.338C4.645,41.128 4.559,40.781 4.385,40.298C4.212,39.814 3.964,39.164 3.642,38.347C3.32,37.529 3.06,36.829 2.861,36.247C2.8,35.974 2.769,35.776 2.769,35.652C2.769,35.343 2.874,35.188 3.084,35.188C3.196,35.188 3.314,35.206 3.437,35.244C3.561,35.281 3.704,35.367 3.865,35.504C4.026,35.64 4.193,35.857 4.367,36.154C4.54,36.451 4.695,36.817 4.831,37.25C4.868,37.399 4.899,37.486 4.924,37.51C4.949,37.535 5.054,37.548 5.24,37.548C5.488,37.548 5.611,37.486 5.611,37.362C5.611,37.263 5.556,37.071 5.444,36.786C5.333,36.501 5.178,36.185 4.98,35.838C4.781,35.491 4.503,35.182 4.144,34.909C3.784,34.637 3.4,34.5 2.992,34.5C2.595,34.5 2.23,34.63 1.895,34.891C1.561,35.151 1.387,35.547 1.375,36.08C1.375,36.29 1.406,36.488 1.468,36.674C1.53,36.86 1.796,37.566 2.267,38.793C2.738,40.044 3.01,40.793 3.084,41.041C3.159,41.289 3.202,41.53 3.214,41.765C3.214,42.063 3.109,42.211 2.899,42.211L2.861,42.211C2.49,42.211 2.149,42.007 1.84,41.598C1.53,41.189 1.294,40.669 1.133,40.037C1.121,40.025 1.109,40.006 1.096,39.982C1.084,39.957 1.078,39.938 1.078,39.926C1.078,39.914 1.065,39.901 1.041,39.889C1.016,39.876 0.997,39.87 0.985,39.87L0.502,39.87C0.427,39.945 0.39,40 0.39,40.037Z" style="fill:white;fill-rule:nonzero;stroke:white;stroke-width:0.02px;"/>
            </g>
            <g id="E1-MJMAIN-2C" transform="matrix(1,0,0,1,54.2006,34.7047)">
                <path d="M1.449,35.355C2.416,35.789 2.416,35.943 1.449,35.82C0.483,35.696 0.582,35.962 1.747,36.619C2.911,37.275 3.177,37.387 2.546,36.953C2.892,36.953 3.202,36.798 3.475,36.488C3.747,36.179 3.89,35.634 3.902,34.853C3.902,34.42 3.846,33.999 3.735,33.59C3.623,33.181 3.493,32.828 3.345,32.531C3.196,32.233 3.035,31.98 2.861,31.769C2.688,31.558 2.539,31.391 2.416,31.267C2.292,31.143 2.211,31.088 2.174,31.1C2.124,31.1 2.044,31.156 1.932,31.267C1.821,31.379 1.765,31.459 1.765,31.509C1.765,31.558 1.833,31.657 1.97,31.806C2.106,31.955 2.261,32.141 2.434,32.364C2.608,32.586 2.769,32.896 2.917,33.293C3.066,33.689 3.165,34.141 3.214,34.649L3.214,34.872L3.196,34.853C3.171,34.841 3.14,34.829 3.103,34.816C3.066,34.804 3.029,34.785 2.992,34.76C2.954,34.736 2.899,34.723 2.824,34.723C2.75,34.723 2.676,34.717 2.601,34.705C2.267,34.705 1.994,34.81 1.784,35.021L1.449,35.355Z" style="fill:white;fill-rule:nonzero;stroke:white;stroke-width:0.02px;"/>
            </g>
            <g id="E1-MJMATHI-4E" transform="matrix(1,0,0,1,62.4691,34.7047)">
                <path d="M4.348,46.541L4.199,46.541C3.89,46.541 3.704,46.547 3.642,46.559C3.58,46.572 3.549,46.64 3.549,46.764C3.549,47.098 3.617,47.303 3.753,47.377C3.778,47.389 4.379,47.395 5.556,47.395L7.191,47.395C7.327,47.395 7.414,47.358 7.451,47.284C10.065,41.14 11.396,37.987 11.446,37.826L12.449,41.784C13.106,44.398 13.434,45.791 13.434,45.965C13.434,46.299 13.038,46.491 12.245,46.541C11.948,46.541 11.799,46.609 11.799,46.745C11.799,46.77 11.811,46.844 11.836,46.968C11.886,47.166 11.923,47.284 11.948,47.321C11.972,47.358 12.034,47.383 12.133,47.395C12.171,47.395 12.363,47.389 12.709,47.377C13.056,47.365 13.57,47.352 14.252,47.34C14.871,47.34 15.342,47.346 15.664,47.358C15.986,47.371 16.172,47.377 16.221,47.377C16.407,47.377 16.5,47.315 16.5,47.191C16.5,46.919 16.45,46.733 16.351,46.634C16.326,46.572 16.19,46.541 15.942,46.541C15.063,46.491 14.512,46.243 14.289,45.798L11.52,34.835C11.495,34.748 11.365,34.705 11.13,34.705C10.957,34.705 10.851,34.717 10.814,34.742C10.777,34.779 9.978,36.656 8.417,40.372L6.057,45.928L4.85,41.097C4.044,37.925 3.642,36.284 3.642,36.173C3.704,35.764 4.15,35.559 4.98,35.559L5.165,35.559C5.24,35.498 5.277,35.448 5.277,35.411C5.277,35.374 5.265,35.256 5.24,35.058C5.19,34.897 5.128,34.779 5.054,34.705L4.812,34.705C4.428,34.729 3.76,34.742 2.806,34.742L1.171,34.742C0.997,34.742 0.892,34.736 0.855,34.723C0.669,34.723 0.576,34.779 0.576,34.891C0.576,34.94 0.595,35.039 0.632,35.188C0.669,35.336 0.7,35.423 0.725,35.448C0.749,35.522 0.892,35.559 1.152,35.559C1.994,35.597 2.539,35.838 2.787,36.284C2.837,36.358 3.276,38.074 4.106,41.431L5.37,46.485C5.345,46.497 5.004,46.516 4.348,46.541Z" style="fill:white;fill-rule:nonzero;stroke:white;stroke-width:0.02px;"/>
            </g>
            <g id="E1-MJMAIN-29" transform="matrix(1,0,0,1,78.9875,34.7047)">
                <path d="M1.115,48.622L1.189,48.64L1.598,48.64L2.118,48.194C3.283,47.142 4.131,45.829 4.664,44.255C5.196,42.682 5.463,41.047 5.463,39.35C5.463,38.508 5.401,37.696 5.277,36.916C5.153,36.135 5.011,35.473 4.85,34.928C4.689,34.383 4.459,33.838 4.162,33.293C3.865,32.748 3.629,32.333 3.456,32.048C3.283,31.763 3.029,31.447 2.694,31.1C2.36,30.753 2.162,30.549 2.1,30.487C2.038,30.425 1.895,30.307 1.672,30.134C1.635,30.097 1.61,30.072 1.598,30.059L1.171,30.059C1.133,30.059 1.102,30.078 1.078,30.115C1.053,30.152 1.034,30.208 1.022,30.282C1.034,30.295 1.102,30.375 1.226,30.524C3.146,32.518 4.106,35.46 4.106,39.35C4.106,43.24 3.146,46.182 1.226,48.176C1.102,48.325 1.034,48.405 1.022,48.417C1.022,48.517 1.053,48.585 1.115,48.622Z" style="fill:white;fill-rule:nonzero;stroke:white;stroke-width:0.02px;"/>
            </g>
            <g id="E1-MJMAIN-3D" transform="matrix(1,0,0,1,91.381,34.7047)">
                <path d="M1.041,41.152C1.041,41.313 1.127,41.437 1.301,41.524L13.137,41.524C13.323,41.425 13.415,41.301 13.415,41.152C13.415,41.016 13.329,40.898 13.155,40.799L7.247,40.781L1.338,40.781C1.14,40.843 1.041,40.966 1.041,41.152ZM1.041,37.548C1.041,37.733 1.14,37.857 1.338,37.919L13.155,37.919C13.329,37.795 13.415,37.671 13.415,37.548C13.415,37.387 13.323,37.263 13.137,37.176L1.301,37.176C1.127,37.263 1.041,37.387 1.041,37.548Z" style="fill:white;fill-rule:nonzero;stroke:white;stroke-width:0.02px;"/>
            </g>
            <g id="E1-MJSZ2-2211" transform="matrix(1,0,0,1,111.002,34.7047)">
                <path d="M1.115,52.319C1.152,52.344 4.899,52.357 12.356,52.357L23.542,52.357L24.62,49.848C25.351,48.139 25.741,47.234 25.79,47.135L25.047,47.135L24.917,47.395C24.657,47.903 24.31,48.386 23.876,48.845C23.257,49.439 22.57,49.916 21.814,50.276C21.058,50.635 20.185,50.901 19.194,51.075C18.203,51.248 17.268,51.353 16.388,51.39C15.509,51.428 14.375,51.452 12.988,51.465L4.664,51.465L4.812,51.26C10.548,43.419 13.428,39.461 13.453,39.387C13.465,39.362 13.465,39.325 13.453,39.276C13.415,39.238 11.78,37.368 8.547,33.664L3.642,28.09C3.642,28.078 4.949,28.071 7.562,28.071L10.182,28.071C11.285,28.071 12.078,28.065 12.561,28.053C14.245,28.053 15.608,28.084 16.649,28.146C17.689,28.208 18.723,28.338 19.752,28.536C20.78,28.734 21.653,29.038 22.371,29.446C23.09,29.855 23.728,30.394 24.285,31.063C24.545,31.385 24.799,31.831 25.047,32.401L25.79,32.401C25.79,32.388 25.747,32.258 25.66,32.01C25.574,31.763 25.419,31.36 25.196,30.803C24.973,30.245 24.781,29.725 24.62,29.242L23.542,26.362L12.375,26.343C4.918,26.343 1.171,26.356 1.133,26.38C1.059,26.405 1.022,26.461 1.022,26.548C1.022,26.572 1.034,26.61 1.059,26.659L10.963,37.994C10.963,38.006 10.758,38.285 10.35,38.83C9.941,39.375 9.29,40.267 8.399,41.505C7.507,42.744 6.702,43.847 5.983,44.813L1.041,51.595L1.022,51.873C1.022,52.134 1.053,52.282 1.115,52.319Z" style="fill:white;fill-rule:nonzero;stroke:white;stroke-width:0.02px;"/>
            </g>
            <g id="E1-MJMATHI-74" transform="matrix(0.707,0,0,0.707,114.641,23.283)">
                <path d="M0.483,41.858C0.396,41.945 0.353,42.007 0.353,42.044C0.353,42.094 0.372,42.193 0.409,42.341C0.446,42.49 0.477,42.577 0.502,42.602C0.526,42.664 0.582,42.695 0.669,42.695C0.756,42.695 1.071,42.701 1.617,42.713L2.601,42.713L2.954,44.2C2.992,44.336 3.035,44.515 3.084,44.738C3.134,44.961 3.177,45.122 3.214,45.222C3.252,45.321 3.289,45.444 3.326,45.593C3.363,45.742 3.413,45.847 3.475,45.909C3.537,45.971 3.599,46.045 3.66,46.132C3.722,46.219 3.809,46.274 3.921,46.299C4.032,46.324 4.144,46.336 4.255,46.336C4.478,46.324 4.633,46.256 4.72,46.132C4.806,46.008 4.85,45.89 4.85,45.779C4.85,45.692 4.794,45.401 4.682,44.906C4.571,44.41 4.447,43.921 4.311,43.438L4.125,42.75C4.125,42.725 4.435,42.713 5.054,42.713L6.002,42.713C6.088,42.626 6.132,42.558 6.132,42.509C6.132,42.236 6.051,42.019 5.89,41.858L3.902,41.858L3.233,39.164C2.75,37.182 2.508,36.117 2.508,35.968C2.508,35.448 2.676,35.188 3.01,35.188C3.444,35.188 3.865,35.398 4.274,35.82C4.682,36.241 5.011,36.761 5.258,37.38C5.283,37.455 5.314,37.498 5.351,37.51C5.388,37.523 5.481,37.535 5.63,37.548L5.704,37.548C5.89,37.548 5.983,37.498 5.983,37.399C5.983,37.362 5.964,37.287 5.927,37.176C5.865,36.978 5.754,36.742 5.593,36.47C5.432,36.197 5.221,35.906 4.961,35.597C4.701,35.287 4.385,35.027 4.013,34.816C3.642,34.606 3.264,34.5 2.88,34.5C2.508,34.5 2.155,34.593 1.821,34.779C1.486,34.965 1.245,35.287 1.096,35.745C1.071,35.844 1.059,36.012 1.059,36.247L1.059,36.581L1.709,39.183C2.143,40.929 2.366,41.809 2.378,41.821C2.378,41.846 2.062,41.858 1.431,41.858L0.483,41.858Z" style="fill:white;fill-rule:nonzero;stroke:white;stroke-width:0.02px;"/>
            </g>
            <g id="E1-MJMAIN-3D1" serif:id="E1-MJMAIN-3D" transform="matrix(0.707,0,0,0.707,119.383,23.283)">
                <path d="M1.041,41.152C1.041,41.313 1.127,41.437 1.301,41.524L13.137,41.524C13.323,41.425 13.415,41.301 13.415,41.152C13.415,41.016 13.329,40.898 13.155,40.799L7.247,40.781L1.338,40.781C1.14,40.843 1.041,40.966 1.041,41.152ZM1.041,37.548C1.041,37.733 1.14,37.857 1.338,37.919L13.155,37.919C13.329,37.795 13.415,37.671 13.415,37.548C13.415,37.387 13.323,37.263 13.137,37.176L1.301,37.176C1.127,37.263 1.041,37.387 1.041,37.548Z" style="fill:white;fill-rule:nonzero;stroke:white;stroke-width:0.02px;"/>
            </g>
            <g id="E1-MJMAIN-30" transform="matrix(0.707,0,0,0.707,129.617,23.283)">
                <path d="M1.784,45.575C2.477,46.578 3.425,47.08 4.627,47.08C5.221,47.08 5.816,46.919 6.41,46.597C7.005,46.274 7.488,45.705 7.86,44.887C8.318,43.859 8.547,42.447 8.547,40.651C8.547,38.731 8.281,37.263 7.748,36.247C7.5,35.727 7.16,35.312 6.726,35.002C6.293,34.692 5.915,34.5 5.593,34.426C5.271,34.352 4.955,34.308 4.645,34.296C4.323,34.296 4.001,34.333 3.679,34.407C3.357,34.482 2.979,34.68 2.546,35.002C2.112,35.324 1.771,35.739 1.524,36.247C0.991,37.263 0.725,38.731 0.725,40.651C0.725,42.806 1.078,44.447 1.784,45.575ZM5.964,45.798C5.593,46.194 5.153,46.392 4.645,46.392C4.125,46.392 3.679,46.194 3.307,45.798C2.998,45.475 2.793,45.03 2.694,44.46C2.595,43.89 2.546,42.701 2.546,40.892C2.546,38.935 2.595,37.647 2.694,37.027C2.793,36.408 3.016,35.919 3.363,35.559C3.71,35.188 4.137,35.002 4.645,35.002C5.141,35.002 5.562,35.188 5.909,35.559C6.268,35.931 6.491,36.451 6.578,37.12C6.664,37.789 6.714,39.046 6.726,40.892C6.726,42.688 6.677,43.871 6.578,44.441C6.479,45.011 6.274,45.463 5.964,45.798Z" style="fill:white;fill-rule:nonzero;stroke:white;stroke-width:0.02px;"/>
            </g>
            <g id="E1-MJMATHI-4E1" serif:id="E1-MJMATHI-4E" transform="matrix(0.707,0,0,0.707,120.582,67.9097)">
                <path d="M4.348,46.541L4.199,46.541C3.89,46.541 3.704,46.547 3.642,46.559C3.58,46.572 3.549,46.64 3.549,46.764C3.549,47.098 3.617,47.303 3.753,47.377C3.778,47.389 4.379,47.395 5.556,47.395L7.191,47.395C7.327,47.395 7.414,47.358 7.451,47.284C10.065,41.14 11.396,37.987 11.446,37.826L12.449,41.784C13.106,44.398 13.434,45.791 13.434,45.965C13.434,46.299 13.038,46.491 12.245,46.541C11.948,46.541 11.799,46.609 11.799,46.745C11.799,46.77 11.811,46.844 11.836,46.968C11.886,47.166 11.923,47.284 11.948,47.321C11.972,47.358 12.034,47.383 12.133,47.395C12.171,47.395 12.363,47.389 12.709,47.377C13.056,47.365 13.57,47.352 14.252,47.34C14.871,47.34 15.342,47.346 15.664,47.358C15.986,47.371 16.172,47.377 16.221,47.377C16.407,47.377 16.5,47.315 16.5,47.191C16.5,46.919 16.45,46.733 16.351,46.634C16.326,46.572 16.19,46.541 15.942,46.541C15.063,46.491 14.512,46.243 14.289,45.798L11.52,34.835C11.495,34.748 11.365,34.705 11.13,34.705C10.957,34.705 10.851,34.717 10.814,34.742C10.777,34.779 9.978,36.656 8.417,40.372L6.057,45.928L4.85,41.097C4.044,37.925 3.642,36.284 3.642,36.173C3.704,35.764 4.15,35.559 4.98,35.559L5.165,35.559C5.24,35.498 5.277,35.448 5.277,35.411C5.277,35.374 5.265,35.256 5.24,35.058C5.19,34.897 5.128,34.779 5.054,34.705L4.812,34.705C4.428,34.729 3.76,34.742 2.806,34.742L1.171,34.742C0.997,34.742 0.892,34.736 0.855,34.723C0.669,34.723 0.576,34.779 0.576,34.891C0.576,34.94 0.595,35.039 0.632,35.188C0.669,35.336 0.7,35.423 0.725,35.448C0.749,35.522 0.892,35.559 1.152,35.559C1.994,35.597 2.539,35.838 2.787,36.284C2.837,36.358 3.276,38.074 4.106,41.431L5.37,46.485C5.345,46.497 5.004,46.516 4.348,46.541Z" style="fill:white;fill-rule:nonzero;stroke:white;stroke-width:0.02px;"/>
            </g>
            <g transform="matrix(1,0,0,1,142.166,35)">
                <rect x="0" y="38.793" width="61.744" height="1.115" style="fill:white;stroke:white;stroke-width:1px;stroke-linejoin:round;stroke-miterlimit:2;"/>
            </g>
            <g id="E1-MJMATHI-52" transform="matrix(1,0,0,1,163.679,47.284)">
                <path d="M4.274,46.541C3.939,46.541 3.741,46.547 3.679,46.559C3.617,46.572 3.586,46.64 3.586,46.764C3.586,47.098 3.654,47.303 3.791,47.377C3.815,47.389 4.893,47.395 7.024,47.395C9.154,47.383 10.306,47.365 10.48,47.34C11.173,47.241 11.756,47.067 12.226,46.819C12.697,46.572 13.031,46.287 13.23,45.965C13.428,45.643 13.558,45.376 13.62,45.166C13.682,44.955 13.719,44.745 13.731,44.534C13.731,43.977 13.552,43.456 13.192,42.973C12.833,42.49 12.418,42.119 11.948,41.858C11.477,41.598 11.062,41.388 10.703,41.227C10.343,41.066 10.108,40.985 9.997,40.985L10.127,40.892C10.957,40.421 11.372,39.74 11.372,38.848C11.372,38.712 11.341,38.334 11.279,37.715C11.217,37.095 11.186,36.588 11.186,36.191L11.186,36.024C11.186,35.801 11.192,35.628 11.204,35.504C11.217,35.38 11.285,35.268 11.409,35.169C11.533,35.07 11.694,35.014 11.892,35.002C12.239,35.002 12.524,35.138 12.747,35.411C12.969,35.683 13.131,35.974 13.23,36.284C13.292,36.458 13.341,36.563 13.378,36.6C13.415,36.637 13.508,36.656 13.657,36.656C13.905,36.656 14.029,36.581 14.029,36.433C14.029,36.21 13.88,35.857 13.583,35.374C13.112,34.668 12.555,34.315 11.91,34.315L11.743,34.315C10.988,34.315 10.362,34.469 9.866,34.779C9.371,35.089 9.098,35.572 9.049,36.228C9.049,36.563 9.142,37.083 9.328,37.789C9.513,38.495 9.606,38.947 9.606,39.146C9.606,39.777 9.34,40.236 8.807,40.521C8.622,40.607 8.467,40.657 8.343,40.669C8.219,40.682 7.779,40.694 7.024,40.706L5.742,40.706L5.147,38.291C4.738,36.656 4.534,35.826 4.534,35.801C4.534,35.751 4.54,35.72 4.552,35.708C4.565,35.696 4.608,35.671 4.682,35.634C4.757,35.597 4.862,35.584 4.998,35.597C5.135,35.609 5.339,35.597 5.611,35.559L6.187,35.559C6.262,35.46 6.299,35.405 6.299,35.392C6.299,35.38 6.28,35.268 6.243,35.058C6.194,34.897 6.132,34.779 6.057,34.705L5.779,34.705C5.333,34.729 4.521,34.742 3.345,34.742L1.319,34.742C1.109,34.742 0.979,34.736 0.929,34.723C0.718,34.723 0.613,34.779 0.613,34.891C0.613,34.915 0.632,35.002 0.669,35.151C0.731,35.386 0.793,35.516 0.855,35.541C0.904,35.553 0.997,35.559 1.133,35.559L1.245,35.559C1.579,35.559 1.951,35.578 2.36,35.615C2.533,35.652 2.651,35.727 2.713,35.838C2.75,35.888 3.196,37.61 4.051,41.004C4.905,44.398 5.333,46.188 5.333,46.374C5.333,46.46 4.98,46.516 4.274,46.541ZM11.706,44.999C11.706,45.395 11.576,45.729 11.316,46.002C11.056,46.274 10.523,46.448 9.718,46.522L9.29,46.522C9.03,46.522 8.795,46.528 8.584,46.541L8.176,46.541C7.593,46.541 7.259,46.479 7.172,46.355C7.16,46.318 6.949,45.494 6.54,43.884C6.132,42.273 5.927,41.45 5.927,41.412C5.927,41.4 6.355,41.394 7.209,41.394C8.176,41.406 8.82,41.45 9.142,41.524C9.935,41.648 10.554,42.013 11,42.62C11.198,42.905 11.365,43.277 11.502,43.735C11.638,44.193 11.706,44.615 11.706,44.999Z" style="fill:white;fill-rule:nonzero;stroke:white;stroke-width:0.02px;"/>
            </g>
            <g id="E1-MJMATHI-741" serif:id="E1-MJMATHI-74" transform="matrix(0.707,0,0,0.707,179.788,52.3174)">
                <path d="M0.483,41.858C0.396,41.945 0.353,42.007 0.353,42.044C0.353,42.094 0.372,42.193 0.409,42.341C0.446,42.49 0.477,42.577 0.502,42.602C0.526,42.664 0.582,42.695 0.669,42.695C0.756,42.695 1.071,42.701 1.617,42.713L2.601,42.713L2.954,44.2C2.992,44.336 3.035,44.515 3.084,44.738C3.134,44.961 3.177,45.122 3.214,45.222C3.252,45.321 3.289,45.444 3.326,45.593C3.363,45.742 3.413,45.847 3.475,45.909C3.537,45.971 3.599,46.045 3.66,46.132C3.722,46.219 3.809,46.274 3.921,46.299C4.032,46.324 4.144,46.336 4.255,46.336C4.478,46.324 4.633,46.256 4.72,46.132C4.806,46.008 4.85,45.89 4.85,45.779C4.85,45.692 4.794,45.401 4.682,44.906C4.571,44.41 4.447,43.921 4.311,43.438L4.125,42.75C4.125,42.725 4.435,42.713 5.054,42.713L6.002,42.713C6.088,42.626 6.132,42.558 6.132,42.509C6.132,42.236 6.051,42.019 5.89,41.858L3.902,41.858L3.233,39.164C2.75,37.182 2.508,36.117 2.508,35.968C2.508,35.448 2.676,35.188 3.01,35.188C3.444,35.188 3.865,35.398 4.274,35.82C4.682,36.241 5.011,36.761 5.258,37.38C5.283,37.455 5.314,37.498 5.351,37.51C5.388,37.523 5.481,37.535 5.63,37.548L5.704,37.548C5.89,37.548 5.983,37.498 5.983,37.399C5.983,37.362 5.964,37.287 5.927,37.176C5.865,36.978 5.754,36.742 5.593,36.47C5.432,36.197 5.221,35.906 4.961,35.597C4.701,35.287 4.385,35.027 4.013,34.816C3.642,34.606 3.264,34.5 2.88,34.5C2.508,34.5 2.155,34.593 1.821,34.779C1.486,34.965 1.245,35.287 1.096,35.745C1.071,35.844 1.059,36.012 1.059,36.247L1.059,36.581L1.709,39.183C2.143,40.929 2.366,41.809 2.378,41.821C2.378,41.846 2.062,41.858 1.431,41.858L0.483,41.858Z" style="fill:white;fill-rule:nonzero;stroke:white;stroke-width:0.02px;"/>
            </g>
            <g id="E1-MJMAIN-281" serif:id="E1-MJMAIN-28" transform="matrix(1,0,0,1,144.281,20.3788)">
                <path d="M1.747,39.35C1.747,40.205 1.809,41.016 1.932,41.784C2.056,42.552 2.199,43.215 2.36,43.772C2.521,44.33 2.75,44.875 3.047,45.407C3.345,45.94 3.58,46.355 3.753,46.652C3.927,46.95 4.187,47.272 4.534,47.618C4.881,47.965 5.085,48.176 5.147,48.25C5.209,48.325 5.364,48.455 5.611,48.64L5.927,48.64C6.101,48.64 6.187,48.585 6.187,48.473C6.187,48.436 6.082,48.306 5.872,48.083C5.661,47.86 5.407,47.532 5.11,47.098C4.812,46.665 4.509,46.132 4.199,45.5C3.89,44.868 3.629,44.014 3.419,42.936C3.208,41.858 3.103,40.663 3.103,39.35C3.103,38.037 3.208,36.848 3.419,35.782C3.629,34.717 3.883,33.856 4.181,33.2C4.478,32.543 4.781,32.01 5.091,31.602C5.401,31.193 5.661,30.865 5.872,30.617C6.082,30.369 6.187,30.239 6.187,30.227C6.187,30.115 6.095,30.059 5.909,30.059L5.611,30.059L5.091,30.505C3.927,31.558 3.078,32.871 2.546,34.445C2.013,36.018 1.747,37.653 1.747,39.35Z" style="fill:white;fill-rule:nonzero;stroke:white;stroke-width:0.02px;"/>
            </g>
            <g id="E1-MJMAIN-31" transform="matrix(1,0,0,1,151.509,20.3788)">
                <path d="M3.958,45.444L3.716,45.352C3.543,45.29 3.295,45.228 2.973,45.166C2.651,45.104 2.292,45.06 1.895,45.036L1.542,45.036L1.542,45.89L1.895,45.89C2.477,45.915 3.016,46.008 3.512,46.169C4.007,46.33 4.354,46.479 4.552,46.615C4.751,46.751 4.924,46.888 5.073,47.024C5.097,47.061 5.172,47.08 5.296,47.08C5.407,47.08 5.512,47.042 5.611,46.968L5.611,41.412L5.63,35.838C5.717,35.751 5.791,35.696 5.853,35.671C5.915,35.646 6.064,35.621 6.299,35.597C6.534,35.572 6.918,35.559 7.451,35.559L7.934,35.559L7.934,34.705L7.73,34.705C7.47,34.742 6.485,34.76 4.775,34.76C3.091,34.76 2.118,34.742 1.858,34.705L1.635,34.705L1.635,35.559L2.824,35.559C3.022,35.559 3.177,35.566 3.289,35.578C3.4,35.59 3.499,35.609 3.586,35.634C3.673,35.659 3.722,35.671 3.735,35.671C3.747,35.671 3.784,35.702 3.846,35.764C3.908,35.826 3.945,35.851 3.958,35.838L3.958,45.444Z" style="fill:white;fill-rule:nonzero;stroke:white;stroke-width:0.02px;"/>
            </g>
            <g id="E1-MJMAIN-2B" transform="matrix(1,0,0,1,164.943,20.3788)">
                <path d="M1.041,39.108C1.734,42.044 1.734,42.125 1.041,39.35C0.347,36.575 0.434,36.699 1.301,39.722L6.856,39.722L6.856,42.509L6.875,45.296C6.999,45.457 7.116,45.537 7.228,45.537C7.389,45.537 7.513,45.444 7.6,45.259L7.6,39.722L13.137,39.722C13.323,39.622 13.415,39.499 13.415,39.35C13.415,39.201 13.323,39.077 13.137,38.978L7.6,38.978L7.6,33.441C7.5,33.268 7.389,33.181 7.265,33.181L7.191,33.181C7.042,33.181 6.931,33.268 6.856,33.441L6.856,38.978L1.301,38.978C1.127,39.065 1.041,39.189 1.041,39.35L1.041,39.108Z" style="fill:white;fill-rule:nonzero;stroke:white;stroke-width:0.02px;"/>
            </g>
            <g id="E1-MJMATHI-691" serif:id="E1-MJMATHI-69" transform="matrix(1,0,0,1,183.524,20.3788)">
                <path d="M3.419,45.853C3.419,46.151 3.537,46.411 3.772,46.634C4.007,46.857 4.28,46.974 4.589,46.987C4.812,46.987 4.998,46.912 5.147,46.764C5.296,46.615 5.376,46.429 5.388,46.206C5.388,45.921 5.265,45.661 5.017,45.426C4.769,45.191 4.497,45.067 4.199,45.054C4.013,45.054 3.84,45.116 3.679,45.24C3.518,45.364 3.431,45.568 3.419,45.853ZM0.39,40.037C0.39,40.137 0.446,40.329 0.557,40.613C0.669,40.898 0.818,41.214 1.003,41.561C1.189,41.908 1.462,42.224 1.821,42.509C2.18,42.794 2.552,42.93 2.936,42.917C3.419,42.917 3.821,42.775 4.144,42.49C4.466,42.205 4.633,41.821 4.645,41.338C4.645,41.128 4.559,40.781 4.385,40.298C4.212,39.814 3.964,39.164 3.642,38.347C3.32,37.529 3.06,36.829 2.861,36.247C2.8,35.974 2.769,35.776 2.769,35.652C2.769,35.343 2.874,35.188 3.084,35.188C3.196,35.188 3.314,35.206 3.437,35.244C3.561,35.281 3.704,35.367 3.865,35.504C4.026,35.64 4.193,35.857 4.367,36.154C4.54,36.451 4.695,36.817 4.831,37.25C4.868,37.399 4.899,37.486 4.924,37.51C4.949,37.535 5.054,37.548 5.24,37.548C5.488,37.548 5.611,37.486 5.611,37.362C5.611,37.263 5.556,37.071 5.444,36.786C5.333,36.501 5.178,36.185 4.98,35.838C4.781,35.491 4.503,35.182 4.144,34.909C3.784,34.637 3.4,34.5 2.992,34.5C2.595,34.5 2.23,34.63 1.895,34.891C1.561,35.151 1.387,35.547 1.375,36.08C1.375,36.29 1.406,36.488 1.468,36.674C1.53,36.86 1.796,37.566 2.267,38.793C2.738,40.044 3.01,40.793 3.084,41.041C3.159,41.289 3.202,41.53 3.214,41.765C3.214,42.063 3.109,42.211 2.899,42.211L2.861,42.211C2.49,42.211 2.149,42.007 1.84,41.598C1.53,41.189 1.294,40.669 1.133,40.037C1.121,40.025 1.109,40.006 1.096,39.982C1.084,39.957 1.078,39.938 1.078,39.926C1.078,39.914 1.065,39.901 1.041,39.889C1.016,39.876 0.997,39.87 0.985,39.87L0.502,39.87C0.427,39.945 0.39,40 0.39,40.037Z" style="fill:white;fill-rule:nonzero;stroke:white;stroke-width:0.02px;"/>
            </g>
            <g id="E1-MJMAIN-291" serif:id="E1-MJMAIN-29" transform="matrix(1,0,0,1,189.953,20.3788)">
                <path d="M1.115,48.622L1.189,48.64L1.598,48.64L2.118,48.194C3.283,47.142 4.131,45.829 4.664,44.255C5.196,42.682 5.463,41.047 5.463,39.35C5.463,38.508 5.401,37.696 5.277,36.916C5.153,36.135 5.011,35.473 4.85,34.928C4.689,34.383 4.459,33.838 4.162,33.293C3.865,32.748 3.629,32.333 3.456,32.048C3.283,31.763 3.029,31.447 2.694,31.1C2.36,30.753 2.162,30.549 2.1,30.487C2.038,30.425 1.895,30.307 1.672,30.134C1.635,30.097 1.61,30.072 1.598,30.059L1.171,30.059C1.133,30.059 1.102,30.078 1.078,30.115C1.053,30.152 1.034,30.208 1.022,30.282C1.034,30.295 1.102,30.375 1.226,30.524C3.146,32.518 4.106,35.46 4.106,39.35C4.106,43.24 3.146,46.182 1.226,48.176C1.102,48.325 1.034,48.405 1.022,48.417C1.022,48.517 1.053,48.585 1.115,48.622Z" style="fill:white;fill-rule:nonzero;stroke:white;stroke-width:0.02px;"/>
            </g>
            <g id="E1-MJMATHI-742" serif:id="E1-MJMATHI-74" transform="matrix(0.707,0,0,0.707,198.178,38.5701)">
                <path d="M0.483,41.858C0.396,41.945 0.353,42.007 0.353,42.044C0.353,42.094 0.372,42.193 0.409,42.341C0.446,42.49 0.477,42.577 0.502,42.602C0.526,42.664 0.582,42.695 0.669,42.695C0.756,42.695 1.071,42.701 1.617,42.713L2.601,42.713L2.954,44.2C2.992,44.336 3.035,44.515 3.084,44.738C3.134,44.961 3.177,45.122 3.214,45.222C3.252,45.321 3.289,45.444 3.326,45.593C3.363,45.742 3.413,45.847 3.475,45.909C3.537,45.971 3.599,46.045 3.66,46.132C3.722,46.219 3.809,46.274 3.921,46.299C4.032,46.324 4.144,46.336 4.255,46.336C4.478,46.324 4.633,46.256 4.72,46.132C4.806,46.008 4.85,45.89 4.85,45.779C4.85,45.692 4.794,45.401 4.682,44.906C4.571,44.41 4.447,43.921 4.311,43.438L4.125,42.75C4.125,42.725 4.435,42.713 5.054,42.713L6.002,42.713C6.088,42.626 6.132,42.558 6.132,42.509C6.132,42.236 6.051,42.019 5.89,41.858L3.902,41.858L3.233,39.164C2.75,37.182 2.508,36.117 2.508,35.968C2.508,35.448 2.676,35.188 3.01,35.188C3.444,35.188 3.865,35.398 4.274,35.82C4.682,36.241 5.011,36.761 5.258,37.38C5.283,37.455 5.314,37.498 5.351,37.51C5.388,37.523 5.481,37.535 5.63,37.548L5.704,37.548C5.89,37.548 5.983,37.498 5.983,37.399C5.983,37.362 5.964,37.287 5.927,37.176C5.865,36.978 5.754,36.742 5.593,36.47C5.432,36.197 5.221,35.906 4.961,35.597C4.701,35.287 4.385,35.027 4.013,34.816C3.642,34.606 3.264,34.5 2.88,34.5C2.508,34.5 2.155,34.593 1.821,34.779C1.486,34.965 1.245,35.287 1.096,35.745C1.071,35.844 1.059,36.012 1.059,36.247L1.059,36.581L1.709,39.183C2.143,40.929 2.366,41.809 2.378,41.821C2.378,41.846 2.062,41.858 1.431,41.858L0.483,41.858Z" style="fill:white;fill-rule:nonzero;stroke:white;stroke-width:0.02px;"/>
            </g>
        </g>
    </g>
</svg>
